<?xml version="1.0" encoding="UTF-8"?>
<svg width="56px" height="64px" viewBox="0 0 56 64" version="1.1" xmlns="http://www.w3.org/2000/svg" xmlns:xlink="http://www.w3.org/1999/xlink">
    <!-- Generator: Sketch 61.2 (89653) - https://sketch.com -->
    <title>artificial-intelligence</title>
    <desc>Created with Sketch.</desc>
    <g id="Page-1" stroke="none" stroke-width="1" fill="none" fill-rule="evenodd">
        <g id="Portfolio---2" transform="translate(-1082.000000, -1804.000000)" fill="#EA5D5D">
            <g id="Skills" transform="translate(-420.000000, 1632.000000)">
                <g id="Content" transform="translate(570.000000, 130.000000)">
                    <g id="Group-3" transform="translate(780.000000, 0.000000)">
                        <path d="M181.881,42.003375 C188.74825,41.89375 195.233125,44.443875 200.1415,49.187625 C205.051375,53.932625 207.819625,60.326625 207.936375,67.191875 C208.042875,73.458625 205.934375,80.479375 202.43375,85.51425 C201.270875,87.186625 200.65625,89.15075 200.65625,91.194125 L200.65625,91.194125 L200.65625,103.5 L206.688375,103.5 C207.37875,103.5 207.938375,104.05975 207.938375,104.75 C207.938375,105.44025 207.37875,106 206.688375,106 L206.688375,106 L153.30975,106 C152.619375,106 152.05975,105.44025 152.05975,104.75 C152.05975,104.05975 152.619375,103.5 153.30975,103.5 L153.30975,103.5 L177.00575,103.5 L177.00575,101.631125 C177.00575,100.321625 175.940375,99.256375 174.630875,99.256375 L174.630875,99.256375 L166.7655,99.256375 C162.681125,99.256375 159.35825,95.9335 159.35825,91.849 L159.35825,91.849 L159.35825,84.0775 L153.30975,84.0775 C152.914,84.0775 152.5415,83.890125 152.30575,83.57225 C152.07,83.25425 151.99875,82.843625 152.1135,82.464875 L152.1135,82.464875 L156.666,67.449875 C156.7005,62.69725 158.043,58.070125 160.55375,54.057125 C160.753875,53.737375 160.964125,53.417375 161.17875,53.105875 C161.5705,52.53725 162.348875,52.394 162.91725,52.78575 C163.48575,53.1775 163.629125,53.95575 163.237375,54.52425 C163.0435,54.805625 162.85375,55.0945 162.673125,55.383125 C160.378375,59.050875 159.165375,63.28825 159.165375,67.637375 C159.165375,67.76025 159.14725,67.8825 159.111625,68 L159.111625,68 L154.995,81.577375 L160.6085,81.577375 C161.298875,81.577375 161.8585,82.137125 161.8585,82.827375 L161.8585,82.827375 L161.8585,91.848875 C161.8585,94.554875 164.059875,96.75625 166.76575,96.75625 L166.76575,96.75625 L174.631125,96.75625 C177.319125,96.75625 179.506,98.943 179.506,101.631 L179.506,101.631 L179.506,103.5 L183.894375,103.5 L183.894375,93.268125 L182.010125,91.385375 C181.41675,91.7005 180.74075,91.879875 180.023375,91.879875 C177.679875,91.879875 175.773375,89.973375 175.773375,87.629875 C175.773375,85.286375 177.679875,83.379875 180.023375,83.379875 C182.366875,83.379875 184.273375,85.286375 184.273375,87.629875 C184.273375,88.34775 184.09375,89.02425 183.77825,89.617875 L183.77825,89.617875 L186.028,91.86575 C186.262625,92.10025 186.3945,92.418375 186.3945,92.75 L186.3945,92.75 L186.3945,103.5 L198.1565,103.5 L198.1565,91.193875 C198.1565,88.637875 198.925875,86.18025 200.381375,84.086875 C203.549,79.53075 205.5335,72.91575 205.437,67.234125 C205.296125,58.948625 200.784125,51.739375 194.1395,47.767125 L194.1395,47.767125 L194.1395,64.499375 L196.02375,66.382125 C196.617125,66.067 197.293125,65.887625 198.0105,65.887625 C200.354,65.887625 202.2605,67.794125 202.2605,70.137625 C202.2605,72.481125 200.354,74.387625 198.0105,74.387625 C195.667,74.387625 193.7605,72.481125 193.7605,70.137625 C193.7605,69.41975 193.940125,68.74325 194.255625,68.149625 L194.255625,68.149625 L192.005875,65.90175 C191.77125,65.66725 191.639375,65.349125 191.639375,65.0175 L191.639375,65.0175 L191.639375,46.472125 C189.982375,45.738 188.22475,45.193375 186.394375,44.86475 L186.394375,44.86475 L186.394375,55.964 C188.129625,56.499 189.394375,58.1175 189.394375,60.026125 C189.394375,62.369625 187.487875,64.276125 185.144375,64.276125 C182.800875,64.276125 180.894375,62.369625 180.894375,60.026125 C180.894375,58.1175 182.159125,56.499125 183.894375,55.964 L183.894375,55.964 L183.894375,44.556125 C183.243375,44.5115 182.585625,44.4925 181.9215,44.50325 C180.6905,44.523 179.47125,44.640375 178.27325,44.850875 L178.27325,44.850875 L178.27325,65.017625 C178.27325,65.34925 178.141375,65.667375 177.90675,65.901875 L177.90675,65.901875 L175.657,68.14975 C175.9725,68.743375 176.152125,69.419875 176.152125,70.13775 C176.152125,72.48125 174.245625,74.38775 171.902125,74.38775 C169.558625,74.38775 167.652125,72.48125 167.652125,70.13775 C167.652125,67.79425 169.558625,65.88775 171.902125,65.88775 C172.6195,65.88775 173.2955,66.067125 173.888875,66.38225 L173.888875,66.38225 L175.773125,64.4995 L175.773125,45.43475 C173.520625,46.095875 171.3735,47.100625 169.402125,48.42725 C168.829375,48.813 168.05275,48.66075 167.66725,48.088125 C167.28175,47.515375 167.433625,46.738625 168.006375,46.35325 C172.115875,43.587625 176.913625,42.083625 181.881,42.003375 Z M190.695,98.25 C191.02375,98.25 191.34625,98.38375 191.57875,98.61625 C191.81125,98.84875 191.945,99.17125 191.945,99.5 C191.945,99.82875 191.81125,100.15125 191.57875,100.383625 C191.34625,100.61625 191.02375,100.75 190.695,100.75 C190.36625,100.75 190.04375,100.616125 189.81125,100.383625 C189.57875,100.15125 189.445,99.82875 189.445,99.5 C189.445,99.17125 189.57875,98.84875 189.81125,98.61625 C190.04375,98.383625 190.365,98.25 190.695,98.25 Z M190.69475,76.248 C193.03825,76.248 194.94475,78.1545 194.94475,80.498 C194.94475,82.406625 193.68,84.025125 191.94475,84.560125 L191.94475,84.560125 L191.94475,94.541625 C191.94475,95.231875 191.385125,95.791625 190.69475,95.791625 C190.004375,95.791625 189.44475,95.231875 189.44475,94.541625 L189.44475,94.541625 L189.44475,84.560125 C187.7095,84.025125 186.44475,82.406625 186.44475,80.498 C186.44475,78.1545 188.35125,76.248 190.69475,76.248 Z M180.023125,85.879875 C179.058125,85.879875 178.273125,86.664875 178.273125,87.629875 C178.273125,88.594875 179.058125,89.379875 180.023125,89.379875 C180.988125,89.379875 181.773125,88.594875 181.773125,87.629875 C181.773125,86.664875 180.988125,85.879875 180.023125,85.879875 Z M190.69475,78.748 C189.72975,78.748 188.94475,79.533 188.94475,80.498 C188.94475,81.463 189.72975,82.248 190.69475,82.248 C191.659625,82.248 192.44475,81.463 192.44475,80.498 C192.44475,79.533 191.65975,78.748 190.69475,78.748 Z M171.902125,68.387625 C170.937125,68.387625 170.152125,69.172625 170.152125,70.137625 C170.152125,71.102625 170.937125,71.887625 171.902125,71.887625 C172.867125,71.887625 173.652125,71.102625 173.652125,70.137625 C173.652125,69.172625 172.867125,68.387625 171.902125,68.387625 Z M198.01025,68.387625 C197.04525,68.387625 196.26025,69.172625 196.26025,70.137625 C196.26025,71.102625 197.04525,71.887625 198.01025,71.887625 C198.97525,71.887625 199.76025,71.102625 199.76025,70.137625 C199.76025,69.17275 198.97525,68.387625 198.01025,68.387625 Z M185.144125,58.276 C184.179125,58.276 183.394125,59.061 183.394125,60.026 C183.394125,60.991 184.179125,61.776 185.144125,61.776 C186.109125,61.776 186.894125,60.991 186.894125,60.026 C186.894125,59.061 186.109125,58.276 185.144125,58.276 Z M164.599625,49.0935 C165.099625,48.6175 165.890875,48.63725 166.366875,49.137125 C166.84275,49.63725 166.823125,50.428375 166.323125,50.904375 L166.323125,50.904375 L166.241875,50.982375 C165.999375,51.21625 165.686625,51.332625 165.374375,51.332625 C165.04675,51.332625 164.719625,51.204625 164.474375,50.95025 C163.99525,50.45325 164.009625,49.661875 164.506625,49.18275 L164.506625,49.18275 Z" id="artificial-intelligence"></path>
                    </g>
                </g>
            </g>
        </g>
    </g>
</svg>