<?xml version="1.0" encoding="UTF-8"?>
<svg width="58px" height="64px" viewBox="0 0 58 64" version="1.1" xmlns="http://www.w3.org/2000/svg" xmlns:xlink="http://www.w3.org/1999/xlink">
    <!-- Generator: Sketch 61.2 (89653) - https://sketch.com -->
    <title>Brain</title>
    <desc>Created with Sketch.</desc>
    <g id="Page-1" stroke="none" stroke-width="1" fill="none" fill-rule="evenodd">
        <g id="Portfolio---2" transform="translate(-691.000000, -1804.000000)" fill="#EA5D5D">
            <g id="Skills" transform="translate(-420.000000, 1632.000000)">
                <g id="Content" transform="translate(570.000000, 130.000000)">
                    <g id="Group-3" transform="translate(390.000000, 0.000000)">
                        <path d="M187.25,42 C190.621875,42 193.82,44.263 195.256875,47.584625 C198.928,48.4735 201.40525,51.95825 200.946875,55.76 C203.968,57.274625 206,60.518125 206,64 C206,65.12525 205.77625,66.225625 205.3335,67.283625 C207.334125,68.937125 208.5,71.3755 208.5,74 C208.5,75.740875 207.96325,77.75 206.890375,79.36025 C207.934375,80.833875 208.5,82.5805 208.5,84.375 C208.5,86.702125 207.5565,88.91875 205.887625,90.56475 C205.963,91.02075 206,91.453875 206,91.875 C206,96.82125 201.993,101 197.25,101 C197.21125,101 197.17325,100.999375 197.13575,100.99825 C195.358875,104.0635 192.060625,106 188.5,106 C184.789,106 181.473,103.7725 179.75,100.56325 C178.027,103.7725 174.711,106 171,106 C167.439375,106 164.141125,104.0635 162.36425,100.99825 L162.36425,100.99825 L162.25,101 C156.890625,101 152.754375,95.75125 153.612375,90.56475 C151.9435,88.91875 151,86.702 151,84.375 C151,82.5805 151.565625,80.833875 152.609625,79.360125 C151.54125,77.7565 151,75.75 151,74 C151,71.3755 152.165875,68.93725 154.1665,67.283625 C153.72375,66.225625 153.5,65.12525 153.5,64 C153.5,60.518125 155.532125,57.2745 158.553125,55.76 C158.096,51.981375 160.55,48.47925 164.243125,47.58475 C165.67975,44.263 168.877875,42 172.25,42 C175.388625,42 178.20375,43.83075 179.75,46.502 C181.296125,43.83075 184.11125,42 187.25,42 Z M187.25,44.5 C183.9205,44.5 181,47.59575 181,51.125 L181,51.125 L181,60.922625 C181.736,60.49575 182.589625,60.25 183.5,60.25 C184.19025,60.25 184.75,60.809625 184.75,61.5 C184.75,62.190375 184.19025,62.75 183.5,62.75 C182.1215,62.75 181,63.8715 181,65.25 L181,65.25 L181,89.021125 C182.833875,86.941 185.515375,85.625 188.5,85.625 C189.19025,85.625 189.75,86.184625 189.75,86.875 C189.75,87.565375 189.19025,88.125 188.5,88.125 C184.3645,88.125 181,91.4895 181,95.625 C181,99.893625 184.434625,103.5 188.5,103.5 C191.393875,103.5 194.05825,101.788625 195.2875,99.14 C195.513875,98.651875 196.0265,98.363625 196.562375,98.42425 C196.65075,98.43425 196.73875,98.446125 196.826625,98.458125 C199.990625,98.890625 203.5,95.754875 203.5,91.874875 C203.5,91.42575 203.438375,90.960125 203.305875,90.40975 C203.1945,89.947 203.355625,89.461125 203.721625,89.156625 C205.1695,87.95175 206,86.208875 206,84.375 C206,83.24125 205.679375,82.13175 205.082875,81.158875 C203.583625,82.387125 201.71875,83.125 199.75,83.125 C199.05975,83.125 198.5,82.565375 198.5,81.875 C198.5,81.184625 199.05975,80.625 199.75,80.625 C203.132375,80.625 206,77.541375 206,74 C206,71.859375 204.908875,69.890125 203.081125,68.73225 C202.518,68.3755 202.333875,67.639625 202.662625,67.05975 C203.21825,66.079875 203.5,65.050375 203.5,64 C203.5,60.624625 200.74775,57.375 197.25,57.375 C193.9205,57.375 191,60.470875 191,64 C191,64.690375 190.44025,65.25 189.75,65.25 C189.05975,65.25 188.5,64.690375 188.5,64 C188.5,59.05375 192.507,54.875 197.25,54.875 C197.6685,54.875 198.08475,54.908875 198.496875,54.973 L198.496875,54.973 L198.5,54.875 C198.5,52.098375 196.249125,49.875 193.5,49.875 C192.16475,49.875 190.908875,50.395125 189.96325,51.339375 C189.475,51.82725 188.683375,51.826875 188.1955,51.338375 C187.707625,50.849875 187.708125,50.0585 188.196625,49.570625 C189.337125,48.4315 190.779375,47.705 192.342375,47.46425 C191.24,45.828 189.407,44.5 187.25,44.5 Z M172.25,44.5 C170.093,44.5 168.259875,45.828 167.1575,47.464375 C168.720625,47.705125 170.163,48.431625 171.303375,49.57075 C171.79175,50.058625 171.792125,50.85 171.30425,51.3385 C170.81625,51.82675 170.024875,51.82725 169.5365,51.339375 C168.59125,50.395125 167.33525,49.875 166,49.875 C163.264625,49.875 161,52.085375 161,54.875 C161,54.908125 161.0025,54.940125 161.003125,54.973 C161.41525,54.908875 161.8315,54.875 162.25,54.875 C166.993,54.875 171,59.05375 171,64 C171,64.690375 170.440375,65.25 169.75,65.25 C169.059625,65.25 168.5,64.690375 168.5,64 C168.5,60.470875 165.5795,57.375 162.25,57.375 C158.75025,57.375 156,60.62625 156,64 C156,65.050375 156.28175,66.079875 156.837375,67.05975 C157.16625,67.639625 156.982125,68.3755 156.419,68.73225 C154.591125,69.890125 153.5,71.859375 153.5,74 C153.5,77.52875 156.357625,80.625 159.75,80.625 C160.440375,80.625 161,81.184625 161,81.875 C161,82.565375 160.440375,83.125 159.75,83.125 C157.781375,83.125 155.9165,82.38725 154.41725,81.1585 C153.820625,82.1315 153.5,83.241125 153.5,84.375 C153.5,86.208875 154.3305,87.95175 155.7785,89.156625 C156.144375,89.461125 156.305625,89.946875 156.19425,90.40975 C155.10975,94.91625 159.116,98.944625 162.6735,98.458125 C162.761375,98.446125 162.84925,98.434375 162.937625,98.42425 C163.47275,98.364 163.986,98.651875 164.212625,99.14 C165.441875,101.788625 168.106,103.5 171,103.5 C175.065375,103.5 178.5,99.893625 178.5,95.625 C178.5,91.4895 175.1355,88.125 171,88.125 C170.309625,88.125 169.75,87.565375 169.75,86.875 C169.75,86.184625 170.309625,85.625 171,85.625 C173.984625,85.625 176.666125,86.941 178.5,89.021125 L178.5,89.021125 L178.5,65.25 C178.5,63.8715 177.3785,62.75 176,62.75 C175.309625,62.75 174.75,62.190375 174.75,61.5 C174.75,60.809625 175.309625,60.25 176,60.25 C176.910375,60.25 177.764,60.49575 178.5,60.922625 L178.5,60.922625 L178.5,51.125 C178.5,47.59575 175.5795,44.5 172.25,44.5 Z M162.25,90.625 C166.993,90.625 171,94.80375 171,99.75 C171,100.440375 170.440375,101 169.75,101 C169.059625,101 168.5,100.440375 168.5,99.75 C168.5,96.220875 165.5795,93.125 162.25,93.125 C161.559625,93.125 161,92.565375 161,91.875 C161,91.184625 161.559625,90.625 162.25,90.625 Z M197.25,90.625 C197.94025,90.625 198.5,91.184625 198.5,91.875 C198.5,92.565375 197.94025,93.125 197.25,93.125 C193.9205,93.125 191,96.220875 191,99.75 C191,100.440375 190.44025,101 189.75,101 C189.05975,101 188.5,100.440375 188.5,99.75 C188.5,94.80375 192.507,90.625 197.25,90.625 Z M172.25,80.625 C172.940375,80.625 173.5,81.184625 173.5,81.875 C173.5,82.565375 172.940375,83.125 172.25,83.125 C168.96,83.125 166.12925,84.926875 164.637375,87.558875 C164.296875,88.1595 163.534125,88.37025 162.9335,88.029875 C162.333,87.6895 162.122125,86.926625 162.4625,86.326 C164.3775,82.948125 168.01425,80.625 172.25,80.625 Z M187.25,80.625 C191.4955,80.625 195.12725,82.95625 197.0375,86.326125 C197.37775,86.92675 197.166875,87.689625 196.56625,88.03 C195.966625,88.37 195.20325,88.16025 194.862375,87.558875 C193.3705,84.926375 190.537625,83.125 187.25,83.125 C186.55975,83.125 186,82.565375 186,81.875 C186,81.184625 186.55975,80.625 187.25,80.625 Z M162.25,62.75 C162.940375,62.75 163.5,63.309625 163.5,64 C163.5,69.378375 169.908125,72.244 173.916625,68.658375 C174.43125,68.198125 175.221375,68.242125 175.681625,68.756625 C176.141875,69.271125 176.097875,70.061375 175.583375,70.521625 C174.26225,71.7035 172.626125,72.447375 170.88775,72.67475 C170.33625,75.56125 167.794625,77.75 164.75,77.75 C164.059625,77.75 163.5,77.190375 163.5,76.5 C163.5,75.809625 164.059625,75.25 164.75,75.25 C166.42325,75.25 167.84375,74.148125 168.325,72.632125 C164.175875,71.949375 161,68.339375 161,64 C161,63.309625 161.559625,62.75 162.25,62.75 Z M197.25,62.75 C197.94025,62.75 198.5,63.309625 198.5,64 C198.5,68.339375 195.324125,71.949375 191.175,72.632125 C191.65625,74.148125 193.07675,75.25 194.75,75.25 C195.44025,75.25 196,75.809625 196,76.5 C196,77.190375 195.44025,77.75 194.75,77.75 C191.705375,77.75 189.16375,75.56125 188.61225,72.67475 C186.874,72.447375 185.23775,71.7035 183.916625,70.521625 C183.402125,70.061375 183.358,69.271125 183.818375,68.756625 C184.278625,68.242 185.069,68.198125 185.583375,68.658375 C186.730875,69.68475 188.2105,70.25 189.75,70.25 C193.19625,70.25 196,67.44625 196,64 C196,63.309625 196.55975,62.75 197.25,62.75 Z M186,52.375 C186.69,52.375 187.25,52.935 187.25,53.625 C187.25,54.315 186.69,54.875 186,54.875 C185.31,54.875 184.75,54.315 184.75,53.625 C184.75,52.935 185.31,52.375 186,52.375 Z M173.5,52.375 C174.19,52.375 174.75,52.935 174.75,53.625 C174.75,54.315 174.19,54.875 173.5,54.875 C172.81,54.875 172.25,54.315 172.25,53.625 C172.25,52.935 172.81,52.375 173.5,52.375 Z" id="Brain"></path>
                    </g>
                </g>
            </g>
        </g>
    </g>
</svg>