<svg width="38" height="38" viewBox="0 0 38 38" fill="none" xmlns="http://www.w3.org/2000/svg">
<rect width="38" height="38" fill="#FFD200"/>
<path d="M30.683 19.8564C29.9586 17.0243 27.2896 14.9252 24.1085 14.9252C22.0351 14.9252 20.1822 15.8175 18.9373 17.2235C18.9831 17.2752 19.0329 17.331 19.0788 17.3868C19.9157 18.3985 20.3404 19.6652 20.3404 20.9516V22.9392H27.2896H30.2334C30.504 22.9392 30.733 22.748 30.7788 22.4931C30.8413 22.1386 30.8746 21.7722 30.8746 21.3977C30.8788 20.868 30.808 20.3503 30.683 19.8564ZM20.9275 19.8564C21.5187 18.749 22.7179 17.9843 24.1085 17.9843C25.4993 17.9843 26.6984 18.7451 27.2896 19.8564H20.9275Z" fill="#1A6CE5"/>
<path d="M17.4595 21.4445C17.4719 23.0138 18.0632 24.4477 19.0459 25.563C18.0674 24.4477 17.4719 23.0138 17.4595 21.4445Z" fill="url(#paint0_linear_19_49556)"/>
<path d="M26.9693 24.1103C26.8236 23.9709 26.5946 23.959 26.4364 24.0784C25.562 24.7397 24.3586 25.0184 23.1012 24.648C22.1685 24.3732 21.4315 23.7319 21.0235 22.9233C20.6862 22.2582 20.5988 21.2942 20.5988 21.2942L20.503 20.4777C20.4406 19.9241 20.3115 19.3783 20.0909 18.8645C19.8827 18.3706 19.612 17.9046 19.2706 17.4784C19.1998 17.3908 19.129 17.3071 19.0541 17.2235C17.8132 15.8175 15.9563 14.9252 13.8827 14.9252C12.5711 14.9252 11.347 15.2837 10.3103 15.9011V21.3977V21.4018C10.3103 19.4461 12.0257 17.8767 14.0951 17.9922C15.9396 18.0958 17.3761 19.5735 17.4469 21.3381L17.451 21.4018V21.4058C17.451 21.4217 17.451 21.4337 17.451 21.4496C17.4635 23.0189 18.0548 24.4529 19.0374 25.5681C19.0416 25.5721 19.0458 25.5761 19.0499 25.5841C20.2907 26.9901 22.1477 27.8823 24.2213 27.8823C25.9158 27.8823 27.4606 27.2888 28.6473 26.305C28.8222 26.1576 28.8263 25.8987 28.6639 25.7434L26.9693 24.1103Z" fill="url(#paint1_linear_19_49556)"/>
<path d="M17.4593 21.4458C17.4593 21.4339 17.4593 21.4219 17.4593 21.4139C17.4593 21.5215 17.451 21.629 17.4385 21.7366C17.2595 23.4613 15.7397 24.8115 13.8869 24.8115C11.9175 24.8115 10.3186 23.286 10.3186 21.402V21.398V15.9013V15.8973V15.8734V10.2931C10.3186 10.1696 10.2145 10.07 10.0854 10.07H7.35815C7.2291 10.07 7.125 10.1696 7.125 10.2931V21.3144V21.4298C7.125 21.5175 7.12916 21.6051 7.13331 21.6928C7.13331 21.7007 7.13331 21.7087 7.13331 21.7166C7.32074 25.1342 10.2769 27.8467 13.8911 27.8467C15.9562 27.8467 17.8049 26.9585 19.0457 25.5643C18.0631 24.4491 17.4718 23.0152 17.4593 21.4458Z" fill="url(#paint2_linear_19_49556)"/>
<defs>
<linearGradient id="paint0_linear_19_49556" x1="3.49456" y1="23.5048" x2="28.9675" y2="23.5048" gradientUnits="userSpaceOnUse">
<stop offset="0.1117" stop-color="#00387C"/>
<stop offset="0.1483" stop-color="#013B80"/>
<stop offset="0.5386" stop-color="#0C5CA4"/>
<stop offset="0.7463" stop-color="#1068B2"/>
</linearGradient>
<linearGradient id="paint1_linear_19_49556" x1="28.7885" y1="21.4003" x2="10.316" y2="21.4003" gradientUnits="userSpaceOnUse">
<stop stop-color="#1A6CE5"/>
<stop offset="0.2171" stop-color="#1A69E0"/>
<stop offset="0.4585" stop-color="#1961D3"/>
<stop offset="0.7115" stop-color="#1853BD"/>
<stop offset="0.9711" stop-color="#163F9E"/>
<stop offset="1" stop-color="#163D9A"/>
</linearGradient>
<linearGradient id="paint2_linear_19_49556" x1="6.73926" y1="19.5854" x2="17.7527" y2="17.7618" gradientUnits="userSpaceOnUse">
<stop stop-color="#1A6CE5"/>
<stop offset="0.2955" stop-color="#1A68E2"/>
<stop offset="0.5624" stop-color="#195DD7"/>
<stop offset="0.8175" stop-color="#194BC6"/>
<stop offset="1" stop-color="#1839B5"/>
</linearGradient>
</defs>
</svg>
