<svg width="148" height="148" viewBox="0 0 148 148" fill="none" xmlns="http://www.w3.org/2000/svg">
<rect width="148" height="148" fill="white"/>
<path fill-rule="evenodd" clip-rule="evenodd" d="M83.2316 85.6349L83.7902 85.6477C86.1824 85.7584 88.0434 86.5925 89.3936 88.1514L89.6752 88.4965L90.2463 89.2398L90.246 85.95H95.1712L95.1733 102.994L95.1636 103.644C95.0599 107.06 94.1273 109.605 92.3766 111.296C90.5127 113.096 87.7716 114.001 84.1365 114C82.5478 114.007 80.966 113.829 79.4221 113.47L78.6535 113.275L78.0784 113.112L77.4023 112.878C76.6898 112.607 76.0059 112.268 75.36 111.864L74.8828 111.55L74.6186 111.358L76.6393 107.587L76.7694 107.685C77.6512 108.326 78.6342 108.817 79.6787 109.136C80.9644 109.565 82.3185 109.787 83.6819 109.79C85.7874 109.79 87.3638 109.294 88.3977 108.285C89.3464 107.359 89.855 106.015 89.9332 104.265L89.9439 103.778V102.039L89.3863 102.672L89.0857 102.994C87.6469 104.442 85.7023 105.165 83.2318 105.163C81.5047 105.183 79.8047 104.762 78.2879 103.941C76.815 103.147 75.5894 101.961 74.7456 100.513C72.9981 97.3321 72.9981 93.4663 74.7496 90.2781C75.5908 88.8389 76.8162 87.6529 78.2879 86.857C79.4679 86.2195 80.7584 85.8235 82.0862 85.6875L82.6572 85.6451L83.2316 85.6349ZM30.0905 43.2086C38.5187 52.9727 38.6004 60.8307 35.3943 68.6244L34.9675 69.6191L34.5074 70.614L34.0162 71.6099L33.4963 72.6077L32.95 73.6081C32.8569 73.7751 32.7628 73.9423 32.6677 74.1096C34.2429 73.6009 35.8778 73.3064 37.5286 73.233L38.3552 73.2148C48.2599 73.2067 56.418 81.0183 56.8752 90.9442C57.3325 100.87 49.9272 109.403 40.0607 110.318C30.1941 111.234 21.3528 104.21 19.9852 94.3686L19.9393 94.0063C19.9194 93.8421 19.9014 93.678 19.8854 93.5118L19.8275 92.7051L19.8101 92.2889L19.8076 91.7422C19.8204 85.743 22.6182 80.2333 24.7687 76.973L25.2707 76.2346C25.3517 76.119 25.4312 76.0072 25.509 75.8994L25.9539 75.3007C26.0241 75.2091 26.0921 75.1217 26.1578 75.0385C33.7648 64.3683 33.9288 55.937 32.6386 50.2489L32.4498 49.4731C32.4169 49.3468 32.3834 49.222 32.3494 49.0986L32.139 48.3768L31.9187 47.6913L31.6923 47.0425L31.4632 46.4306L31.0117 45.3191L30.1605 43.376C30.1361 43.3186 30.1127 43.2628 30.0905 43.2086ZM126.92 85.6376L127.473 85.6508C129.469 85.7477 131.117 86.3775 132.428 87.5403L132.777 87.8706L133.063 88.1775L133.329 88.504C134.348 89.8399 134.903 91.6409 134.988 93.9159L135 94.5481L134.999 106.177H129.77L129.771 95.479L129.76 94.9748C129.693 93.4998 129.327 92.3623 128.651 91.5688C127.891 90.677 126.785 90.2331 125.361 90.2331C123.954 90.2331 122.791 90.6434 121.886 91.4635L121.594 91.7521L121.35 92.0394L121.129 92.3498C120.572 93.2086 120.265 94.3141 120.204 95.6608L120.192 96.1771L120.192 106.177H114.961V85.95H119.907L119.908 88.9069L120.464 88.2846L120.803 87.9294C121.503 87.2425 122.331 86.6989 123.243 86.3309C124.043 86.0076 124.882 85.7952 125.736 85.6981L126.38 85.6469L126.92 85.6376ZM68.1722 85.95V106.177H62.9432V85.95H68.1722ZM107.809 79.6667V106.177H102.355V79.6667H107.809ZM43.5896 79.1418C38.4798 77.0186 32.5978 78.1914 28.6864 82.1131C24.7751 86.0348 23.6048 91.9331 25.7213 97.0574C27.8377 102.182 32.8241 105.523 38.3552 105.523C45.9035 105.515 52.021 99.3816 52.0298 91.8122C52.0306 86.2657 48.6994 81.2649 43.5896 79.1418ZM84.3968 89.9638C82.7646 89.9656 81.4079 90.466 80.3438 91.4646C79.276 92.4722 78.7402 93.7919 78.7383 95.4028C78.7365 97.0142 79.2726 98.3336 80.3438 99.339C81.4094 100.341 82.7664 100.842 84.3972 100.842C86.0285 100.842 87.3799 100.341 88.4339 99.3374C89.4902 98.3302 90.0195 97.0118 90.0195 95.4031C90.0195 93.7946 89.4903 92.4753 88.4343 91.4666C87.3817 90.4629 86.03 89.962 84.3968 89.9638ZM22.9577 34C31.8975 43.8092 31.9575 51.8348 28.6883 59.9408L28.2717 60.9339C28.1276 61.2652 27.9783 61.5967 27.8242 61.9286L27.3478 62.9256L26.845 63.9256L26.318 64.9296L25.769 65.9381L24.9093 67.4612L24.0129 68.9989L21.8218 72.6583C17.556 79.7442 17.3897 85.9414 18.1359 90.1376L18.281 90.8783C18.3066 90.998 18.3328 91.1158 18.3597 91.2316L18.5269 91.9033L18.7035 92.5273L18.8854 93.1019L19.1587 93.8681L19.3349 94.313L19.5798 94.8776L19.7886 95.3147L20.0591 95.818C13.1488 89.348 13.2096 81.639 15.0721 75.5234L15.3569 74.6401C15.4064 74.4949 15.4567 74.3508 15.5079 74.2076L15.8246 73.3622L16.1579 72.5444L16.5045 71.7563L16.8605 70.9998L17.2225 70.2769L17.5868 69.5896L17.9498 68.9398L18.3079 68.3296L18.8281 67.4926L19.1583 66.9897L19.6196 66.3231L19.8994 65.94C26.3597 56.3236 27.0616 48.6184 26.1402 43.0556L25.9818 42.1951C25.9534 42.0546 25.924 41.9157 25.8937 41.7782L25.7016 40.9715L25.4916 40.2009C25.4554 40.0755 25.4185 39.9516 25.3811 39.8292L25.151 39.1132L24.912 38.4337L24.6677 37.7911L24.2993 36.8967L23.7102 35.5929L22.9577 34ZM65.5715 76.2895C66.4533 76.2523 67.3155 76.5573 67.9788 77.1412C68.5718 77.6662 68.9044 78.4273 68.8873 79.2213C68.9128 80.0882 68.5789 80.9099 67.9679 81.5004C67.4046 82.0343 66.6719 82.3499 65.9026 82.3963L65.2311 82.3971C64.4448 82.3532 63.7111 82.043 63.1409 81.5142C62.5598 80.9487 62.2287 80.1641 62.2287 79.3445C62.2287 78.5249 62.5598 77.7403 63.1464 77.1696C63.7124 76.6466 64.4454 76.3373 65.214 76.2924L65.5715 76.2895Z" fill="#FF6400"/>
<path d="M32.2478 86.9159L37.2694 84.0144C37.938 83.6281 38.7617 83.628 39.4303 84.0143L44.4527 86.916C45.1213 87.3022 45.5331 88.0161 45.5331 88.7886L45.5327 94.5911C45.5327 95.3635 45.1209 96.0772 44.4525 96.4634L39.4309 99.365C38.7624 99.7513 37.9386 99.7513 37.2701 99.3651L32.2476 96.4634C31.579 96.0771 31.1672 95.3633 31.1672 94.5908L31.1676 88.7882C31.1677 88.0159 31.5794 87.3022 32.2478 86.9159Z" fill="#0086FF"/>
</svg>
