<svg width="38" height="38" viewBox="0 0 38 38" fill="none" xmlns="http://www.w3.org/2000/svg">
<rect width="38" height="38" fill="black"/>
<path d="M30.0489 21.0326L32.6328 21.4964C32.6328 18.8296 29.239 15.9309 24.3026 14.1917L23.917 16.356C27.2722 17.1677 29.7404 19.1001 30.0489 21.0326Z" fill="white"/>
<path d="M30.5889 21.728C30.5889 21.7667 30.5889 21.844 30.5503 21.8826C30.0876 24.1629 26.501 25.3997 22.3359 24.8199L22.0273 26.4818C27.8893 26.7524 32.5557 25.1291 33.2499 22.1918L30.5889 21.728Z" fill="white"/>
<path d="M21.873 24.3176C21.8344 24.3176 21.7573 24.3176 21.7187 24.2789C17.5922 23.4673 14.6226 20.9938 15.0854 18.7522C15.0854 18.7135 15.0854 18.7135 15.124 18.6749L6.56243 17.1289C6.29247 20.3754 11.4217 24.0471 18.3249 25.4384C19.4433 25.6703 20.5617 25.8249 21.6416 25.9022L21.873 24.3176Z" fill="white"/>
<path d="M23.4157 15.7762L23.84 13.4186C22.7601 13.0708 21.3332 12.6843 20.1377 12.4524C12.4246 10.9065 5.59844 12.5684 4.75 16.2014L14.16 17.9019C15.1241 15.8535 18.8264 14.8486 22.953 15.6603C23.0301 15.6603 23.3386 15.7376 23.4157 15.7762Z" fill="white"/>
</svg>
