<svg width="100%" viewBox="0 0 1440 668" version="1.1" xmlns="http://www.w3.org/2000/svg"
    xmlns:xlink="http://www.w3.org/1999/xlink">
    <!-- Generator: Sketch 60.1 (88133) - https://sketch.com -->
    <!-- <title>bg-shape</title> -->
    <desc>Created with Sketch.</desc>
    <defs>
        <linearGradient x1="0.000154940985%" y1="49.999943%" x2="164.942223%" y2="50%" id="linearGradient-1">
            <stop stop-color="#FFF7F7" offset="0%"></stop>
            <stop stop-color="#FFC3BF" offset="100%"></stop>
        </linearGradient>
        <path
            d="M1308.96757,60.3474782 C1355.3297,91.7098034 1469.62549,134.476611 1528.32825,91.7098034 C1567.46342,63.1985987 1584.75682,53.3641529 1580.20844,62.2064659 L1578.77153,165 L1577.19019,165 L1577.19019,331 L1577,331 L1577,439.541771 C1562.51263,477.03853 1511.97729,569.72214 1393.62324,581.395116 L1390.01596,581.723906 C1269.07922,591.847644 1212.66381,401.666257 1047.4673,474 C882.270779,546.333743 867.3039,651.690475 740.356608,666.633373 C613.409316,681.576272 605.515094,569.488067 311.262872,549.240591 C115.094725,535.742273 11.3404338,445.99541 0,280 L0,280 L137.19,280 L137.190195,71.7519601 C188.114914,29.9355265 256.534707,15.6799242 342.449572,28.985153 C471.321869,48.9429963 520.9708,163.400766 669.14701,151.583333 C817.323221,139.765901 834.908238,38.4888879 995.074477,9.02730973 C1155.24072,-20.4342685 1262.60543,28.985153 1308.96757,60.3474782 Z"
            id="path-222222"></path>
    </defs>
    <g id="Page-1" stroke="none" stroke-width="1" fill="none" fill-rule="evenodd">
        <g id="Portfolio---2" transform="translate(0.000000, -3125.000000)">
            <g id="bg-shape" transform="translate(-137.000000, 3125.000000)">
                <mask id="mask-3333333" fill="white">
                    <use xlink:href="#path-222222"></use>
                </mask>
                <use id="Combined-Shape" fill="url(#linearGradient-1)" xlink:href="#path-222222"></use>
                <g id="Tree-1" mask="url(#mask-3333333)">
                    <g
                        transform="translate(1410.000000, 475.000000) rotate(31.000000) translate(-1410.000000, -475.000000) translate(1227.000000, 307.000000)">
                        <path
                            d="M253.499248,334.592339 C253.499248,334.592339 281.155383,293.991346 165.603939,225.378171 C50.0524958,156.764689 45.306068,177.636427 11.6684742,129.31684 C-21.9688122,80.9969462 24.5396009,29.9831124 57.5386191,57.0646668 C90.5373298,84.1462212 99.1797761,135.411518 185.690018,152.254014 C272.200259,169.096817 294.246952,146.554492 277.304867,111.338616 C260.362475,76.1227392 235.840187,44.4617331 212.575374,39.8773687 C189.729923,35.3759043 181.670711,17.5825159 203.437316,4.6986436 C216.926727,-3.2858447 243.539067,-1.72394922 262.74645,14.2723536 C294.942406,41.0852509 285.545168,94.5375698 318.201378,116.291424 C350.857896,138.045278 367.510977,136.678658 365.892248,160.105862 C364.273211,183.533373 283.938122,317.838884 268.133913,329.021159 C252.330012,340.203127 253.499248,334.592339 253.499248,334.592339 L253.499248,334.592339 Z"
                            id="Path" fill="#FFCFCB"></path>
                        <g id="Group" stroke-width="1" fill="none" transform="translate(48.000000, 104.000000)">
                            <path
                                d="M259.513043,154.334521 C259.513043,154.334521 238.238495,113.848349 178.986038,105.142558 C119.733581,96.4367679 47.2615549,52.2684731 21.4998447,23.6161163 C-4.26155768,-5.03593381 0.62018191,0.705269912 0.62018191,0.705269912 C0.62018191,0.705269912 19.8855251,22.2350138 44.6444796,40.7002067 C69.4034342,59.1653995 86.0166148,68.890765 113.996514,81.4362902 C141.976106,93.9818153 153.636141,97.6498322 174.873447,101.233217 C196.111061,104.816908 213.641434,110.696099 227.631076,119.890979 C250.243555,134.753162 259.513043,154.334521 259.513043,154.334521 L259.513043,154.334521 Z"
                                id="Path" fill="#F0B6B3"></path>
                            <path
                                d="M73.1137532,61.9932252 C73.1137532,61.9932252 58.844337,52.1758681 57.54611,35.1328673 C56.2481909,18.0898666 57.0050283,27.8357769 57.0050283,27.8357769 C57.0050283,27.8357769 60.7270431,56.9088425 77.9828737,63.3436638 C77.9828737,63.3436638 80.7895431,67.8442058 77.8779199,65.7455678 C74.9659888,63.6469299 73.1137532,61.9932252 73.1137532,61.9932252 L73.1137532,61.9932252 Z"
                                id="Path" fill="#F0B6B3"></path>
                            <path
                                d="M162.226045,99.0260284 C162.226045,99.0260284 147.956629,89.2083646 146.65871,72.1653639 C145.360483,55.1223631 146.117628,64.86858 146.117628,64.86858 C146.117628,64.86858 149.839643,93.941339 167.095474,100.37616 C167.095474,100.37616 169.902143,104.876702 166.990212,102.778064 C164.078589,100.679426 162.226045,99.0260284 162.226045,99.0260284 Z"
                                id="Path" fill="#F0B6B3"></path>
                            <path
                                d="M55.5516789,49.4179561 C55.5516789,49.4179561 42.3598095,38.2038578 25.4948627,41.3364828 C8.62960814,44.4688011 18.2776689,42.691521 18.2776689,42.691521 C18.2776689,42.691521 47.4351443,38.7996576 58.1136611,53.7590457 C58.1136611,53.7590457 63.2006917,55.3038935 60.4161827,53.0402837 C57.6319814,50.7763673 55.5516789,49.4179561 55.5516789,49.4179561 L55.5516789,49.4179561 Z"
                                id="Path" fill="#F0B6B3"></path>
                            <path
                                d="M126.061591,87.4105396 C126.061591,87.4105396 110.836202,79.1401766 94.9786281,85.6620835 C79.1210537,92.184297 88.1957155,88.4675245 88.1957155,88.4675245 C88.1957155,88.4675245 115.925695,78.6829778 129.464743,91.1334448 C129.464743,91.1334448 134.76199,91.6026026 131.569976,89.9580972 C128.377655,88.3132851 126.061591,87.4105396 126.061591,87.4105396 L126.061591,87.4105396 Z"
                                id="Path" fill="#F0B6B3"></path>
                        </g>
                        <g id="Group" stroke-width="1" fill="none" transform="translate(223.000000, 14.000000)">
                            <path
                                d="M111.976202,162.626342 C111.976202,162.626342 84.4999345,150.450824 76.3325561,112.249635 C68.1651776,74.048753 36.1548006,28.7066822 16.2675484,13.1233438 C-3.61970371,-2.46030126 0.353615549,0.479737287 0.353615549,0.479737287 C0.353615549,0.479737287 15.293333,12.1295366 28.4470915,27.4805167 C41.6005417,42.8318033 48.6759356,53.2422557 58.0737236,70.9333728 C67.4715115,88.6247965 70.36302,96.0614908 73.594579,109.73477 C76.8264463,123.407742 81.4129664,134.573819 88.0314656,143.298601 C98.7293379,157.401344 111.976202,162.626342 111.976202,162.626342 L111.976202,162.626342 Z"
                                id="Path" fill="#F0B6B3"></path>
                            <path
                                d="M43.6084737,45.1290245 C43.6084737,45.1290245 36.5691504,36.2476006 25.3194282,36.105672 C14.0693977,35.9637433 20.5032276,36.0544795 20.5032276,36.0544795 C20.5032276,36.0544795 39.7563148,37.2778863 44.6964504,48.242259 C44.6964504,48.242259 47.769237,49.8831751 46.2699934,48.0745808 C44.7710581,46.2662931 43.6084737,45.1290245 43.6084737,45.1290245 L43.6084737,45.1290245 Z"
                                id="Path" fill="#F0B6B3"></path>
                            <path
                                d="M71.866888,101.483595 C71.866888,101.483595 67.3941292,95.8401679 60.2456691,95.7500447 C53.0975173,95.659615 57.1855227,95.7172448 57.1855227,95.7172448 C57.1855227,95.7172448 69.4193258,96.4946338 72.558396,103.461707 C72.558396,103.461707 74.5108348,104.504254 73.5582001,103.355337 C72.6058736,102.206113 71.866888,101.483595 71.866888,101.483595 Z"
                                id="Path" fill="#F0B6B3"></path>
                            <path
                                d="M34.6247274,34.2161508 C34.6247274,34.2161508 26.712618,26.0937234 28.073745,14.9889547 C29.434872,3.88449259 28.6659817,10.2363369 28.6659817,10.2363369 C28.6659817,10.2363369 27.3137953,29.3718771 37.5825195,35.7044093 C37.5825195,35.7044093 38.8076879,38.9512957 37.2054734,37.2325181 C35.603259,35.5140471 34.6247274,34.2161508 34.6247274,34.2161508 Z"
                                id="Path" fill="#F0B6B3"></path>
                            <path
                                d="M62.4946887,78.535906 C62.4946887,78.535906 56.4326638,68.968749 60.0619247,58.3798895 C63.6914939,47.7913366 61.6246773,53.8501273 61.6246773,53.8501273 C61.6246773,53.8501273 56.3426413,72.2996278 65.0812924,80.5970904 C65.0812924,80.5970904 65.6084786,84.0251428 64.3959503,82.0154574 C63.1837303,80.0060786 62.4946887,78.535906 62.4946887,78.535906 L62.4946887,78.535906 Z"
                                id="Path" fill="#F0B6B3"></path>
                        </g>
                    </g>
                </g>
                <g id="Tree-2" mask="url(#mask-3333333)">
                    <g
                        transform="translate(219.000000, 457.500000) rotate(41.000000) translate(-219.000000, -457.500000) translate(-43.000000, 79.000000)">
                        <path
                            d="M14.9838777,739.691702 C14.9838777,739.691702 114.702938,728.363574 67.2996872,457.139784 C19.8964367,185.91711 -18.7651032,206.451153 11.3647406,89.5967996 C41.4956956,-27.2586691 182.434249,-23.2272475 184.368826,64.2384324 C186.302292,151.704112 118.350966,233.674122 207.34929,390.56724 C296.346504,547.460358 360.614244,551.564267 392.649774,478.162282 C424.685304,404.760298 441.126432,324.33706 417.277018,282.071256 C393.858746,240.567129 410.712124,204.258684 459.638812,220.840485 C489.960891,231.118101 522.946486,274.541475 523.710983,325.764507 C524.993293,411.624309 429.6512,468.496907 439.386312,548.307904 C449.121424,628.117786 473.396422,652.157995 434.934896,680.966769 C396.47337,709.776657 81.4462128,764.571651 43.0902494,754.974303 C4.73317477,745.37807 14.9838777,739.691702 14.9838777,739.691702 Z"
                            id="Path" fill="#FFCFCB"></path>
                        <g id="Group" stroke-width="1" fill="none" transform="translate(51.664641, 110.207224)">
                            <path
                                d="M151.98349,609.824234 C151.98349,609.824234 186.551368,522.520213 121.279957,418.820175 C56.0096571,315.120136 28.2177233,143.361052 38.445564,64.9477433 C48.6745165,-13.4655657 46.2520747,1.81074014 46.2520747,1.81074014 C46.2520747,1.81074014 38.4433406,60.5883474 42.6979,123.792332 C46.9513477,186.995201 53.9429662,225.833456 71.6693707,286.105873 C89.3957751,346.378289 99.2056084,369.404384 121.881398,407.193258 C144.557188,444.983249 158.739424,480.09062 163.065133,514.143028 C170.058975,569.183053 151.98349,609.824234 151.98349,609.824234 L151.98349,609.824234 Z"
                                id="Path" fill="#F0B6B3"></path>
                            <path
                                d="M47.5038734,196.546799 C47.5038734,196.546799 43.7718233,161.226203 68.5054103,136.368157 C93.2389974,111.511227 79.1145717,125.7482 79.1145717,125.7482 C79.1145717,125.7482 38.9269396,170.493129 51.881834,205.91978 C51.881834,205.91978 48.6267125,216.310883 48.013042,208.975264 C47.3993716,201.639645 47.5038734,196.546799 47.5038734,196.546799 L47.5038734,196.546799 Z"
                                id="Path" fill="#F0B6B3"></path>
                            <path
                                d="M108.492933,384.598079 C108.492933,384.598079 104.761994,349.276367 129.495581,324.419437 C154.229168,299.561391 140.104743,313.79948 140.104743,313.79948 C140.104743,313.79948 99.9171104,358.544409 112.872005,393.969943 C112.872005,393.969943 109.616883,404.361046 109.003213,397.026544 C108.389542,389.690925 108.492933,384.598079 108.492933,384.598079 Z"
                                id="Path" fill="#F0B6B3"></path>
                            <path
                                d="M43.6684331,152.416986 C43.6684331,152.416986 43.53725,116.897677 16.2489261,94.9008682 C-11.0393977,72.9029432 4.54916569,85.506677 4.54916569,85.506677 C4.54916569,85.506677 49.3604489,125.578512 40.3354911,162.213068 C40.3354911,162.213068 44.7012227,172.185535 44.5133417,164.826472 C44.3254607,157.468527 43.6684331,152.416986 43.6684331,152.416986 L43.6684331,152.416986 Z"
                                id="Path" fill="#F0B6B3"></path>
                        </g>
                        <g id="Group" stroke-width="1" fill="none" transform="translate(361.896966, 262.290754)">
                            <path
                                d="M4.7893853,390.986291 C4.7893853,390.986291 -12.7668788,332.109694 35.6970333,268.287489 C84.1598341,204.46417 112.071616,94.1383094 109.874722,42.4537006 C107.677827,-9.23090816 108.385678,0.863306297 108.385678,0.863306297 C108.385678,0.863306297 110.124748,39.613936 103.748531,80.5540621 C97.3712035,121.495304 90.5993905,146.400686 75.6056142,184.657202 C60.6129491,222.913717 52.9054836,237.354578 35.9681725,260.676117 C19.0308614,283.997656 7.78302892,306.059928 3.02142428,328.000624 C-4.67604022,363.46422 4.7893853,390.986291 4.7893853,390.986291 Z"
                                id="Path" fill="#F0B6B3"></path>
                            <path
                                d="M96.4655541,127.689024 C96.4655541,127.689024 100.912682,104.887254 86.2056017,87.2675513 C71.4985218,69.647849 79.8949477,79.7376019 79.8949477,79.7376019 C79.8949477,79.7376019 103.541843,111.204782 93.0763139,133.544784 C93.0763139,133.544784 94.6064725,140.502542 95.424335,135.757704 C96.2433088,131.013981 96.4655541,127.689024 96.4655541,127.689024 L96.4655541,127.689024 Z"
                                id="Path" fill="#F0B6B3"></path>
                            <path
                                d="M46.4825956,246.956909 C46.4825956,246.956909 49.3084441,232.468086 39.9641422,221.272988 C30.6187291,210.076776 35.9537265,216.487996 35.9537265,216.487996 C35.9537265,216.487996 50.9797284,236.482349 44.3301503,250.677826 C44.3301503,250.677826 45.3013621,255.099203 45.821416,252.084323 C46.3414699,249.069444 46.4825956,246.956909 46.4825956,246.956909 L46.4825956,246.956909 Z"
                                id="Path" fill="#F0B6B3"></path>
                            <path
                                d="M101.488297,99.157532 C101.488297,99.157532 103.598516,76.020031 122.642712,63.2544747 C141.685797,50.4889184 130.80578,57.8058296 130.80578,57.8058296 C130.80578,57.8058296 99.3069597,81.3426378 103.101797,105.732714 C103.101797,105.732714 99.6881103,111.979973 100.229277,107.196096 C100.771556,102.411104 101.488297,99.157532 101.488297,99.157532 L101.488297,99.157532 Z"
                                id="Path" fill="#F0B6B3"></path>
                            <path
                                d="M69.662776,201.694674 C69.662776,201.694674 76.4701482,179.487402 97.7234622,170.926839 C118.976776,162.367391 106.82885,167.280653 106.82885,167.280653 C106.82885,167.280653 71.1795999,183.809511 69.8950223,208.462817 C69.8950223,208.462817 65.2734322,213.871308 66.7835887,209.300469 C68.2948564,204.730746 69.662776,201.694674 69.662776,201.694674 L69.662776,201.694674 Z"
                                id="Path" fill="#F0B6B3"></path>
                        </g>
                    </g>
                </g>
            </g>
        </g>
    </g>
</svg>