<svg width="1374" height="1093" viewBox="0 0 1374 1093" fill="none" xmlns="http://www.w3.org/2000/svg">
    <g id="designer-boy--banner">
        <path id="boy-container" fill-rule="evenodd" clip-rule="evenodd"
            d="M321.815 39.4266C321.815 39.4266 317.753 93.1238 217.221 145.1C116.69 197.076 -5.03839 274.251 0.161038 396.99C5.36002 519.729 69.8031 531.595 58.7455 636.038C47.6884 740.481 -68.8576 892.833 60.9411 969.327C190.739 1045.82 824.488 1216.75 1015.34 943.688C1206.19 670.631 1087.08 539.573 1283.8 505.962C1480.53 472.352 1329.72 86.296 1078.69 100.224C986.21 105.356 957.603 213.176 829.035 166.83C700.468 120.484 736.666 16.8053 594.599 2.51738C452.533 -11.771 321.816 39.4266 321.816 39.4266H321.815Z"
            fill="url(#paint0_linear_150518_57503)" />
        <mask id="mask0_150518_57503" style="mask-type:luminance" maskUnits="userSpaceOnUse" x="0" y="0" width="1374"
            height="1093">
            <path id="boy-container-mask" fill-rule="evenodd" clip-rule="evenodd"
                d="M321.815 39.4266C321.815 39.4266 317.753 93.1238 217.221 145.1C116.69 197.076 -5.03839 274.251 0.161038 396.99C5.36002 519.729 69.8031 531.595 58.7455 636.038C47.6884 740.481 -68.8576 892.833 60.9411 969.327C190.739 1045.82 824.488 1216.75 1015.34 943.688C1206.19 670.631 1087.08 539.573 1283.8 505.962C1480.53 472.352 1329.72 86.296 1078.69 100.224C986.21 105.356 957.603 213.176 829.035 166.83C700.468 120.484 736.666 16.8053 594.599 2.51738C452.533 -11.771 321.816 39.4266 321.816 39.4266H321.815Z"
                fill="white" />
        </mask>
        <g mask="url(#mask0_150518_57503)">
            <path id="light-shape" fill-rule="evenodd" clip-rule="evenodd"
                d="M-54.9911 794.536C-54.9911 794.536 25.1967 915.167 166.665 825.976C308.134 736.784 284.165 681.32 278.204 589.543C272.243 497.766 289.103 408.386 425.854 388.143C562.606 367.899 682.145 433.134 750.631 326.328C819.118 219.522 835.969 223.745 909.532 227.793C949.451 229.99 1014.92 300.723 1014.92 300.723C1014.92 300.723 831.396 136.977 824.517 357.165C820.346 490.676 726.446 500.392 649.261 504.31C572.076 508.228 490.921 540.771 505.681 660.968C520.441 781.165 509.277 816.45 459.509 853.75C409.741 891.05 312.373 870.128 333.13 951.247C353.888 1032.37 117.953 1059.6 17.951 1005C-82.0506 950.392 -54.9911 794.536 -54.9911 794.536Z"
                fill="url(#paint1_linear_150518_57503)" />
            <g id="trees">
                <g id="tree-2">
                    <g id="tree-container" filter="url(#filter0_d_150518_57503)">
                        <path fill-rule="evenodd" clip-rule="evenodd"
                            d="M486.512 1153.05C486.512 1153.05 527.443 1148.4 507.985 1037.13C488.528 925.852 472.659 934.276 485.026 886.335C497.394 838.393 555.244 840.047 556.038 875.931C556.831 911.815 528.94 945.445 565.47 1009.81C602 1074.18 628.38 1075.86 641.529 1045.75C654.679 1015.64 661.427 982.641 651.638 965.301C642.025 948.273 648.943 933.377 669.026 940.18C681.472 944.396 695.011 962.211 695.325 983.226C695.851 1018.45 656.717 1041.78 660.713 1074.53C664.709 1107.27 674.673 1117.13 658.886 1128.95C643.099 1140.77 513.792 1163.25 498.048 1159.32C482.304 1155.38 486.512 1153.05 486.512 1153.05Z"
                            fill="url(#paint2_linear_150518_57503)" />
                    </g>
                    <path id="tree-root-4" fill-rule="evenodd" clip-rule="evenodd"
                        d="M564.332 1145.05C564.332 1145.05 578.514 1109.27 551.735 1066.77C550.142 1064.24 548.604 1061.61 547.12 1058.9C546.96 1058.95 546.822 1058.77 546.739 1058.2C539.624 1045.05 533.776 1029.95 529.201 1014.47C523.083 1005.71 512.831 999.815 512.831 999.815C512.831 999.815 505.513 996.08 518.318 1002.59C522.629 1004.78 525.833 1007.85 528.187 1010.96C522.112 989.429 518.484 967.394 517.318 949.019C513.356 938.661 503.845 930.165 503.845 930.165C503.845 930.165 497.449 924.999 508.645 934.015C512.839 937.392 515.469 941.548 517.119 945.424C516.691 936.326 516.901 928.248 517.751 921.739C518.994 912.223 519.781 906.074 520.274 902.132C519.444 910.957 518.291 927.974 519.496 945.856C520.07 954.387 520.767 961.835 521.702 968.87C522.379 963.77 524.399 956.717 530.083 951.01C540.231 940.823 534.436 946.657 534.436 946.657C534.436 946.657 522.669 959.745 522.221 972.562C524.125 985.414 526.927 997.248 531.382 1012.38C537.034 1031.58 540.724 1041.55 546.456 1052.32C546.299 1049.86 545.985 1037.24 555.106 1028.08C565.253 1017.89 559.458 1023.73 559.458 1023.73C559.458 1023.73 544.419 1040.45 547.698 1054.61C549.004 1056.97 550.418 1059.4 551.982 1062C561.285 1077.49 567.103 1091.88 568.878 1105.84C571.747 1128.39 564.332 1145.05 564.332 1145.05ZM520.954 895.863C520.954 895.863 520.646 898.173 520.274 902.132C521.446 892.761 520.954 895.863 520.954 895.863Z"
                        fill="#F0B6B3" />
                    <path id="tree-root-3" fill-rule="evenodd" clip-rule="evenodd"
                        d="M631.196 1117.73C631.196 1117.73 623.99 1093.57 643.882 1067.4C650.876 1058.19 656.828 1046.62 661.566 1034.58C666.056 1029.22 673.078 1025.96 673.078 1025.96C673.078 1025.96 678.064 1023.95 669.34 1027.46C666.404 1028.64 664.14 1030.46 662.428 1032.35C667.617 1018.66 671.241 1004.5 673.051 992.586C676.225 986.055 682.919 981.056 682.919 981.056C682.919 981.056 687.385 978.055 679.568 983.291C676.637 985.255 674.683 987.817 673.386 990.252C674.186 984.339 674.511 979.055 674.328 974.759C674.061 968.48 673.898 964.424 673.802 961.825C673.785 959.223 673.717 957.699 673.717 957.699C673.717 957.699 673.573 955.647 673.802 961.825C673.839 967.628 673.62 978.794 671.813 990.388C670.951 995.919 670.071 1000.74 669.059 1005.27C668.909 1001.91 667.995 997.191 664.613 993.141C658.576 985.914 662.023 990.053 662.023 990.053C662.023 990.053 668.951 999.267 668.51 1007.65C666.534 1015.92 664.031 1023.48 660.262 1033.09C655.575 1045.04 652.623 1051.33 648.41 1057.87C648.577 1056.11 648.631 1051.7 645.633 1048.11C641.797 1043.52 643.987 1046.15 643.987 1046.15C643.987 1046.15 649.112 1052.96 647.951 1058.58C646.758 1060.4 645.46 1062.25 643.993 1064.27C637.041 1073.84 632.425 1082.89 630.47 1091.89C627.311 1106.44 631.196 1117.73 631.196 1117.73Z"
                        fill="#F0B6B3" />
                </g>
                <g id="tree-1">
                    <g id="tree-container_2" filter="url(#filter1_d_150518_57503)">
                        <path fill-rule="evenodd" clip-rule="evenodd"
                            d="M1025.37 987.768C1025.37 987.768 1066.47 927.337 894.738 825.214C723.004 723.09 715.949 754.155 665.957 682.237C615.964 610.318 685.086 534.389 734.13 574.697C783.173 615.005 796.017 691.308 924.59 716.376C1053.16 741.445 1085.93 707.893 1060.75 655.478C1035.57 603.063 999.124 555.939 964.548 549.116C930.595 542.416 918.617 515.932 950.967 496.756C971.015 484.872 1010.57 487.197 1039.11 511.006C1086.96 550.914 1073 630.472 1121.53 662.85C1170.07 695.228 1194.82 693.194 1192.41 728.063C1190 762.932 1070.61 962.832 1047.12 979.475C1023.63 996.119 1025.37 987.768 1025.37 987.768V987.768Z"
                            fill="url(#paint3_linear_150518_57503)" />
                    </g>
                    <path id="tree-root-2" fill-rule="evenodd" clip-rule="evenodd"
                        d="M1104.64 873.84C1104.64 873.84 1073.06 813.502 985.092 800.528C979.859 799.756 974.556 798.797 969.203 797.667C969.079 797.936 968.676 797.913 967.823 797.372C941.959 791.781 914.952 782.241 888.905 770.549C870.075 768.673 850.304 775.677 850.304 775.677C850.304 775.677 836.831 781.216 860.374 771.496C868.305 768.221 876.131 767.449 883.021 767.864C847.12 751.215 813.37 730.687 787.375 711.068C768.901 704.454 746.502 707.455 746.502 707.455C746.502 707.455 732.179 710.104 757.217 705.436C766.599 703.687 775.216 704.939 782.323 707.19C769.625 697.275 759.033 687.676 751.286 679.027C739.96 666.382 732.624 658.232 727.907 653.023C738.782 664.315 760.271 685.49 785.647 704.488C797.745 713.545 808.533 721.191 819.043 728.041C812.99 721.249 805.88 710.406 804.801 696.191C802.874 670.791 803.998 685.316 803.998 685.316C803.998 685.316 807.937 716.205 824.584 731.594C844.032 743.86 863.151 753.74 888.608 765.198C920.891 779.729 938.54 786.268 959.603 790.968C956.126 788.345 938.831 774.214 937.099 751.381C935.172 725.982 936.296 740.507 936.296 740.507C936.296 740.507 941.336 780.031 964.109 791.935C968.788 792.902 973.687 793.804 978.987 794.702C1010.52 800.042 1036.54 808.804 1057.31 822.508C1090.88 844.657 1104.64 873.84 1104.64 873.84ZM720.288 644.882C720.288 644.882 723.03 647.959 727.907 653.023C716.697 640.644 720.288 644.882 720.288 644.882Z"
                        fill="#F0B6B3" />
                    <path id="tree-root-1" fill-rule="evenodd" clip-rule="evenodd"
                        d="M1145.33 752.376C1145.33 752.376 1104.61 734.225 1092.5 677.275C1088.24 657.251 1079.62 635.912 1068.94 615.648C1066.94 603.421 1070.7 590.213 1070.7 590.213C1070.7 590.213 1073.77 581.18 1068.39 596.966C1066.57 602.283 1066.39 607.429 1066.95 611.914C1054.59 589.145 1039.79 567.941 1025.9 551.765C1020.81 539.963 1021.85 525.194 1021.85 525.194C1021.85 525.194 1022.99 515.724 1020.97 532.279C1020.22 538.486 1021.39 544.069 1023.16 548.622C1016.16 540.731 1009.45 534.204 1003.48 529.497C994.749 522.619 989.123 518.162 985.525 515.294C982.013 512.314 979.889 510.648 979.889 510.648C979.889 510.648 976.971 508.476 985.525 515.294C993.351 521.936 1008.07 535.104 1021.53 550.901C1027.95 558.436 1033.39 565.172 1038.3 571.76C1033.61 568.083 1026.23 563.878 1016.89 563.76C1000.22 563.548 1009.75 563.683 1009.75 563.683C1009.75 563.683 1030.12 564.985 1040.85 575.241C1049.66 587.44 1056.91 599.524 1065.44 615.68C1076.05 635.767 1081.06 646.987 1084.97 660.199C1082.81 657.952 1076.94 652.782 1068.66 652.677C1058.06 652.542 1064.12 652.628 1064.12 652.628C1064.12 652.628 1079.2 653.592 1085.38 661.636C1086.44 665.339 1087.43 669.225 1088.44 673.525C1093.23 693.909 1100.03 710.555 1109.84 723.562C1125.7 744.587 1145.33 752.376 1145.33 752.376Z"
                        fill="#F0B6B3" />
                </g>
            </g>
            <g id="boy">
                <path id="painted" fill-rule="evenodd" clip-rule="evenodd"
                    d="M292.853 446.734C301.844 444.543 317.575 430.959 317.575 430.959C317.575 430.959 293.505 432.997 278.19 415.964C262.875 398.93 247.047 400.325 228.857 409.501C210.666 418.678 216.984 427.242 207.894 442.657C198.804 458.072 183.089 477.921 157.483 472.961C131.877 468.001 120.661 488.507 105.579 497.158C90.4974 505.809 53.6329 526.339 55.4892 549.242C57.3459 572.145 58.1725 681.532 154.979 729.318C163.876 734.096 163.764 733.984 163.764 733.984C163.764 733.984 137.516 696.582 147.516 660.275C157.516 623.969 168.651 614.719 189.181 602.521C209.711 590.321 212.18 566.469 213.731 539.039C215.282 511.608 219.329 488.998 236.163 473.037C252.997 457.075 248.518 457.539 292.853 446.734Z"
                    fill="url(#paint4_linear_150518_57503)" />
                <path id="hood" fill-rule="evenodd" clip-rule="evenodd"
                    d="M445.064 443.549C445.064 443.549 446.97 437.599 453.566 434.467C460.521 431.164 456.961 428.796 461.201 426.604C465.442 424.414 474.444 417.412 484.137 418.126C493.829 418.84 496.501 420.298 500.86 424.259C505.219 428.221 504.532 428.696 506.994 430.931C509.023 432.773 514.436 428.859 521.999 435.795C524.878 438.436 528.758 441.3 526.984 443.319C525.21 445.337 453.558 453.201 450.155 449.16C446.751 445.119 445.064 443.549 445.064 443.549H445.064Z"
                    fill="#ECA63D" />
                <path id="laptop-behind" fill-rule="evenodd" clip-rule="evenodd"
                    d="M641.752 526.357C640.848 525.667 640.818 524.922 641.685 524.692L730.416 501.236C731.284 501.006 732.723 501.38 733.627 502.069L757.948 520.598C758.852 521.287 758.882 522.033 758.015 522.263L669.284 545.72C668.416 545.949 666.977 545.576 666.073 544.886L641.752 526.357Z"
                    fill="#CDD7E3" />
                <path id="right-leg" fill-rule="evenodd" clip-rule="evenodd"
                    d="M307.519 676.051C307.519 676.051 293.347 680.696 280.76 680.488C268.173 680.281 267.023 681.527 265.066 686.354C263.109 691.181 261.516 698.564 294.056 703.704C302.331 704.657 316.222 712.368 320.343 709.487C324.464 706.606 329.025 699.523 329.036 687.722C329.047 675.921 316.904 682.329 313.773 680.219C310.643 678.11 307.519 676.051 307.519 676.051V676.051Z"
                    fill="#B7B4D4" />
                <g id="right-leg-shadow">
                    <mask id="mask1_150518_57503" style="mask-type:luminance" maskUnits="userSpaceOnUse" x="264" y="676"
                        width="66" height="35">
                        <path id="Left-Leg1" fill-rule="evenodd" clip-rule="evenodd"
                            d="M307.519 676.051C307.519 676.051 293.347 680.696 280.76 680.488C268.173 680.281 267.023 681.527 265.066 686.354C263.109 691.181 261.516 698.564 294.056 703.704C302.331 704.657 316.222 712.368 320.343 709.487C324.464 706.606 329.025 699.523 329.036 687.722C329.047 675.921 316.904 682.329 313.773 680.219C310.643 678.11 307.519 676.051 307.519 676.051V676.051Z"
                            fill="white" />
                    </mask>
                    <g mask="url(#mask1_150518_57503)">
                        <path id="Path" fill-rule="evenodd" clip-rule="evenodd"
                            d="M261.357 695.606C261.357 695.606 310.412 702.685 315.025 694.957C319.637 687.23 318.075 687.003 320.79 685.63C323.506 684.257 331.638 683.25 331.892 686.661C332.146 690.073 327.748 711.528 317.485 711.091C307.222 710.655 261.357 695.606 261.357 695.606Z"
                            fill="black" fill-opacity="0.12" />
                    </g>
                </g>
                <path id="left-leg" fill-rule="evenodd" clip-rule="evenodd"
                    d="M389.323 728.043C389.323 728.043 387.535 745.868 380.073 750.151C372.61 754.434 356.265 756.767 354.303 762.861C352.627 768.066 353.614 776.737 369.724 776.846C385.911 776.954 389.477 770.83 402.404 772.591C415.331 774.353 413.202 755.716 412.453 748.808C411.703 741.901 412.954 738.49 412.047 735.73C411.141 732.97 389.323 728.043 389.323 728.043V728.043Z"
                    fill="#B7B4D4" />
                <g id="left-leg-shadow">
                    <mask id="mask2_150518_57503" style="mask-type:luminance" maskUnits="userSpaceOnUse" x="353" y="728"
                        width="61" height="49">
                        <path id="Path_2" fill-rule="evenodd" clip-rule="evenodd"
                            d="M389.323 728.043C389.323 728.043 387.535 745.868 380.073 750.151C372.61 754.434 356.265 756.767 354.303 762.861C352.627 768.066 353.614 776.737 369.724 776.846C385.911 776.954 389.477 770.83 402.404 772.591C415.331 774.353 413.202 755.716 412.453 748.808C411.703 741.901 412.954 738.49 412.047 735.73C411.141 732.97 389.323 728.043 389.323 728.043V728.043Z"
                            fill="white" />
                    </mask>
                    <g mask="url(#mask2_150518_57503)">
                        <path id="Path_3" fill-rule="evenodd" clip-rule="evenodd"
                            d="M388.777 729.381C388.777 729.381 386.257 729.416 388.353 733.688C390.639 738.349 401.658 743.829 404.276 746.815C409.496 752.768 404.771 755.182 403.626 762.012C403.031 765.565 393.368 763.23 386.837 765.37C378.798 768.004 373.066 774.677 365.297 774.235C351.9 773.474 362.49 779.374 379.656 778.563C396.822 777.753 413.099 776.398 416.583 769.235C420.065 762.072 414.016 749.559 415.026 744.371C416.035 739.184 419.924 735.623 413.467 732.018C401.48 725.326 388.777 729.381 388.777 729.381Z"
                            fill="#A19EBA" />
                    </g>
                </g>
                <path id="pants" fill-rule="evenodd" clip-rule="evenodd"
                    d="M424.086 551.732C424.086 551.732 350.356 587.189 341.922 594.314C333.489 601.439 334.422 608.681 327.659 624.976C320.896 641.271 308.75 670.631 307.007 673.927C305.263 677.224 308.936 682.039 314.809 684.303C320.682 686.566 329.708 687.608 333.234 684.406C336.76 681.205 333.137 677.919 340.904 666.307C348.67 654.694 355.527 645.259 359.444 634.67C361.785 628.339 364.683 618.707 377.347 615.677C390.011 612.648 412.933 601.573 424.513 597.73C436.092 593.888 436.848 597.262 435.729 599.675C434.61 602.088 405.863 628.407 405.115 635.16C404.368 641.913 397.391 675.141 395.732 688.683C394.074 702.226 388.162 722.657 388.072 727.521C387.983 732.385 390.871 739.779 403.635 742.293C416.399 744.807 414.922 736.7 417.174 729.384C419.026 723.368 426.686 704.501 430.487 686.354C433.475 672.084 432.877 660.659 435.314 656.59C440.85 647.347 445.418 638.973 470.481 629.067C495.544 619.161 499.682 617.25 502.653 599.352C505.624 581.454 507.964 571.437 505.276 564.421C502.588 557.406 424.086 551.732 424.086 551.732V551.732Z"
                    fill="#6154CE" />
                <g id="Clipped">
                    <mask id="mask3_150518_57503" style="mask-type:luminance" maskUnits="userSpaceOnUse" x="306" y="551"
                        width="201" height="192">
                        <path id="Path_4" fill-rule="evenodd" clip-rule="evenodd"
                            d="M424.086 551.732C424.086 551.732 350.356 587.189 341.922 594.314C333.489 601.439 334.422 608.681 327.659 624.976C320.896 641.271 308.75 670.631 307.007 673.927C305.263 677.224 308.936 682.039 314.809 684.303C320.682 686.566 329.708 687.608 333.234 684.406C336.76 681.205 333.137 677.919 340.904 666.307C348.67 654.694 355.527 645.259 359.444 634.67C361.785 628.339 364.683 618.707 377.347 615.677C390.011 612.648 412.933 601.573 424.513 597.73C436.092 593.888 436.848 597.262 435.729 599.675C434.61 602.088 405.863 628.407 405.115 635.16C404.368 641.913 397.391 675.141 395.732 688.683C394.074 702.226 388.162 722.657 388.072 727.521C387.983 732.385 390.871 739.779 403.635 742.293C416.399 744.807 414.922 736.7 417.174 729.384C419.026 723.368 426.686 704.501 430.487 686.354C433.475 672.084 432.877 660.659 435.314 656.59C440.85 647.347 445.418 638.973 470.481 629.067C495.544 619.161 499.682 617.25 502.653 599.352C505.624 581.454 507.964 571.437 505.276 564.421C502.588 557.406 424.086 551.732 424.086 551.732V551.732Z"
                            fill="white" />
                    </mask>
                    <g mask="url(#mask3_150518_57503)">
                        <g id="Group">
                            <path id="Path_5" fill-rule="evenodd" clip-rule="evenodd"
                                d="M295.853 678.663C298.163 667.937 298.243 680.716 301.441 683.101C304.639 685.485 304.59 687.499 314.779 687.312C324.968 687.124 323.373 678.74 326.709 670.327C328.442 665.953 336.613 658.464 337.503 648.209C338.392 637.954 343.81 614.497 355.919 610.668C368.029 606.839 389.961 605.251 400.484 601.153C420.153 593.491 422.939 587.061 431.327 589.97C444.4 594.503 439.015 605.079 424.672 609.943C417.946 612.225 365.99 622.907 361.745 629.649C357.5 636.391 350.076 659.664 345.359 666.52C340.642 673.376 332.379 698.18 319.498 696.201C306.616 694.223 293.542 689.39 295.853 678.663Z"
                                fill="#5347B3" />
                            <path id="Path_6" fill-rule="evenodd" clip-rule="evenodd"
                                d="M385.686 728.34C385.686 728.34 404.203 741.147 410.44 721.202C416.677 701.257 413.685 656.735 427.903 638.219C442.121 619.703 468.498 618.789 482.375 604.287C492.25 593.969 494.113 579.076 498.122 570.007C499.747 566.33 504.436 560.679 505.571 563.723C508.658 571.999 506.625 629.664 488.467 637.424C470.309 645.183 445.127 657.22 439.889 682.032C434.65 706.844 433.666 748.286 419.331 750.336C404.996 752.386 381.255 749.958 382.154 741.311C383.053 732.665 385.686 728.34 385.686 728.34Z"
                                fill="#5347B3" />
                            <path id="Path_7" fill-rule="evenodd" clip-rule="evenodd"
                                d="M384.69 569.401C384.69 569.401 418.958 557.344 430.46 558.719C434.325 559.089 435.11 557.361 434.172 555.457C433.234 553.554 420.898 551.157 417.051 552.071C413.203 552.986 386.647 565.143 386.647 565.143L384.69 569.401H384.69Z"
                                fill="#5347B3" />
                        </g>
                    </g>
                </g>
                <g id="Group_2">
                    <path id="Right-Hand" fill-rule="evenodd" clip-rule="evenodd"
                        d="M641.305 511.036C641.305 511.036 644.904 521.509 654.205 526.279C663.507 531.05 662.405 525.876 659.498 523.752C656.591 521.627 654.828 518.162 657.551 517.284C660.274 516.406 664.788 518.896 667.427 524.005C670.067 529.115 672.643 529.144 673.95 524.757C675.257 520.369 676.629 511.882 669.207 506.18C661.784 500.479 662.017 499.528 651.38 499.595C640.744 499.662 641.081 506.276 641.104 508.241C641.126 510.206 641.305 511.036 641.305 511.036Z"
                        fill="#FCB8AC" />
                    <path id="Left-Hand" fill-rule="evenodd" clip-rule="evenodd"
                        d="M371.9 435.062C371.9 435.062 377.491 432.207 377.241 425.47C376.992 418.734 376.452 411.936 369.943 408.039C363.434 404.143 352.501 405.143 350.105 410.604C347.708 416.065 349.553 426.388 353.907 430.947C358.262 435.506 354.84 437.87 363.45 437.043C372.06 436.217 371.9 435.062 371.9 435.062Z"
                        fill="#FCB8AC" />
                    <path id="Path_8" fill-rule="evenodd" clip-rule="evenodd"
                        d="M393.868 406.18C393.573 405.282 392.604 404.792 391.705 405.087L314.483 430.441C313.585 430.736 313.095 431.706 313.39 432.604C313.685 433.503 314.654 433.992 315.553 433.697L392.774 408.343C393.673 408.048 394.163 407.079 393.868 406.18Z"
                        fill="#346080" />
                    <path id="Left-Thumb" fill-rule="evenodd" clip-rule="evenodd"
                        d="M364.409 421.03C364.409 421.03 368.391 417.129 365.468 413.647C362.545 410.166 364.154 408.407 366.466 409.022C368.779 409.637 375.008 411.216 376.741 423.925"
                        fill="url(#paint5_linear_150518_57503)" />
                    <path id="laptop-front" fill-rule="evenodd" clip-rule="evenodd"
                        d="M756.066 461.34C755.917 459.237 754.169 457.959 752.166 458.487L665.925 481.246C663.922 481.775 662.417 483.912 662.567 486.015L666.585 542.555C666.735 544.658 668.483 545.936 670.486 545.408L756.726 522.649C758.729 522.12 760.234 519.983 760.084 517.88L756.066 461.34Z"
                        fill="#E0EEFF" />
                    <g id="laptop-front-shadow">
                        <mask id="mask4_150518_57503" style="mask-type:luminance" maskUnits="userSpaceOnUse" x="662"
                            y="458" width="99" height="88">
                            <path id="Path_9" fill-rule="evenodd" clip-rule="evenodd"
                                d="M756.066 461.34C755.917 459.237 754.169 457.959 752.166 458.487L665.925 481.246C663.922 481.775 662.417 483.912 662.567 486.015L666.585 542.555C666.735 544.658 668.483 545.936 670.486 545.408L756.726 522.649C758.729 522.12 760.234 519.983 760.084 517.88L756.066 461.34Z"
                                fill="white" />
                        </mask>
                        <g mask="url(#mask4_150518_57503)">
                            <g id="Group_3">
                                <path id="Path_10" fill-rule="evenodd" clip-rule="evenodd"
                                    d="M664.23 528.504C664.23 528.504 664.176 542.403 684.334 539.437C704.492 536.471 720.282 533.48 720.282 533.48C720.282 533.48 670.118 549.703 667.853 547.722C665.589 545.741 662.645 533.057 663.17 531.242C663.694 529.427 664.23 528.504 664.23 528.504V528.504Z"
                                    fill="black" fill-opacity="0.04" />
                                <path id="Path_11" fill-rule="evenodd" clip-rule="evenodd"
                                    d="M718.965 464.629C718.965 464.629 727.239 461.815 732.499 464.576C737.759 467.337 739.107 479.179 749.713 471.468C760.318 463.757 761.663 478.351 756.574 485.967C751.485 493.583 761.328 499.203 767.842 492.811C774.357 486.419 776.443 450.948 755.996 449.645C735.549 448.343 711.58 457.016 709.002 460.938C706.424 464.86 718.965 464.629 718.965 464.629Z"
                                    fill="#D7E5F5" fill-opacity="0.89" />
                                <path id="Path_12" fill-rule="evenodd" clip-rule="evenodd"
                                    d="M713.107 495.145C717.14 494.62 720.841 497.47 721.365 501.503C721.889 505.537 719.04 509.237 715.006 509.762C710.973 510.286 707.272 507.437 706.748 503.403C706.224 499.369 709.073 495.669 713.107 495.145Z"
                                    fill="white" />
                            </g>
                        </g>
                    </g>
                    <path id="Path_13" fill-rule="evenodd" clip-rule="evenodd"
                        d="M462.072 415.955C462.072 415.955 464.095 425.832 460 430.93C455.906 436.029 454.827 436.744 440.315 441.546C425.803 446.348 421.329 442.645 413.82 457.93C406.31 473.214 390.257 499.834 385.216 497.938C380.836 496.291 378.49 474.825 376.951 461.731C375.357 448.166 374.428 434.918 371.597 433.913C368.765 432.909 358.506 435.469 358.394 437.409C358.282 439.35 360.059 500.082 363.698 512.03C367.522 524.588 378.366 533.25 388.002 529.233C400.917 523.849 424.084 489.132 424.084 489.132C424.084 489.132 420.654 526.368 419.574 537.893C418.495 549.419 417.557 554.652 431.121 556.008C444.685 557.363 451.292 566.587 478.744 569.305C506.197 572.025 509.909 569.142 511.656 563.407C513.403 557.672 502.916 527.509 510.347 499.539C517.778 471.568 524.878 468.442 529.96 470.924C535.041 473.407 555.667 485.651 565.131 492.093C574.595 498.535 588.999 501.596 598.277 502.249C607.556 502.901 626.494 507.348 635.183 511.708C643.872 516.069 643.888 513.145 645.021 510.056C646.154 506.966 651.965 501.875 642.351 497.924C632.736 493.973 614.599 482.837 587.945 478.792C582.209 477.701 567.022 468.873 555.349 457.583C543.677 446.294 536.997 434.609 517.167 433.486C497.337 432.362 482.865 431.938 482.718 422.6C482.57 413.261 483.309 410.277 483.309 410.277C483.309 410.277 471.044 406.324 466.073 410.018C461.102 413.712 462.072 415.955 462.072 415.955Z"
                        fill="#FFB233" />
                    <g id="Clipped_2">
                        <mask id="mask5_150518_57503" style="mask-type:luminance" maskUnits="userSpaceOnUse" x="358"
                            y="408" width="290" height="163">
                            <path id="Path_14" fill-rule="evenodd" clip-rule="evenodd"
                                d="M462.072 415.955C462.072 415.955 464.095 425.832 460 430.93C455.906 436.029 454.827 436.744 440.315 441.546C425.803 446.348 421.329 442.645 413.82 457.93C406.31 473.214 390.257 499.834 385.216 497.938C380.836 496.291 378.49 474.825 376.951 461.731C375.357 448.166 374.428 434.918 371.597 433.913C368.765 432.909 358.506 435.469 358.394 437.409C358.282 439.35 360.059 500.082 363.698 512.03C367.522 524.588 378.366 533.25 388.002 529.233C400.917 523.849 424.084 489.132 424.084 489.132C424.084 489.132 420.654 526.368 419.574 537.893C418.495 549.419 417.557 554.652 431.121 556.008C444.685 557.363 451.292 566.587 478.744 569.305C506.197 572.025 509.909 569.142 511.656 563.407C513.403 557.672 502.916 527.509 510.347 499.539C517.778 471.568 524.878 468.442 529.96 470.924C535.041 473.407 555.667 485.651 565.131 492.093C574.595 498.535 588.999 501.596 598.277 502.249C607.556 502.901 626.494 507.348 635.183 511.708C643.872 516.069 643.888 513.145 645.021 510.056C646.154 506.966 651.965 501.875 642.351 497.924C632.736 493.973 614.599 482.837 587.945 478.792C582.209 477.701 567.022 468.873 555.349 457.583C543.677 446.294 536.997 434.609 517.167 433.486C497.337 432.362 482.865 431.938 482.718 422.6C482.57 413.261 483.309 410.277 483.309 410.277C483.309 410.277 471.044 406.324 466.073 410.018C461.102 413.712 462.072 415.955 462.072 415.955Z"
                                fill="white" />
                        </mask>
                        <g mask="url(#mask5_150518_57503)">
                            <g id="Group_4">
                                <path id="Path_15" fill-rule="evenodd" clip-rule="evenodd"
                                    d="M457.52 431.09C457.52 431.09 456.729 442.849 471.855 442.882C486.981 442.915 488.287 430.12 488.237 428.562C488.187 427.005 485.982 430.16 483.512 423.475C481.041 416.791 484.465 410.908 484.465 410.908L480.714 407.646C480.714 407.646 479.996 411.052 471.008 411.846C462.019 412.64 461.105 411.928 460.51 415.623C459.915 419.318 462.421 421.206 461.592 423.891C460.764 426.575 457.52 431.09 457.52 431.09Z"
                                    fill="#FCB8AC" />
                                <g id="Shadow">
                                    <path id="_-Curve-" fill-rule="evenodd" clip-rule="evenodd"
                                        d="M444.029 412.581C442.573 402.68 448.921 396.93 456.059 402.19C462.635 407.035 484.475 397.157 483.599 412.789C483.524 414.127 471.009 419.059 468.545 426.992C462.817 445.425 438.608 446.484 434.266 476.158C430.921 499.011 423.235 535.115 432.222 552.348C453.368 592.896 419.453 561.41 418.276 550.684C416.414 536.321 419.637 513.118 423.736 489.784C426.035 476.699 425.804 455.455 433.619 446.918C441.434 438.381 443.991 440.873 449.12 429.456C454.249 418.039 445.486 422.482 444.029 412.581Z"
                                        fill="black" fill-opacity="0.07" />
                                    <path id="Path_16" fill-rule="evenodd" clip-rule="evenodd"
                                        d="M423.988 496.824C424.785 496.718 431.253 451.359 438.636 442.97C446.391 434.159 427.245 436.075 419.919 442.228C412.594 448.381 406.529 466.677 410.908 461.192C448.803 413.725 419.084 500.859 398.946 521.359C396.794 523.55 423.988 496.824 423.988 496.824Z"
                                        fill="#ECA63D" />
                                    <path id="Path_17" fill-rule="evenodd" clip-rule="evenodd"
                                        d="M501.553 580.43C501.553 580.43 507.182 583.995 508.56 584.419C512.601 585.662 520.99 581.583 518.012 571.641C515.034 561.699 514.835 536.61 515.487 513.128C516.139 489.646 520.779 485.484 529.265 484.128C537.751 482.772 549.476 493.674 564.082 502.321C578.689 510.967 622.731 518.198 628.794 521.566C634.857 524.934 639.819 523.152 639.819 521.643C639.819 516.83 596.328 506.266 582.578 504.137C568.827 502.007 542.165 480.672 530.528 470.955C518.89 461.237 514.639 468.492 506.497 484.38C482.229 539.138 501.553 580.43 501.553 580.43Z"
                                        fill="#ECA63D" />
                                    <path id="Path_18" fill-rule="evenodd" clip-rule="evenodd"
                                        d="M528.272 435.483C528.272 435.483 532.013 438.087 537.58 443.871C543.146 449.656 565.729 473.326 582.485 478.357C599.243 483.388 604.45 481.897 625.196 491.549C645.943 501.202 646.683 496.444 646.683 496.444C646.683 496.444 622.398 478.644 593.253 472.099C564.108 465.555 549.368 447.312 542.85 441.013C536.333 434.715 528.272 435.483 528.272 435.483Z"
                                        fill="#ECA63D" />
                                </g>
                                <path id="Path_19" fill-rule="evenodd" clip-rule="evenodd"
                                    d="M462.078 444.842C462.634 445.021 462.598 445.766 461.8 445.966C459.391 446.599 458.062 449.468 457.385 451.883C456.143 456.312 456.382 461.009 456.544 465.684C456.731 471.091 457.534 476.661 456.544 481.744C456.121 483.92 455.031 486.049 452.947 486.888C452.282 487.155 451.68 486.233 452.651 485.819C454.888 484.827 455.513 481.886 455.704 479.798C456.557 470.501 453.753 460.759 456.325 451.586C456.471 451.067 456.638 450.554 456.832 450.051C456.934 449.786 457.044 449.524 457.161 449.265C457.259 449.05 457.364 448.838 457.474 448.628C458.423 446.825 459.957 445.029 461.898 444.83C461.898 444.83 461.981 444.827 462.078 444.842Z"
                                    fill="white" />
                                <path id="Path_20" fill-rule="evenodd" clip-rule="evenodd"
                                    d="M483.683 443.505C484.195 443.646 484.25 444.298 483.643 444.624C481.471 445.853 481.783 449.654 482.546 452.806C484.39 460.426 486.943 467.996 487.076 475.823C487.141 479.643 486.704 483.649 484.054 486.473C483.291 487.286 482.198 488.6 481.371 488.088C480.519 487.562 482.474 486.612 483.411 485.545C485.747 482.887 486.032 479.128 485.976 475.842C485.84 467.833 482.979 459.979 481.307 452.333C480.648 449.321 480.544 445.707 482.643 443.982C483.092 443.613 483.588 443.496 483.588 443.496C483.62 443.499 483.651 443.502 483.683 443.505Z"
                                    fill="white" />
                            </g>
                        </g>
                    </g>
                    <path id="Path_21" fill-rule="evenodd" clip-rule="evenodd"
                        d="M446.152 383.932C446.152 383.932 443.387 403.274 449.864 410.851C456.341 418.429 468.307 419.111 474.088 415.495C479.87 411.879 479.795 409.835 479.98 406.91C479.98 406.91 479.322 404.004 484.134 403.237C488.07 402.61 491.272 398.462 490.146 394.245C489.895 393.307 489.429 392.364 488.71 391.457C484.758 386.472 482.884 389.323 482.411 389.758C481.939 390.194 479.294 394.68 479.811 396.654C480.328 398.628 478.085 399.95 476.794 397.808C475.502 395.666 473.202 395.783 475.154 386.85C475.717 384.132 461.35 381.126 451.189 383.714C449.2 384.22 446.152 383.932 446.152 383.932Z"
                        fill="#FCB8AC" />
                    <g id="face">
                        <mask id="mask6_150518_57503" style="mask-type:luminance" maskUnits="userSpaceOnUse" x="445"
                            y="382" width="46" height="36">
                            <path id="Path_22" fill-rule="evenodd" clip-rule="evenodd"
                                d="M446.152 383.932C446.152 383.932 443.387 403.274 449.864 410.851C456.341 418.429 468.307 419.111 474.088 415.495C479.87 411.879 479.795 409.835 479.98 406.91C479.98 406.91 479.322 404.004 484.134 403.237C488.07 402.61 491.272 398.462 490.146 394.245C489.895 393.307 489.429 392.364 488.71 391.457C484.758 386.472 482.884 389.323 482.411 389.758C481.939 390.194 479.294 394.68 479.811 396.654C480.328 398.628 478.085 399.95 476.794 397.808C475.502 395.666 473.202 395.783 475.154 386.85C475.717 384.132 461.35 381.126 451.189 383.714C449.2 384.22 446.152 383.932 446.152 383.932Z"
                                fill="white" />
                        </mask>
                        <g mask="url(#mask6_150518_57503)">
                            <g id="Group_5">
                                <path id="_-Curve-1" fill-rule="evenodd" clip-rule="evenodd"
                                    d="M438.971 386.202C441.159 385.646 456.875 374.406 456.607 382.745C456.339 391.085 448.018 400.854 455.156 406.115C461.07 410.472 465.521 406.777 465.808 416.976C465.868 419.089 465.749 421.798 465.427 425.299C463.659 444.52 445.487 422.482 444.03 412.581C442.574 402.68 436.782 386.758 438.971 386.202Z"
                                    fill="#F48A8B" fill-opacity="0.34" />
                                <circle id="Oval" cx="463.874" cy="395.26" r="1.28283" fill="#172C57" />
                                <path id="Path_23" fill-rule="evenodd" clip-rule="evenodd"
                                    d="M466.222 407.268C466.493 407.301 466.524 407.373 466.598 407.459C467.069 408.008 466.021 408.914 465.083 409.518C462.252 411.339 458.44 411.34 455.121 410.69C455.121 410.69 454.613 410.491 454.66 410.084C454.746 409.327 456.236 409.796 457.494 409.883C460.532 410.094 463.867 409.768 465.755 407.468C465.755 407.468 465.921 407.259 466.222 407.268Z"
                                    fill="#172C57" />
                                <circle id="Oval_2" cx="448.979" cy="395.234" r="1.28283" fill="#172C57" />
                            </g>
                        </g>
                    </g>
                    <path id="hair" class="designer-boy--hair" fill-rule="evenodd" clip-rule="evenodd"
                        d="M440.914 377.147C440.914 377.147 438.852 386.735 448.223 385.439C457.595 384.144 460.467 383.176 464.557 384.52C468.646 385.864 475.337 385.441 474.011 388.966C472.684 392.491 472.887 395.761 475.047 397.197C477.207 398.634 476.805 400.152 479.47 399.802C482.136 399.452 480.009 398.092 480.615 394.978C481.22 391.864 482.669 388.491 486.042 390.038C489.415 391.584 491.148 398.274 486.688 400.863C482.228 403.452 479.737 402.478 479.345 406.008C478.953 409.538 479.35 410.374 481.84 412.051C484.33 413.727 493.926 409.19 496.172 403.386C498.417 397.582 502.025 399.18 500.724 390.782C499.423 382.385 502.418 384.676 502.273 380.692C502.129 376.709 498.89 374.599 496.367 374.459C493.844 374.319 497.197 365.011 488.624 361.617C480.05 358.222 478.65 351.31 463.633 359.19C456.583 363.286 453.15 358.187 448.477 361.02C443.803 363.854 447.29 370.509 445.241 372.731C443.192 374.952 441.186 375.245 440.914 377.147Z"
                        fill="#172C57" />
                </g>
                <path id="paint-head" fill-rule="evenodd" clip-rule="evenodd"
                    d="M314.687 432.117C315.235 433.718 314.011 435.589 311.955 436.294C309.9 436.998 305.01 435.433 305.01 435.433C305.01 435.433 307.912 431.197 309.968 430.493C312.024 429.789 314.138 430.516 314.687 432.117Z"
                    fill="#F7C4C1" />
            </g>
        </g>
    </g>
    <defs>
        <filter id="filter0_d_150518_57503" x="460.658" y="849.612" width="238.672" height="334.161"
            filterUnits="userSpaceOnUse" color-interpolation-filters="sRGB">
            <feFlood flood-opacity="0" result="BackgroundImageFix" />
            <feColorMatrix in="SourceAlpha" type="matrix" values="0 0 0 0 0 0 0 0 0 0 0 0 0 0 0 0 0 0 127 0"
                result="hardAlpha" />
            <feOffset dx="-8" dy="12" />
            <feGaussianBlur stdDeviation="6" />
            <feComposite in2="hardAlpha" operator="out" />
            <feColorMatrix type="matrix" values="0 0 0 0 0 0 0 0 0 0 0 0 0 0 0 0 0 0 0.01 0" />
            <feBlend mode="normal" in2="BackgroundImageFix" result="effect1_dropShadow_150518_57503" />
            <feBlend mode="normal" in="SourceGraphic" in2="effect1_dropShadow_150518_57503" result="shape" />
        </filter>
        <filter id="filter1_d_150518_57503" x="628.615" y="489.763" width="567.955" height="524.1"
            filterUnits="userSpaceOnUse" color-interpolation-filters="sRGB">
            <feFlood flood-opacity="0" result="BackgroundImageFix" />
            <feColorMatrix in="SourceAlpha" type="matrix" values="0 0 0 0 0 0 0 0 0 0 0 0 0 0 0 0 0 0 127 0"
                result="hardAlpha" />
            <feOffset dx="-8" dy="12" />
            <feGaussianBlur stdDeviation="6" />
            <feComposite in2="hardAlpha" operator="out" />
            <feColorMatrix type="matrix" values="0 0 0 0 0 0 0 0 0 0 0 0 0 0 0 0 0 0 0.01 0" />
            <feBlend mode="normal" in2="BackgroundImageFix" result="effect1_dropShadow_150518_57503" />
            <feBlend mode="normal" in="SourceGraphic" in2="effect1_dropShadow_150518_57503" result="shape" />
        </filter>
        <linearGradient id="paint0_linear_150518_57503" x1="-0.000188602" y1="1092.76" x2="1374" y2="1092.76"
            gradientUnits="userSpaceOnUse">
            <stop stop-color="#FFF7F7" />
            <stop offset="1" stop-color="#FFC3BF" />
        </linearGradient>
        <linearGradient id="paint1_linear_150518_57503" x1="1015" y1="226" x2="92.5" y2="1115.5"
            gradientUnits="userSpaceOnUse">
            <stop stop-color="white" stop-opacity="0" />
            <stop offset="0.115917" stop-color="white" stop-opacity="0.25" />
            <stop offset="0.45" stop-color="white" stop-opacity="0.56" />
            <stop offset="0.75" stop-color="white" stop-opacity="0.72" />
            <stop offset="0.845604" stop-color="white" stop-opacity="0" />
            <stop offset="1" stop-color="white" stop-opacity="0" />
        </linearGradient>
        <linearGradient id="paint2_linear_150518_57503" x1="502.516" y1="818.129" x2="775.695" y2="989.65"
            gradientUnits="userSpaceOnUse">
            <stop stop-color="white" stop-opacity="0.24" />
            <stop offset="1" stop-color="white" stop-opacity="0.62" />
        </linearGradient>
        <linearGradient id="paint3_linear_150518_57503" x1="704" y1="439" x2="1193" y2="921.5"
            gradientUnits="userSpaceOnUse">
            <stop stop-color="white" stop-opacity="0.24" />
            <stop offset="1" stop-color="white" stop-opacity="0.62" />
        </linearGradient>
        <linearGradient id="paint4_linear_150518_57503" x1="112.5" y1="694" x2="358.092" y2="495.638"
            gradientUnits="userSpaceOnUse">
            <stop stop-color="#FFC3BF" stop-opacity="0" />
            <stop offset="0.412" stop-color="#FFC3BF" stop-opacity="0.25" />
            <stop offset="0.765626" stop-color="#FFC3BF" stop-opacity="0.48" />
            <stop offset="1" stop-color="#FFC3BF" />
        </linearGradient>
        <linearGradient id="paint5_linear_150518_57503" x1="361.641" y1="409.435" x2="363.65" y2="422.996"
            gradientUnits="userSpaceOnUse">
            <stop stop-color="#FF9990" />
            <stop offset="1" stop-color="#FFB9B3" />
        </linearGradient>
    </defs>
</svg>