<?xml version="1.0" encoding="UTF-8"?>
<svg width="100%" height="562px" viewBox="0 0 415 562" version="1.1" xmlns="http://www.w3.org/2000/svg" xmlns:xlink="http://www.w3.org/1999/xlink">
    <!-- Generator: Sketch 60.1 (88133) - https://sketch.com -->
    <title>human-555</title>
    <desc>Created with Sketch.</desc>
    <defs>
        <path d="M135.522971,139.683361 C135.522971,139.683361 157.912131,170.950498 64.036322,200.083796 C9.73217865,216.936408 1.61227325,309.779853 0.549954532,362.589193 C-0.512168407,415.398533 -1.6694419,427.833105 21.3421124,429.040499 C44.3536666,430.248089 44.1774619,422.068665 47.4525204,401.908299 C50.7275789,381.747737 47.667686,308.220442 70.2923729,304.813229 C82.9317338,302.909631 79.4924133,338.867338 80.8161024,357.868473 C81.7644754,371.483225 84.6395492,421.098952 87.6673338,440.194258 C90.7411273,459.578736 131.743772,467.08819 176.897799,475.594375 C222.051827,484.100561 282.127067,478.428335 280.589974,443.566425 C279.053077,408.704711 253.728542,307.897008 263.813913,274.43573 C273.899089,240.974453 384.051712,156.097027 388.957839,114.67991 C392.604298,83.8975315 392.922641,30.5492009 388.69921,7.28782752 C387.226334,-0.824246558 382.29593,0.228283013 377.035044,0.194608332 C356.54635,0.0630421358 348.508673,-1.06858378 348.00277,12.232328 C347.496867,25.5332397 348.763779,67.2174047 337.14014,109.259265 C332.997176,124.243911 268.059077,179.12816 255.222171,181.063279 C239.360221,183.454573 196.371946,169.583345 188.007703,159.642462 C179.64346,149.701383 184.877132,142.922591 183.614136,135.817821 C182.350944,128.71305 152.764604,120.026745 145.56762,125.390612 C138.370636,130.754284 135.522971,139.683361 135.522971,139.683361 L135.522971,139.683361 Z" id="path-11111"></path>
        <path d="M18.7971287,18.1236351 C18.7971287,18.1236351 26.1820646,29.9951349 4.1811424,55.4986156 C-10.983428,73.0775823 18.7017824,97.4230064 41.5559271,95.9693174 C57.2277713,94.9723902 96.2674949,86.9284486 104.95987,71.5882608 C107.876058,66.4415165 107.129342,57.7199699 99.9141497,51.5506508 C92.5205993,45.2288168 78.6078656,41.5095265 77.8151401,40.5672228 C68.4095275,29.3887949 74.2947654,21.7661784 72.8745553,13.7768603 C71.4541494,5.78773794 38.1849349,-3.97968166 30.0920475,2.05161037 C21.999356,8.08309819 18.7971287,18.1236351 18.7971287,18.1236351 L18.7971287,18.1236351 Z" id="path-33334"></path>
        <path d="M8.31998676,49.7608809 C8.31998676,49.7608809 -2.34059502,96.0093357 26.670926,109.998621 C55.682447,123.987905 75.0647712,114.824672 85.0700672,106.562433 C95.0753632,98.3003887 97.2961301,89.4852578 100.530662,80.755684 C103.765193,72.0259145 118.321661,70.4849063 112.739887,39.2674979 C107.158113,8.05008945 73.6486725,-3.22309744 58.3950209,0.774792044 C43.1413692,4.77268152 16.5595156,17.3511539 13.0179964,28.8377443 C9.47628134,40.3241389 8.31998676,49.7608809 8.31998676,49.7608809 L8.31998676,49.7608809 Z" id="path-555"></path>
    </defs>
    <g id="Page-555" stroke="none" stroke-width="1" fill="none" fill-rule="evenodd">
        <g id="human-555" transform="translate(-1.000000, 0.000000)">
            <path d="M88.747691,275.416119 C88.747691,275.416119 80.8650746,255.287665 101.189115,249.397141 C121.51296,243.506617 118.18504,246.188062 127.731225,234.211231 C137.277214,222.234595 185.431421,199.499878 206.283096,223.65598 C227.134772,247.812082 220.22089,246.221736 231.555749,250.748632 C242.890412,255.275527 243.722685,262.192933 237.20037,270.881979 C230.678249,279.571026 110.050255,294.218534 101.768633,288.293943 C93.4872066,282.369157 88.747691,275.416119 88.747691,275.416119 Z" id="Hood" fill="#ECA63D"></path>
            <path d="M347.709905,83.71027 C347.709905,83.71027 352.466062,94.9666195 359.171044,95.6518601 C374.712888,97.2398563 389.008182,97.4986814 391.305304,75.1821569 C393.313255,55.6757063 391.848015,57.6924673 392.375454,53.4619876 C392.902894,49.2317036 399.810119,33.6293624 398.78911,26.0997428 C398.16006,21.4606639 395.010498,22.4239164 393.63199,25.2007071 C392.253286,27.9774978 387.551948,45.0540853 385.73469,44.3709983 C383.984781,43.7133631 391.786539,18.0904548 390.428196,14.4518272 C389.069853,10.8131996 387.06993,11.1221452 385.016949,11.9969038 C383.342808,12.7103371 381.777523,18.6554846 379.942057,27.6100131 C378.106591,36.5645416 376.840266,40.5248407 375.377767,40.4522052 C373.651744,40.3664522 373.296202,35.027449 374.301744,20.9522154 C375.307285,6.87698175 375.582361,0.219771372 371.31292,0.0151781049 C365.16083,-0.279671139 366.420694,9.15061008 366.244097,11.7412111 C366.067501,14.3318122 366.127019,20.3433301 365.747787,25.2662944 C365.387547,29.9423763 364.045062,39.9580488 362.477036,39.7636363 C360.070275,39.4654587 361.018648,20.3159205 360.479462,14.2850201 C359.824176,6.95333713 351.76046,9.64280862 351.746168,15.7277452 C351.732072,21.7801818 352.08174,25.5533124 352.058442,29.1995755 C352.034361,32.9597844 352.12305,34.7277052 351.19406,39.3511214 C350.264874,43.9747335 348.808835,48.1104542 347.579905,52.247937 C346.479409,55.9535224 342.469968,54.4038997 341.608914,52.5991717 C340.747861,50.7944438 336.266583,37.2313786 330.288152,36.0703852 C325.81451,35.2015001 323.203548,37.1385774 323.822613,42.0634995 C324.288185,45.7686934 328.223229,50.0982393 330.438709,58.7794547 C332.654386,67.4604742 340.009563,74.5905006 343.615299,78.3879083 C346.251713,81.1641116 347.709905,83.71027 347.709905,83.71027 L347.709905,83.71027 Z" id="Hand" fill="#FCB8AC"></path>
            <path d="M136.42869,221.979098 C136.42869,221.979098 158.81785,253.246236 64.9420408,282.379534 C10.6378974,299.232145 2.51799202,392.075591 1.4556733,444.884931 C0.393550357,497.694271 -0.763723135,510.128843 22.2478311,511.336236 C45.2593854,512.543826 45.0831806,504.364403 48.3582392,484.204037 C51.6332977,464.043475 48.5734047,390.516179 71.1980917,387.108967 C83.8374526,385.205369 80.3981321,421.163076 81.7218212,440.16421 C82.6701942,453.778962 85.545268,503.394689 88.5730525,522.489996 C91.6468461,541.874474 132.64949,549.383927 177.803518,557.890113 C222.957546,566.396298 283.032785,560.724072 281.495693,525.862163 C279.958796,491.000449 254.634261,390.192746 264.719632,356.731468 C274.804808,323.27019 384.957431,238.392765 389.863558,196.975648 C393.510017,166.193269 393.82836,112.844938 389.604929,89.5835651 C388.132053,81.471491 383.201649,82.5240206 377.940763,82.4903459 C357.452069,82.3587797 349.414392,81.2271538 348.908489,94.5280655 C348.402586,107.828977 349.669498,149.513142 338.045859,191.555003 C333.902894,206.539649 268.964796,261.423897 256.12789,263.359017 C240.26594,265.75031 197.277664,251.879083 188.913422,241.938199 C180.549179,231.99712 185.782851,225.218329 184.519855,218.113558 C183.256663,211.008788 153.670323,202.322482 146.473339,207.68635 C139.276354,213.050022 136.42869,221.979098 136.42869,221.979098 L136.42869,221.979098 Z" id="Body" fill="#FFB233"></path>
            <g id="Clipped" transform="translate(0.905719, 82.295738)">
                <mask id="mask-222" fill="white">
                    <use xlink:href="#path-11111"></use>
                </mask>
                <g id="Path"></g>
                <path d="M284.887803,243.962493 C284.887803,243.962493 250.594447,259.62631 251.211947,287.183946 C251.829251,314.741583 273.367538,463.73149 230.809398,483.914567 C188.251257,504.098427 274.682808,566.420081 330.513864,499.077571 C386.344919,431.735061 301.744722,447.604059 284.655017,354.294649 C270.861711,278.982791 269.252375,279.435833 272.106695,268.436547 C274.961016,257.43726 284.887803,243.962493 284.887803,243.962493 L284.887803,243.962493 Z" id="Path" fill="#ECA63D" mask="url(#mask-222)"></path>
                <path d="M114.125844,191.354418 C114.125844,191.354418 68.5042865,203.229638 50.3579406,221.499327 C32.2113988,239.769016 16.7065575,284.256207 11.6122831,322.281383 C6.51781286,360.306559 6.58437909,401.893616 -10.3745428,404.556852 C-27.3336604,407.219893 -11.0396177,358.561349 -2.50210713,307.652671 C6.03520769,256.743797 22.9025031,204.506926 66.0423149,191.923755 C109.182127,179.340388 115.106521,174.064623 115.001386,176.851007 C114.89625,179.637195 116.106973,184.63025 115.849322,186.838487 C115.591867,189.046528 114.125844,191.354418 114.125844,191.354418 Z" id="Path" fill="#ECA63D" mask="url(#mask-222)"></path>
                <path d="M344.973615,1.70585754 C344.973615,1.70585754 353.629966,-8.62815815 353.189846,11.4143465 C352.74953,31.4570468 349.925751,106.507535 338.957986,119.545901 C327.99022,132.584072 280.344071,180.589484 260.688629,182.48486 C244.459586,184.049753 236.289169,180.098852 231.544759,177.000194 C226.800153,173.901536 244.571966,182.630914 259.804473,172.685136 C275.03698,162.739162 328.763759,127.895069 334.825398,92.406262 C340.887232,56.9174552 344.445001,9.06260069 344.445001,9.06260069 L344.973615,1.70585754 Z" id="Path" fill="#ECA63D" mask="url(#mask-222)"></path>
                <path d="M131.763937,137.551284 C131.763937,137.551284 139.148873,149.422783 117.147951,174.926264 C101.98338,192.505231 131.668591,216.850655 154.522736,215.396966 C170.19458,214.400039 209.234303,206.356097 217.926678,191.015909 C220.842867,185.869165 220.09615,177.147618 212.880958,170.978299 C205.487408,164.656465 191.574674,160.937175 190.781949,159.994871 C181.376336,148.816443 187.261574,141.193827 185.841364,133.204509 C184.420958,125.215386 151.151743,115.447967 143.058856,121.479259 C134.966164,127.510747 131.763937,137.551284 131.763937,137.551284 L131.763937,137.551284 Z" id="Path" fill="#FCB8AC" mask="url(#mask-222)"></path>
                <g mask="url(#mask-222)">
                    <g transform="translate(112.966808, 119.427648)">
                        <mask id="mask-4444" fill="white">
                            <use xlink:href="#path-33334"></use>
                        </mask>
                        <g id="Path" stroke="none" fill="none"></g>
                        <path d="M72.2400225,26.5873355 C72.2400225,26.5873355 76.5646739,26.8861004 71.6334867,28.9161747 C41.1819815,41.4529452 36.9207639,27.7246391 31.9588387,36.8493031 C29.1769577,41.9651136 6.15796365,78.6542662 -17.8622648,78.7905312 C-41.8822974,78.9269919 -13.3091346,58.0874546 -3.16561582,51.4030304 C6.97809877,44.7184104 18.3687555,34.6649518 20.2185135,27.7350156 C22.0682716,20.8050795 14.4395858,20.6065555 27.8479825,19.6918572 C41.2561833,18.7773547 63.5993343,21.762067 66.4415165,23.2645059 C69.283503,24.7667491 72.2400225,26.5873355 72.2400225,26.5873355 Z" id="Path" stroke="none" fill-opacity="0.34" fill="#F48A8B" fill-rule="evenodd" mask="url(#mask-4444)"></path>
                    </g>
                </g>
                <path d="M140.901131,231.998975 C142.266326,232.398764 142.226191,234.214652 140.29577,234.753251 C134.472204,236.452256 131.424645,243.521002 129.932779,249.445005 C127.197298,260.306461 128.086349,271.723939 128.783532,283.093843 C129.589571,296.242632 131.906076,309.750682 129.827447,322.187407 C128.937418,327.512706 126.424151,332.763998 121.404078,334.941497 C119.802965,335.636135 118.278794,333.430835 120.613898,332.359706 C125.996561,329.800039 127.325732,322.598551 127.656213,317.504864 C129.12811,294.817135 121.66956,271.28656 127.334934,248.790698 C127.65543,247.517913 128.028984,246.257658 128.468126,245.020505 C128.699541,244.368939 128.948969,243.723638 129.218954,243.086951 C129.443908,242.556379 129.683351,242.031877 129.938065,241.515009 C132.132205,237.06447 135.749688,232.591806 140.460424,231.982921 C140.460424,231.982921 140.663255,231.970587 140.901131,231.998975 L140.901131,231.998975 Z" id="Path" fill="#FFFFFF" mask="url(#mask-222)"></path>
                <path d="M193.406224,227.339339 C194.660019,227.648481 194.836811,229.232953 193.380773,230.066988 C188.173727,233.199517 189.179464,242.430882 191.241256,250.054478 C196.2255,268.482947 202.932635,286.743826 203.766083,305.78862 C204.172725,315.081658 203.367469,324.86337 197.102412,331.908426 C195.297684,333.938109 192.72118,337.206511 190.674855,336.01615 C188.566272,334.789765 193.263303,332.348938 195.475259,329.69275 C200.98988,323.070584 201.439594,313.901086 201.089729,305.905699 C200.237094,286.419805 192.762881,267.485433 188.195655,248.983936 C186.396213,241.694738 185.906755,232.903493 190.904509,228.567682 C191.972897,227.640845 193.173243,227.323677 193.173243,227.323677 C193.250773,227.328963 193.328498,227.334249 193.406224,227.339339 L193.406224,227.339339 Z" id="Path" fill="#FFFFFF" mask="url(#mask-222)"></path>
            </g>
            <g id="Head" transform="translate(95.273139, 91.105974)">
                <g id="Face" transform="translate(7.971119, 28.045253)">
                    <mask id="mask-6666" fill="white">
                        <use xlink:href="#path-555"></use>
                    </mask>
                    <use id="Path" fill="#FCB8AC" xlink:href="#path-555"></use>
                    <path d="M52.5963191,32.5818989 C52.5963191,32.5818989 33.1423383,60.5716283 37.0370501,71.2310354 C40.9315661,81.8902467 46.6357047,79.2117391 47.7847553,86.0608168 C48.9353722,92.9181174 52.9199484,125.448251 36.1143247,116.587307 C29.0222802,112.847851 6.24233724,108.826859 2.0063756,70.469831 C-2.22939026,32.1128028 -0.85773435,11.4762925 16.963416,12.6834906 C34.7847621,13.890493 50.4088353,18.4493009 51.3685637,23.9286806 C52.3282921,29.4078644 52.5963191,32.5818989 52.5963191,32.5818989 Z" id="Path" fill-opacity="0.34" fill="#F48A8B" mask="url(#mask-6666)"></path>
                    <path d="M60.280803,92.8292319 C60.8262545,92.9224247 60.88264,93.0653463 61.0228207,93.2395932 C61.921269,94.3557522 59.6985443,95.9934773 57.7293586,97.0595159 C51.7904761,100.274077 44.0505856,99.8533397 37.3808451,98.2277532 C37.3808451,98.2277532 36.3709962,97.7864583 36.5088275,97.0019557 C36.7645201,95.5455257 39.7388559,96.6190041 42.2850142,96.9273623 C48.4284899,97.6711421 55.2350828,97.4087928 59.3110897,93.1638251 C59.3110897,93.1638251 59.6693726,92.7765663 60.280803,92.8292319 L60.280803,92.8292319 Z" id="Lips" fill="#172C57" mask="url(#mask-6666)"></path>
                </g>
                <g id="Eyes" transform="translate(29.367455, 80.662608)" fill="#172C57">
                    <path d="M48.156752,3.20692604 C50.1302449,3.33418501 51.6293556,5.03965098 51.5020966,7.01333971 C51.3750334,8.98683266 49.6693717,10.4859433 47.6956829,10.3586844 C45.72219,10.2314254 44.2230793,8.5259594 44.3503383,6.55227068 C44.4775973,4.57877773 46.1830632,3.07966707 48.156752,3.20692604 Z" id="Path"></path>
                    <path d="M3.99005816,0.166415576 C5.9635511,0.293674545 7.46266177,1.99914052 7.3354028,3.97282925 C7.20814383,5.94651798 5.50267785,7.44543286 3.52898912,7.31817389 C1.55549618,7.1911107 0.0563855127,5.48544894 0.183644482,3.51176021 C0.310903452,1.53826727 2.01636943,0.0391566061 3.99005816,0.166415576 Z" id="Path"></path>
                </g>
                <path d="M0.133132461,56.7285246 C0.582258732,63.1404188 5.34546408,69.1092561 7.75888149,74.4394491 C10.1722989,79.7696421 17.6279125,82.6366888 24.4114029,72.2780044 C31.1950891,61.9193201 35.7309904,60.3428751 42.2762129,64.2526622 C48.8214354,68.1624494 61.9089436,73.6974314 73.7205338,58.6935989 C77.3742367,54.0525621 88.0696679,56.9313558 85.9178166,65.111954 C84.4864469,70.5537433 91.1524675,74.9379127 94.2188213,72.8657451 C98.5587437,69.9329153 105.804674,73.3264226 97.8738947,88.1704961 C95.0338661,93.486397 100.427884,97.5966659 101.156785,98.3167559 C101.885881,99.0368459 104.403455,97.6951448 103.565503,90.5402539 C102.727748,83.3853631 106.106375,75.5483642 110.781478,74.52344 C115.456777,73.4983201 120.708853,78.0972634 119.067799,85.2885699 C117.426746,92.4796806 111.028361,100.34174 107.574944,103.769901 C104.121527,107.197866 107.333543,108.173844 106.73758,110.896207 C106.14142,113.618766 102.521784,124.943444 99.9239388,126.594678 C97.325898,128.245912 108.968723,132.346196 111.554626,122.201698 C112.669023,117.829863 116.245,110.883285 125.66373,109.361856 C136.194507,107.660893 133.490744,95.4123147 140.736282,89.3931612 C147.981625,83.3742035 150.525238,70.1498429 142.096582,57.7738102 C134.036978,45.9393134 137.953814,44.8329435 132.623425,33.4886873 C127.830069,23.2874125 119.104019,23.245515 118.093974,21.9752747 C111.676207,13.9035319 110.826704,0.236310118 87.9545475,2.11563143 C76.495954,3.0573478 70.405144,4.00141357 58.7217916,0.494156369 C47.0384393,-3.01290505 44.4214075,14.8411368 26.8543836,13.4487279 C17.3166175,12.6926139 4.43546455,21.3301696 4.81508785,32.4073777 C5.19490693,43.4845857 -0.357499813,49.723212 0.133132461,56.7285246 L0.133132461,56.7285246 Z" id="Hair" fill="#172C57"></path>
            </g>
        </g>
    </g>
</svg>