<svg width="100%" height="562px" viewBox="0 0 415 562" version="1.1" xmlns="http://www.w3.org/2000/svg" xmlns:xlink="http://www.w3.org/1999/xlink">
    <g id="human-2" clip-path="url(#clip0_150563_36651)">
        <path id="Hood" fill-rule="evenodd" clip-rule="evenodd"
            d="M87.7476 275.416C87.7476 275.416 79.865 255.288 100.189 249.397C120.513 243.507 117.185 246.188 126.731 234.211C136.277 222.235 184.431 199.5 205.283 223.656C226.135 247.812 219.221 246.222 230.556 250.749C241.89 255.276 242.723 262.193 236.2 270.882C229.678 279.571 109.05 294.219 100.769 288.294C92.4872 282.369 87.7476 275.416 87.7476 275.416Z"
            fill="#ECA63D" />
        <path id="Hand" fill-rule="evenodd" clip-rule="evenodd"
            d="M346.71 83.7102C346.71 83.7102 351.466 94.9665 358.171 95.6517C373.713 97.2397 388.008 97.4986 390.305 75.182C392.313 55.6756 390.848 57.6924 391.376 53.4619C391.903 49.2316 398.81 33.6292 397.789 26.0996C397.16 21.4605 394.011 22.4238 392.632 25.2006C391.253 27.9774 386.552 45.054 384.735 44.3709C382.985 43.7132 390.787 18.0903 389.428 14.4517C388.07 10.8131 386.07 11.122 384.017 11.9968C382.343 12.7102 380.778 18.6554 378.942 27.6099C377.107 36.5644 375.84 40.5247 374.378 40.4521C372.652 40.3663 372.296 35.0273 373.302 20.9521C374.307 6.87687 374.582 0.219657 370.313 0.0150641C364.161 -0.279785 365.421 9.1505 365.244 11.7411C365.068 14.3317 365.127 20.3432 364.748 25.2662C364.388 29.9423 363.045 39.9579 361.477 39.7635C359.07 39.4653 360.019 20.3158 359.48 14.2849C358.824 6.95322 350.76 9.64269 350.746 15.7276C350.732 21.7801 351.082 25.5532 351.058 29.1995C351.034 32.9597 351.123 34.7276 350.194 39.351C349.265 43.9746 347.809 48.1103 346.58 52.2478C345.479 55.9534 341.47 54.4038 340.609 52.5991C339.748 50.7943 335.267 37.2313 329.288 36.0703C324.815 35.2014 322.204 37.1385 322.823 42.0634C323.288 45.7686 327.223 50.0981 329.439 58.7793C331.654 67.4604 339.01 74.5904 342.615 78.3878C345.252 81.164 346.71 83.7102 346.71 83.7102Z"
            fill="#FCB8AC" />
        <path id="Body" fill-rule="evenodd" clip-rule="evenodd"
            d="M135.429 221.979C135.429 221.979 157.818 253.246 63.9421 282.38C9.63793 299.232 1.51802 392.076 0.455706 444.885C-0.606417 497.694 -1.76369 510.129 21.2479 511.336C44.2594 512.544 44.0832 504.364 47.3583 484.204C50.6333 464.044 47.5734 390.516 70.1981 387.109C82.8375 385.205 79.3982 421.163 80.7219 440.164C81.6702 453.779 84.5453 503.395 87.5731 522.49C90.6469 541.874 131.65 549.384 176.804 557.89C221.958 566.396 282.033 560.724 280.496 525.862C278.959 491 253.634 390.193 263.72 356.732C273.805 323.27 383.957 238.393 388.864 196.976C392.51 166.193 392.828 112.845 388.605 89.5836C387.132 81.4715 382.202 82.5241 376.941 82.4904C356.452 82.3588 348.414 81.2272 347.909 94.5281C347.403 107.829 348.67 149.513 337.046 191.555C332.903 206.54 267.965 261.424 255.128 263.359C239.266 265.75 196.278 251.879 187.913 241.938C179.549 231.997 184.783 225.218 183.52 218.114C182.257 211.009 152.67 202.323 145.473 207.686C138.276 213.05 135.429 221.979 135.429 221.979Z"
            fill="#FFB233" />
        <g id="Clipped">
            <g id="Mask group">
                <mask id="mask0_150563_36651" style="mask-type:luminance" maskUnits="userSpaceOnUse" x="-1" y="82"
                    width="393" height="480">
                    <g id="Group">
                        <path id="Vector"
                            d="M135.429 221.979C135.429 221.979 157.818 253.246 63.9421 282.38C9.63793 299.232 1.51802 392.076 0.455706 444.885C-0.606417 497.694 -1.76369 510.129 21.2479 511.336C44.2594 512.544 44.0832 504.364 47.3583 484.204C50.6333 464.044 47.5734 390.516 70.1981 387.109C82.8375 385.205 79.3982 421.163 80.7219 440.164C81.6702 453.779 84.5453 503.395 87.5731 522.49C90.6469 541.874 131.65 549.384 176.804 557.89C221.958 566.396 282.033 560.724 280.496 525.862C278.959 491 253.634 390.193 263.72 356.732C273.805 323.27 383.957 238.393 388.864 196.976C392.51 166.193 392.828 112.845 388.605 89.5836C387.132 81.4715 382.202 82.5241 376.941 82.4904C356.452 82.3588 348.414 81.2272 347.909 94.5281C347.403 107.829 348.67 149.513 337.046 191.555C332.903 206.54 267.965 261.424 255.128 263.359C239.266 265.75 196.278 251.879 187.913 241.938C179.549 231.997 184.783 225.218 183.52 218.114C182.257 211.009 152.67 202.323 145.473 207.686C138.276 213.05 135.429 221.979 135.429 221.979Z"
                            fill="white" />
                    </g>
                </mask>
                <g mask="url(#mask0_150563_36651)">
                    <path id="Path" fill-rule="evenodd" clip-rule="evenodd"
                        d="M284.794 326.258C284.794 326.258 250.5 341.922 251.118 369.48C251.735 397.037 273.273 546.027 230.715 566.21C188.157 586.394 274.589 648.716 330.42 581.373C386.251 514.031 301.651 529.9 284.561 436.59C270.768 361.279 269.158 361.732 272.013 350.732C274.867 339.733 284.794 326.258 284.794 326.258Z"
                        fill="#ECA63D" />
                </g>
            </g>
            <g id="Mask group_2">
                <mask id="mask1_150563_36651" style="mask-type:luminance" maskUnits="userSpaceOnUse" x="-1" y="82"
                    width="393" height="480">
                    <g id="Group_2">
                        <path id="Vector_2"
                            d="M135.429 221.979C135.429 221.979 157.818 253.246 63.9421 282.38C9.63793 299.232 1.51802 392.076 0.455706 444.885C-0.606417 497.694 -1.76369 510.129 21.2479 511.336C44.2594 512.544 44.0832 504.364 47.3583 484.204C50.6333 464.044 47.5734 390.516 70.1981 387.109C82.8375 385.205 79.3982 421.163 80.7219 440.164C81.6702 453.779 84.5453 503.395 87.5731 522.49C90.6469 541.874 131.65 549.384 176.804 557.89C221.958 566.396 282.033 560.724 280.496 525.862C278.959 491 253.634 390.193 263.72 356.732C273.805 323.27 383.957 238.393 388.864 196.976C392.51 166.193 392.828 112.845 388.605 89.5836C387.132 81.4715 382.202 82.5241 376.941 82.4904C356.452 82.3588 348.414 81.2272 347.909 94.5281C347.403 107.829 348.67 149.513 337.046 191.555C332.903 206.54 267.965 261.424 255.128 263.359C239.266 265.75 196.278 251.879 187.913 241.938C179.549 231.997 184.783 225.218 183.52 218.114C182.257 211.009 152.67 202.323 145.473 207.686C138.276 213.05 135.429 221.979 135.429 221.979Z"
                            fill="white" />
                    </g>
                </mask>
                <g mask="url(#mask1_150563_36651)">
                    <path id="Path_2" fill-rule="evenodd" clip-rule="evenodd"
                        d="M114.031 273.65C114.031 273.65 68.4099 285.525 50.2636 303.795C32.117 322.065 16.6122 366.552 11.5179 404.577C6.42345 442.602 6.49001 484.189 -10.4689 486.852C-27.428 489.515 -11.134 440.857 -2.59647 389.948C5.94084 339.039 22.8081 286.803 65.948 274.219C109.088 261.636 115.012 256.36 114.907 259.147C114.802 261.933 116.013 266.926 115.755 269.134C115.498 271.342 114.031 273.65 114.031 273.65Z"
                        fill="#ECA63D" />
                </g>
            </g>
            <g id="Mask group_3">
                <mask id="mask2_150563_36651" style="mask-type:luminance" maskUnits="userSpaceOnUse" x="-1" y="82"
                    width="393" height="480">
                    <g id="Group_3">
                        <path id="Vector_3"
                            d="M135.429 221.979C135.429 221.979 157.818 253.246 63.9421 282.38C9.63793 299.232 1.51802 392.076 0.455706 444.885C-0.606417 497.694 -1.76369 510.129 21.2479 511.336C44.2594 512.544 44.0832 504.364 47.3583 484.204C50.6333 464.044 47.5734 390.516 70.1981 387.109C82.8375 385.205 79.3982 421.163 80.7219 440.164C81.6702 453.779 84.5453 503.395 87.5731 522.49C90.6469 541.874 131.65 549.384 176.804 557.89C221.958 566.396 282.033 560.724 280.496 525.862C278.959 491 253.634 390.193 263.72 356.732C273.805 323.27 383.957 238.393 388.864 196.976C392.51 166.193 392.828 112.845 388.605 89.5836C387.132 81.4715 382.202 82.5241 376.941 82.4904C356.452 82.3588 348.414 81.2272 347.909 94.5281C347.403 107.829 348.67 149.513 337.046 191.555C332.903 206.54 267.965 261.424 255.128 263.359C239.266 265.75 196.278 251.879 187.913 241.938C179.549 231.997 184.783 225.218 183.52 218.114C182.257 211.009 152.67 202.323 145.473 207.686C138.276 213.05 135.429 221.979 135.429 221.979Z"
                            fill="white" />
                    </g>
                </mask>
                <g mask="url(#mask2_150563_36651)">
                    <path id="Path_3" fill-rule="evenodd" clip-rule="evenodd"
                        d="M344.879 84.0014C344.879 84.0014 353.536 73.6674 353.096 93.7099C352.655 113.753 349.832 188.803 338.864 201.841C327.896 214.88 280.25 262.885 260.594 264.78C244.365 266.345 236.195 262.394 231.451 259.296C226.706 256.197 244.478 264.926 259.71 254.981C274.943 245.035 328.67 210.191 334.731 174.702C340.793 139.213 344.351 91.3581 344.351 91.3581L344.879 84.0014Z"
                        fill="#ECA63D" />
                </g>
            </g>
            <g id="Mask group_4">
                <mask id="mask3_150563_36651" style="mask-type:luminance" maskUnits="userSpaceOnUse" x="-1" y="82"
                    width="393" height="480">
                    <g id="Group_4">
                        <path id="Vector_4"
                            d="M135.429 221.979C135.429 221.979 157.818 253.246 63.9421 282.38C9.63793 299.232 1.51802 392.076 0.455706 444.885C-0.606417 497.694 -1.76369 510.129 21.2479 511.336C44.2594 512.544 44.0832 504.364 47.3583 484.204C50.6333 464.044 47.5734 390.516 70.1981 387.109C82.8375 385.205 79.3982 421.163 80.7219 440.164C81.6702 453.779 84.5453 503.395 87.5731 522.49C90.6469 541.874 131.65 549.384 176.804 557.89C221.958 566.396 282.033 560.724 280.496 525.862C278.959 491 253.634 390.193 263.72 356.732C273.805 323.27 383.957 238.393 388.864 196.976C392.51 166.193 392.828 112.845 388.605 89.5836C387.132 81.4715 382.202 82.5241 376.941 82.4904C356.452 82.3588 348.414 81.2272 347.909 94.5281C347.403 107.829 348.67 149.513 337.046 191.555C332.903 206.54 267.965 261.424 255.128 263.359C239.266 265.75 196.278 251.879 187.913 241.938C179.549 231.997 184.783 225.218 183.52 218.114C182.257 211.009 152.67 202.323 145.473 207.686C138.276 213.05 135.429 221.979 135.429 221.979Z"
                            fill="white" />
                    </g>
                </mask>
                <g mask="url(#mask3_150563_36651)">
                    <path id="Path_4" fill-rule="evenodd" clip-rule="evenodd"
                        d="M131.67 219.847C131.67 219.847 139.055 231.719 117.054 257.222C101.889 274.801 131.574 299.146 154.428 297.693C170.1 296.696 209.14 288.652 217.832 273.312C220.749 268.165 220.002 259.443 212.787 253.274C205.393 246.952 191.48 243.233 190.688 242.291C181.282 231.112 187.167 223.49 185.747 215.5C184.327 207.511 151.057 197.744 142.965 203.775C134.872 209.807 131.67 219.847 131.67 219.847Z"
                        fill="#FCB8AC" />
                </g>
            </g>
            <g id="Mask group_5">
                <mask id="mask4_150563_36651" style="mask-type:luminance" maskUnits="userSpaceOnUse" x="-1" y="82"
                    width="393" height="480">
                    <g id="Group_5">
                        <path id="Vector_5"
                            d="M135.429 221.979C135.429 221.979 157.818 253.246 63.9421 282.38C9.63793 299.232 1.51802 392.076 0.455706 444.885C-0.606417 497.694 -1.76369 510.129 21.2479 511.336C44.2594 512.544 44.0832 504.364 47.3583 484.204C50.6333 464.044 47.5734 390.516 70.1981 387.109C82.8375 385.205 79.3982 421.163 80.7219 440.164C81.6702 453.779 84.5453 503.395 87.5731 522.49C90.6469 541.874 131.65 549.384 176.804 557.89C221.958 566.396 282.033 560.724 280.496 525.862C278.959 491 253.634 390.193 263.72 356.732C273.805 323.27 383.957 238.393 388.864 196.976C392.51 166.193 392.828 112.845 388.605 89.5836C387.132 81.4715 382.202 82.5241 376.941 82.4904C356.452 82.3588 348.414 81.2272 347.909 94.5281C347.403 107.829 348.67 149.513 337.046 191.555C332.903 206.54 267.965 261.424 255.128 263.359C239.266 265.75 196.278 251.879 187.913 241.938C179.549 231.997 184.783 225.218 183.52 218.114C182.257 211.009 152.67 202.323 145.473 207.686C138.276 213.05 135.429 221.979 135.429 221.979Z"
                            fill="white" />
                    </g>
                </mask>
                <g mask="url(#mask4_150563_36651)">
                    <g id="Group_6">
                        <g id="Group_7">
                            <g id="Mask group_6">
                                <mask id="mask5_150563_36651" style="mask-type:luminance" maskUnits="userSpaceOnUse"
                                    x="112" y="201" width="108" height="97">
                                    <g id="Group_8">
                                        <path id="Vector_6"
                                            d="M131.67 219.847C131.67 219.847 139.055 231.719 117.054 257.222C101.889 274.801 131.574 299.146 154.428 297.693C170.1 296.696 209.14 288.652 217.832 273.312C220.749 268.165 220.002 259.443 212.787 253.274C205.393 246.952 191.48 243.233 190.688 242.291C181.282 231.112 187.167 223.49 185.747 215.5C184.327 207.511 151.057 197.744 142.965 203.775C134.872 209.807 131.67 219.847 131.67 219.847Z"
                                            fill="white" />
                                    </g>
                                </mask>
                                <g mask="url(#mask5_150563_36651)">
                                    <path id="Path_5" fill-rule="evenodd" clip-rule="evenodd"
                                        d="M185.113 228.311C185.113 228.311 189.437 228.61 184.506 230.64C154.054 243.177 149.793 229.448 144.831 238.573C142.049 243.689 119.03 280.378 95.0102 280.514C70.9902 280.651 99.5634 259.811 109.707 253.127C119.851 246.442 131.241 236.389 133.091 229.459C134.941 222.529 127.312 222.33 140.72 221.415C154.129 220.501 176.472 223.486 179.314 224.988C182.156 226.49 185.113 228.311 185.113 228.311Z"
                                        fill="#F48A8B" fill-opacity="0.34" />
                                </g>
                            </g>
                        </g>
                    </g>
                </g>
            </g>
            <g id="Mask group_7">
                <mask id="mask6_150563_36651" style="mask-type:luminance" maskUnits="userSpaceOnUse" x="-1" y="82"
                    width="393" height="480">
                    <g id="Group_9">
                        <path id="Vector_7"
                            d="M135.429 221.979C135.429 221.979 157.818 253.246 63.9421 282.38C9.63793 299.232 1.51802 392.076 0.455706 444.885C-0.606417 497.694 -1.76369 510.129 21.2479 511.336C44.2594 512.544 44.0832 504.364 47.3583 484.204C50.6333 464.044 47.5734 390.516 70.1981 387.109C82.8375 385.205 79.3982 421.163 80.7219 440.164C81.6702 453.779 84.5453 503.395 87.5731 522.49C90.6469 541.874 131.65 549.384 176.804 557.89C221.958 566.396 282.033 560.724 280.496 525.862C278.959 491 253.634 390.193 263.72 356.732C273.805 323.27 383.957 238.393 388.864 196.976C392.51 166.193 392.828 112.845 388.605 89.5836C387.132 81.4715 382.202 82.5241 376.941 82.4904C356.452 82.3588 348.414 81.2272 347.909 94.5281C347.403 107.829 348.67 149.513 337.046 191.555C332.903 206.54 267.965 261.424 255.128 263.359C239.266 265.75 196.278 251.879 187.913 241.938C179.549 231.997 184.783 225.218 183.52 218.114C182.257 211.009 152.67 202.323 145.473 207.686C138.276 213.05 135.429 221.979 135.429 221.979Z"
                            fill="white" />
                    </g>
                </mask>
                <g mask="url(#mask6_150563_36651)">
                    <path id="Path_6" fill-rule="evenodd" clip-rule="evenodd"
                        d="M140.807 314.295C142.172 314.694 142.132 316.51 140.201 317.049C134.378 318.748 131.33 325.817 129.838 331.741C127.103 342.602 127.992 354.02 128.689 365.389C129.495 378.538 131.812 392.046 129.733 404.483C128.843 409.808 126.33 415.06 121.31 417.237C119.709 417.932 118.184 415.726 120.52 414.655C125.902 412.096 127.231 404.894 127.562 399.8C129.034 377.113 121.575 353.582 127.241 331.086C127.561 329.814 127.935 328.553 128.374 327.316C128.605 326.665 128.855 326.019 129.125 325.383C129.35 324.852 129.589 324.328 129.844 323.811C132.038 319.36 135.655 314.887 140.366 314.279C140.366 314.279 140.569 314.266 140.807 314.295Z"
                        fill="white" />
                </g>
            </g>
            <g id="Mask group_8">
                <mask id="mask7_150563_36651" style="mask-type:luminance" maskUnits="userSpaceOnUse" x="-1" y="82"
                    width="393" height="480">
                    <g id="Group_10">
                        <path id="Vector_8"
                            d="M135.429 221.979C135.429 221.979 157.818 253.246 63.9421 282.38C9.63793 299.232 1.51802 392.076 0.455706 444.885C-0.606417 497.694 -1.76369 510.129 21.2479 511.336C44.2594 512.544 44.0832 504.364 47.3583 484.204C50.6333 464.044 47.5734 390.516 70.1981 387.109C82.8375 385.205 79.3982 421.163 80.7219 440.164C81.6702 453.779 84.5453 503.395 87.5731 522.49C90.6469 541.874 131.65 549.384 176.804 557.89C221.958 566.396 282.033 560.724 280.496 525.862C278.959 491 253.634 390.193 263.72 356.732C273.805 323.27 383.957 238.393 388.864 196.976C392.51 166.193 392.828 112.845 388.605 89.5836C387.132 81.4715 382.202 82.5241 376.941 82.4904C356.452 82.3588 348.414 81.2272 347.909 94.5281C347.403 107.829 348.67 149.513 337.046 191.555C332.903 206.54 267.965 261.424 255.128 263.359C239.266 265.75 196.278 251.879 187.913 241.938C179.549 231.997 184.783 225.218 183.52 218.114C182.257 211.009 152.67 202.323 145.473 207.686C138.276 213.05 135.429 221.979 135.429 221.979Z"
                            fill="white" />
                    </g>
                </mask>
                <g mask="url(#mask7_150563_36651)">
                    <path id="Path_7" fill-rule="evenodd" clip-rule="evenodd"
                        d="M193.312 309.635C194.566 309.944 194.743 311.529 193.286 312.363C188.079 315.495 189.085 324.727 191.147 332.35C196.131 350.779 202.838 369.04 203.672 388.085C204.078 397.378 203.273 407.159 197.008 414.204C195.203 416.234 192.627 419.502 190.581 418.312C188.472 417.086 193.169 414.645 195.381 411.989C200.896 405.367 201.345 396.197 200.995 388.202C200.143 368.716 192.669 349.781 188.101 331.28C186.302 323.991 185.812 315.199 190.81 310.864C191.879 309.937 193.079 309.62 193.079 309.62C193.156 309.625 193.234 309.63 193.312 309.635Z"
                        fill="white" />
                </g>
            </g>
        </g>
        <g id="Head">
            <g id="Face">
                <path id="Path_8"
                    d="M110.564 168.912C110.564 168.912 99.9037 215.16 128.915 229.149C157.927 243.139 177.309 233.976 187.314 225.713C197.32 217.451 199.54 208.636 202.775 199.907C206.01 191.177 220.566 189.636 214.984 158.418C209.402 127.201 175.893 115.928 160.639 119.926C145.386 123.924 118.804 136.502 115.262 147.989C111.721 159.475 110.564 168.912 110.564 168.912Z"
                    fill="#FCB8AC" />
                <g id="Mask group_9">
                    <mask id="mask8_150563_36651" style="mask-type:luminance" maskUnits="userSpaceOnUse" x="108" y="119"
                        width="109" height="118">
                        <g id="Group_11">
                            <path id="Vector_9"
                                d="M110.564 168.912C110.564 168.912 99.9037 215.16 128.915 229.149C157.927 243.139 177.309 233.976 187.314 225.713C197.32 217.451 199.54 208.636 202.775 199.907C206.01 191.177 220.566 189.636 214.984 158.418C209.402 127.201 175.893 115.928 160.639 119.926C145.386 123.924 118.804 136.502 115.262 147.989C111.721 159.475 110.564 168.912 110.564 168.912Z"
                                fill="white" />
                        </g>
                    </mask>
                    <g mask="url(#mask8_150563_36651)">
                        <path id="Path_9" fill-rule="evenodd" clip-rule="evenodd"
                            d="M154.841 151.733C154.841 151.733 135.387 179.722 139.281 190.382C143.176 201.041 148.88 198.363 150.029 205.212C151.18 212.069 155.164 244.599 138.359 235.738C131.267 231.999 108.487 227.978 104.251 189.621C100.015 151.264 101.387 130.627 119.208 131.834C137.029 133.041 152.653 137.6 153.613 143.079C154.573 148.559 154.841 151.733 154.841 151.733Z"
                            fill="#F48A8B" fill-opacity="0.34" />
                    </g>
                </g>
                <g id="Mask group_10">
                    <mask id="mask9_150563_36651" style="mask-type:luminance" maskUnits="userSpaceOnUse" x="108" y="119"
                        width="109" height="118">
                        <g id="Group_12">
                            <path id="Vector_10"
                                d="M110.564 168.912C110.564 168.912 99.9037 215.16 128.915 229.149C157.927 243.139 177.309 233.976 187.314 225.713C197.32 217.451 199.54 208.636 202.775 199.907C206.01 191.177 220.566 189.636 214.984 158.418C209.402 127.201 175.893 115.928 160.639 119.926C145.386 123.924 118.804 136.502 115.262 147.989C111.721 159.475 110.564 168.912 110.564 168.912Z"
                                fill="white" />
                        </g>
                    </mask>
                    <g mask="url(#mask9_150563_36651)">
                        <path id="Lips" fill-rule="evenodd" clip-rule="evenodd"
                            d="M162.525 211.98C163.071 212.073 163.127 212.216 163.267 212.39C164.166 213.507 161.943 215.144 159.974 216.21C154.035 219.425 146.295 219.004 139.625 217.379C139.625 217.379 138.615 216.937 138.753 216.153C139.009 214.696 141.983 215.77 144.529 216.078C150.673 216.822 157.479 216.56 161.555 212.315C161.555 212.315 161.914 211.927 162.525 211.98Z"
                            fill="#172C57" />
                    </g>
                </g>
            </g>
            <g id="Eyes">
                <path id="Path_10" fill-rule="evenodd" clip-rule="evenodd"
                    d="M171.797 174.975C173.771 175.103 175.27 176.808 175.143 178.782C175.016 180.755 173.31 182.254 171.336 182.127C169.363 182 167.864 180.294 167.991 178.321C168.118 176.347 169.824 174.848 171.797 174.975Z"
                    fill="#172C57" />
                <path id="Path_11" fill-rule="evenodd" clip-rule="evenodd"
                    d="M127.631 171.935C129.604 172.062 131.103 173.768 130.976 175.741C130.849 177.715 129.143 179.214 127.17 179.087C125.196 178.959 123.697 177.254 123.824 175.28C123.951 173.307 125.657 171.808 127.631 171.935Z"
                    fill="#172C57" />
            </g>
            <path id="Hair" fill-rule="evenodd" clip-rule="evenodd"
                d="M94.4062 147.834C94.8553 154.246 99.6185 160.215 102.032 165.545C104.445 170.875 111.901 173.743 118.684 163.384C125.468 153.025 130.004 151.449 136.549 155.359C143.095 159.268 156.182 164.803 167.994 149.799C171.647 145.158 182.343 148.037 180.191 156.218C178.76 161.66 185.426 166.044 188.492 163.972C192.832 161.039 200.078 164.432 192.147 179.276C189.307 184.592 194.701 188.703 195.43 189.423C196.159 190.143 198.677 188.801 197.839 181.646C197.001 174.491 200.379 166.654 205.055 165.629C209.73 164.604 214.982 169.203 213.341 176.394C211.7 183.586 205.301 191.448 201.848 194.876C198.395 198.304 201.607 199.28 201.011 202.002C200.415 204.725 196.795 216.049 194.197 217.701C191.599 219.352 203.242 223.452 205.828 213.308C206.942 208.936 210.518 201.989 219.937 200.468C230.468 198.767 227.764 186.518 235.009 180.499C242.255 174.48 244.798 161.256 236.37 148.88C228.31 137.045 232.227 135.939 226.897 124.595C222.103 114.393 213.377 114.351 212.367 113.081C205.949 105.009 205.1 91.3422 182.228 93.2215C170.769 94.1632 164.678 95.1073 152.995 91.6C141.312 88.093 138.694 105.947 121.127 104.555C111.59 103.798 98.7085 112.436 99.0882 123.513C99.468 134.59 93.9156 140.829 94.4062 147.834Z"
                fill="url(#paint0_linear_150563_36651)" />
        </g>
    </g>
    <defs>
        <linearGradient id="paint0_linear_150563_36651" x1="95.042" y1="92.1338" x2="233.69" y2="226.545"
            gradientUnits="userSpaceOnUse">
            <stop stop-color="#172C57" />
            <stop offset="0.5" stop-color="#1E3A71" />
            <stop offset="1" stop-color="#274A91" />
        </linearGradient>
        <clipPath id="clip0_150563_36651">
            <rect width="415" height="562" fill="white" />
        </clipPath>
    </defs>
</svg>