<svg viewBox="0 0 689 749" class="shape-tree-1" fill="none">
    <g id="tree-1" clip-path="url(#clip0_150536_5690)">
        <g id="tree-2">
            <g id="tree-container_1" filter="url(#filter0_d_150536_5690)">
                <path fill-rule="evenodd" clip-rule="evenodd"
                    d="M4.11116 517.538C4.11116 517.538 86.802 574.41 228.965 338.615C371.128 102.822 328.478 92.9546 427.88 24.5305C527.285 -43.8938 631.007 51.6128 575.085 118.893C519.161 186.173 414.101 203.456 378.337 380.253C342.573 557.049 388.384 602.31 460.718 567.93C533.052 533.55 598.222 483.64 607.952 436.095C617.507 389.408 654.047 373.062 680.094 417.676C696.235 445.325 692.641 499.738 659.613 538.898C604.252 604.538 494.984 584.911 449.971 651.532C404.958 718.152 407.507 752.221 359.579 748.73C311.651 745.24 37.9482 579.918 15.297 547.511C-7.35573 515.104 4.11116 517.538 4.11116 517.538Z"
                    fill="url(#paint0_linear_150536_5690)" />
            </g>
            <path id="tree-root-4" fill-rule="evenodd" clip-rule="evenodd"
                d="M159.397 626.475C159.397 626.475 242.762 583.264 261.534 462.179C262.651 454.978 264.025 447.682 265.636 440.317C265.265 440.145 265.301 439.591 266.056 438.416C274.022 402.816 287.435 365.66 303.802 329.837C306.572 303.92 297.146 276.671 297.146 276.671C297.146 276.671 289.664 258.091 302.795 290.56C307.216 301.491 308.199 312.265 307.558 321.747C330.845 272.388 359.446 226.009 386.715 190.306C396.006 164.897 392.11 134.042 392.11 134.042C392.11 134.042 388.614 114.303 394.777 148.807C397.086 161.734 395.273 173.593 392.103 183.369C405.879 165.931 419.197 151.391 431.18 140.764C448.698 125.227 459.991 115.163 467.208 108.692C451.554 123.616 422.192 153.108 395.783 187.964C383.184 204.593 372.543 219.422 363.002 233.874C372.411 225.565 387.416 215.806 407.01 214.387C441.984 211.853 421.984 213.332 421.984 213.332C421.984 213.332 379.387 218.616 358.047 241.501C340.976 268.212 327.187 294.486 311.161 329.471C290.826 373.863 281.643 398.138 274.956 427.125C278.608 422.34 298.234 398.6 329.667 396.324C364.642 393.79 344.641 395.269 344.641 395.269C344.641 395.269 290.2 402.022 273.578 433.324C272.198 439.763 270.907 446.504 269.616 453.798C261.937 497.196 249.608 532.996 230.533 561.533C199.701 607.661 159.397 626.475 159.397 626.475ZM478.493 98.235C478.493 98.235 474.23 101.998 467.208 108.692C484.364 93.3101 478.493 98.235 478.493 98.235Z"
                fill="#F0B6B3" />
            <path id="tree-root-3" fill-rule="evenodd" clip-rule="evenodd"
                d="M326.238 683.057C326.238 683.057 351.614 627.105 430.062 610.733C457.646 604.975 487.086 593.211 515.067 578.618C531.898 575.931 550.012 581.168 550.012 581.168C550.012 581.168 562.404 585.43 540.748 577.947C533.459 575.428 526.391 575.15 520.22 575.889C551.654 559.002 580.96 538.745 603.344 519.717C619.627 512.775 639.93 514.277 639.93 514.277C639.93 514.277 652.941 515.893 630.194 513.034C621.664 511.961 613.974 513.552 607.694 515.959C618.621 506.358 627.669 497.155 634.204 488.959C643.756 476.98 649.944 469.257 653.924 464.321C658.055 459.506 660.366 456.593 660.366 456.593C660.366 456.593 663.382 452.589 653.924 464.321C644.712 475.057 626.45 495.251 604.585 513.694C594.152 522.494 584.829 529.952 575.714 536.679C580.82 530.248 586.683 520.108 586.941 507.252C587.401 484.305 587.118 497.429 587.118 497.429C587.118 497.429 585.121 525.457 570.897 540.179C554.036 552.239 537.348 562.141 515.047 573.798C487.314 588.297 471.833 595.142 453.622 600.448C456.738 597.482 463.898 589.445 464.126 578.05C464.419 563.469 464.239 571.808 464.239 571.808C464.239 571.808 462.762 592.538 451.646 601.015C446.541 602.457 441.185 603.797 435.26 605.166C407.177 611.655 384.214 620.927 366.226 634.362C337.15 656.076 326.238 683.057 326.238 683.057Z"
                fill="#F0B6B3" />
        </g>
    </g>
    <defs>
        <filter id="filter0_d_150536_5690" x="-18.791" y="0.931641" width="712.207" height="772.042"
            filterUnits="userSpaceOnUse" color-interpolation-filters="sRGB">
            <feFlood flood-opacity="0" result="BackgroundImageFix" />
            <feColorMatrix in="SourceAlpha" type="matrix" values="0 0 0 0 0 0 0 0 0 0 0 0 0 0 0 0 0 0 127 0"
                result="hardAlpha" />
            <feOffset dx="-8" dy="12" />
            <feGaussianBlur stdDeviation="6" />
            <feComposite in2="hardAlpha" operator="out" />
            <feColorMatrix type="matrix" values="0 0 0 0 0 0 0 0 0 0 0 0 0 0 0 0 0 0 0.01 0" />
            <feBlend mode="normal" in2="BackgroundImageFix" result="effect1_dropShadow_150536_5690" />
            <feBlend mode="normal" in="SourceGraphic" in2="effect1_dropShadow_150536_5690" result="shape" />
        </filter>
        <linearGradient id="paint0_linear_150536_5690" x1="569.107" y1="-72.9825" x2="797.439" y2="679.074"
            gradientUnits="userSpaceOnUse">
            <stop stop-color="#F0B6B3" stop-opacity="0.24" />
            <stop offset="1" stop-color="#F0B6B3" stop-opacity="0.62" />
        </linearGradient>
        <clipPath id="clip0_150536_5690">
            <rect width="689" height="749" fill="white" transform="translate(0.5 0.5)" />
        </clipPath>
    </defs>
</svg>