<svg width="300" height="300" viewBox="0 0 300 300" fill="none" xmlns="http://www.w3.org/2000/svg">
<rect width="300" height="300" rx="150" fill="white"/>
<mask id="mask0_4_142" style="mask-type:luminance" maskUnits="userSpaceOnUse" x="0" y="0" width="300" height="300">
<rect width="300" height="300" rx="150" fill="white"/>
</mask>
<g mask="url(#mask0_4_142)">
<path fill-rule="evenodd" clip-rule="evenodd" d="M-2 150C-2 66.0527 66.0527 -2 150 -2C233.947 -2 302 66.0527 302 150C302 233.947 233.947 302 150 302C66.0527 302 -2 233.947 -2 150ZM298 150C298 68.2619 231.738 2 150 2C68.2619 2 2 68.2619 2 150C2 231.738 68.2619 298 150 298C231.738 298 298 231.738 298 150Z" fill="#454545"/>
<path fill-rule="evenodd" clip-rule="evenodd" d="M193.988 36.6467L199.932 40.8267L201.271 41.7726L202.154 42.3995L203.029 43.0234L203.896 43.6444L204.752 44.2624L205.599 44.8776L206.018 45.1841L206.847 45.795C206.985 45.8966 207.121 45.9981 207.258 46.0995L208.069 46.7062C208.338 46.908 208.604 47.1093 208.868 47.3102L209.653 47.9115L210.392 48.4862L210.878 48.868L211.595 49.4387L212.064 49.8178L212.527 50.1959L212.983 50.5729L213.432 50.9488L213.873 51.3238L214.307 51.6977L214.733 52.0706C214.804 52.1327 214.874 52.1947 214.944 52.2567L215.358 52.6281C215.427 52.69 215.495 52.7517 215.563 52.8135L215.965 53.1834L216.359 53.5524L216.744 53.9203C216.871 54.0428 216.997 54.1652 217.121 54.2874L217.489 54.6534C217.61 54.7753 217.73 54.897 217.848 55.0186L218.197 55.3828C221.646 59.0201 223.682 62.5185 223.508 65.9165C223.468 66.704 223.443 67.5116 223.423 68.3298L223.397 69.5638L223.359 71.3988L223.336 72.2688L223.315 72.9027L223.299 73.3238L223.271 73.9526L223.249 74.3695L223.224 74.7842L223.197 75.1965L223.157 75.7079L223.112 76.2144L223.071 76.6158L223.05 76.8151L223.002 77.2107C222.986 77.3419 222.969 77.4724 222.951 77.6022L222.894 77.9893L222.843 78.3045L222.789 78.6163C222.781 78.6627 222.772 78.7089 222.764 78.7551C222.753 78.8118 222.742 78.8683 222.731 78.9247L222.669 79.2293L222.603 79.5301C222.592 79.5799 222.58 79.6296 222.568 79.6791L222.496 79.9738C222.458 80.1202 222.419 80.2649 222.379 80.408L222.295 80.6919C221.329 83.8367 219.457 86.1169 215.754 86.5461C215.826 86.7639 215.899 87.0107 215.967 87.2634L216.017 87.4536C216.652 89.8406 217.215 92.282 217.724 94.7144C218.232 97.1467 218.677 99.6063 219.05 102.075L219.295 103.763L220.121 103.709C224.555 103.425 227.569 104.532 229.616 106.327L229.821 106.512C230.324 106.98 230.767 107.491 231.155 108.033L231.308 108.252C231.482 108.508 231.645 108.772 231.798 109.041L231.925 109.272C233.605 112.322 236.202 137.308 219.858 142.572C219.349 146.486 218.677 150.368 217.842 154.216C217.306 156.63 216.716 159.054 216.099 161.477C215.481 163.9 214.764 166.287 214.01 168.665C212.497 173.447 210.608 178.102 208.362 182.587C207.209 184.811 205.965 186.998 204.585 189.113C203.195 191.232 201.641 193.238 199.936 195.112C196.507 198.983 192.339 202.13 187.677 204.37C186.024 205.141 184.312 205.778 182.556 206.276C182.464 207.11 182.43 207.95 182.456 208.79C182.493 210.541 182.647 212.311 182.81 214.081L183.001 216.359C183.91 217.594 184.928 218.746 186.043 219.799C188.455 222.019 191.083 223.993 193.888 225.689C199.559 229.074 205.471 232.038 211.577 234.556C212.486 234.956 213.402 235.344 214.319 235.73L216.155 236.503C217.685 237.15 219.213 237.81 220.72 238.531C223.735 239.974 226.759 241.254 229.801 242.425C234.127 244.097 238.638 245.316 243.232 246.442L244.613 246.777L245.998 247.109L248.778 247.771L249.894 248.039L251.013 248.311L251.317 248.386L251.574 248.449L252.695 248.731C257.934 250.061 263.21 251.637 268.237 253.997C274.481 256.936 280.273 260.754 285.435 265.333C290.972 270.223 295.816 275.806 300.001 281.837L300 300L-0.171875 299.999L-0.127417 299.838L-0.0935984 299.683L-0.0358998 299.384C-0.0153741 299.283 0.00877851 299.179 0.0435606 299.068C1.09875 295.776 2.36037 292.553 3.82094 289.42C5.30934 286.253 7.06197 283.217 9.06023 280.344C11.1199 277.479 13.4655 274.83 16.0611 272.439C18.6853 270.108 21.5146 268.018 24.5148 266.195C27.2017 264.549 29.9243 263.07 32.639 261.637L34.2665 260.782L36.6998 259.508C38.587 258.517 40.4597 257.52 42.303 256.474C53.9579 250.033 65.1288 242.753 75.7273 234.692C78.4514 232.786 81.1845 230.862 83.8995 228.893C86.6145 226.923 89.2205 224.89 91.6994 222.703C94.2004 220.552 96.4404 218.115 98.3734 215.442C99.636 213.708 100.679 211.824 101.479 209.833L101.288 208.436C100.957 205.953 100.705 203.462 100.465 200.968L100.227 198.474C100.068 196.811 99.9049 195.148 99.7173 193.488C99.1543 188.505 98.5732 183.504 97.7287 178.621C97.2928 176.171 96.7844 173.802 96.1306 171.36L94.26 164.045L92.7598 158.201C92.0089 155.281 91.2527 152.365 90.4736 149.451L89.2629 144.994L88.6575 142.771C86.9528 141.566 85.0072 140.403 83.0241 139.266L82.0304 138.699L79.5558 137.298L79.1654 137.075L78.3925 136.631L77.6326 136.188C76.3786 135.451 75.1907 134.719 74.1292 133.986C67.7435 129.584 66.6976 115.148 68.0908 104.214L68.1801 103.542L68.227 103.209C68.5825 100.74 68.5467 98.8692 68.3416 97.2443L68.2933 96.8871L68.2772 96.7774L68.2673 96.7113L68.2116 96.3647L68.1518 96.024C68.1415 95.9677 68.131 95.9116 68.1204 95.8556L68.0414 95.4538L67.9584 95.0574L67.8283 94.4693L67.5162 93.1019L67.3864 92.5056L67.3036 92.1009L67.2248 91.6887L67.1496 91.2588L67.0973 90.9292L67.0645 90.7058L67.0337 90.4791L66.9912 90.1325L66.9655 89.8968L66.9422 89.6572L66.9214 89.4134L66.9031 89.1652L66.8875 88.9126L66.8695 88.5246L66.8612 88.2597L66.856 87.9895L66.8545 87.574L66.8577 87.2898L66.8646 86.9997L66.8751 86.7035L66.8895 86.4009L66.9078 86.0917L66.9302 85.7758L66.9569 85.453L66.9879 85.123L67.0233 84.7857L67.0634 84.4408L67.1081 84.0881L67.1577 83.7276L67.2123 83.3588L67.272 82.9818L67.3369 82.5961C67.3481 82.5311 67.3596 82.4658 67.3713 82.4L67.4443 82.0012L67.5228 81.5933C67.5364 81.5246 67.5502 81.4555 67.5642 81.386L67.6513 80.9641L67.7442 80.5328L67.8431 80.0916L67.9481 79.6406L68.0593 79.1794L68.177 78.7078L68.3011 78.2257L68.4318 77.7328L68.5692 77.229L68.7136 76.714L68.8649 76.1877L69.0233 75.6498C69.0503 75.5592 69.0776 75.4681 69.1052 75.3765L69.2746 74.8209C69.3034 74.7273 69.3326 74.6332 69.3621 74.5386C72.8859 63.2383 77.2417 58.8673 83.1321 56.0843L83.5554 55.8881L83.9841 55.6969C84.2716 55.571 84.5627 55.4481 84.8574 55.3277L85.3022 55.1488L85.7525 54.9732L85.8441 54.9381L85.9798 54.8864L86.4385 54.7148C86.5154 54.6864 86.5925 54.6581 86.6699 54.6299L87.2777 54.4113C87.5841 54.3027 87.894 54.1949 88.2077 54.0875L89.1599 53.7658L90.7974 53.2254L92.8483 52.5518L93.9098 52.1973L94.2691 52.0757C94.5597 50.0336 105.456 29.6128 128.838 27.5707C129.305 27.5299 129.774 27.49 130.244 27.451L131.657 27.3371C154.308 25.5639 179.169 26.1912 193.988 36.6467ZM90.8459 144.396C91.1468 145.236 91.4181 146.082 91.6835 146.929L92.08 148.2L92.2806 148.834C93.806 153.632 95.268 158.452 96.6663 163.292L98.7911 170.553C99.5357 172.94 100.244 175.454 100.807 177.931C101.68 181.764 102.387 185.57 103.067 189.399L104.006 194.726L104.333 196.596C104.979 200.335 105.576 204.066 105.964 207.837C107.05 217.908 107.223 228.057 106.482 238.159C106.477 238.219 106.449 238.275 106.403 238.315C106.357 238.354 106.297 238.373 106.237 238.368C106.135 238.359 106.051 238.286 106.028 238.186C104.319 229.936 103.098 221.685 101.969 213.434L101.633 210.959C101.103 212.741 100.388 214.462 99.4993 216.096C97.817 219.098 95.7906 221.894 93.461 224.427C91.1671 226.943 88.7424 229.336 86.1968 231.597C84.8408 232.807 83.4788 234.005 82.1107 235.191C82.8773 235.857 83.6444 236.523 84.4125 237.186L85.5655 238.181L86.7205 239.172L87.8779 240.16L89.0381 241.142C95.8155 246.861 102.76 252.309 110.259 256.81C112.911 258.383 115.617 259.842 118.377 261.185C121.134 262.51 123.969 263.665 126.867 264.643C132.584 266.676 138.574 267.836 144.637 268.083C147.666 268.227 150.702 268.139 153.717 267.819C156.727 267.471 159.71 266.916 162.643 266.158C165.587 265.407 168.468 264.43 171.26 263.236C174.051 262.025 176.757 260.627 179.36 259.052C181.914 257.531 184.195 255.592 186.107 253.316C187.973 250.857 189.698 248.293 191.273 245.638C191.518 245.235 191.783 244.835 192.052 244.437L192.59 243.641C193.057 242.967 193.56 242.318 194.097 241.699C195.066 240.585 196.125 239.553 197.263 238.613L197.575 238.359C199.38 236.866 201.393 235.643 203.55 234.729C199.986 232.692 196.552 230.437 193.268 227.977L192.653 227.513C189.933 225.475 187.437 223.153 185.208 220.588C184.453 219.694 183.759 218.751 183.128 217.766L183.274 219.472C183.428 221.287 183.546 223.093 183.628 225.008C182.525 223.451 181.696 221.717 181.176 219.88C180.621 218.075 180.259 216.216 180.095 214.335C179.907 212.421 179.987 210.491 180.332 208.599C180.463 207.955 180.649 207.324 180.885 206.711L180.786 206.737L180.586 206.796C180.486 206.825 180.386 206.847 180.286 206.847C179.641 207.002 179.015 207.12 178.343 207.21L177.588 207.316C177.168 207.373 176.751 207.419 176.336 207.419C175.034 207.505 173.727 207.523 172.423 207.474C167.511 207.279 162.631 206.59 157.858 205.42L157.286 205.277C152.324 204.056 147.495 202.35 142.867 200.186C138.214 197.999 133.845 195.256 129.855 192.017C127.855 190.386 125.982 188.605 124.252 186.69C122.535 184.758 120.989 182.68 119.63 180.482C116.956 176.089 115.184 171.208 114.418 166.124C114.091 164.454 113.882 162.793 113.692 161.132C105.992 161.731 96.2214 154.089 94.1874 148.643C93.4426 146.973 92.2944 145.513 90.8459 144.396ZM99.0362 118.275C100.244 116.061 101.697 114.591 103.576 114.11C105.815 113.66 108.141 114.152 110.005 115.471C111.46 116.476 112.75 117.7 113.828 119.101C114.211 119.585 114.478 120.15 114.609 120.753L114.62 121.017L114.691 122.237L114.768 123.354L114.833 124.229L114.911 125.188L114.978 125.955L115.053 126.755L115.134 127.582L115.193 128.146L115.288 129.003L115.355 129.581L115.426 130.161L115.54 131.032L115.62 131.611C115.647 131.803 115.675 131.995 115.704 132.185L115.792 132.753L115.883 133.314L115.979 133.865L116.028 134.136L116.13 134.668L116.194 134.986L116.259 135.298L116.326 135.604L116.43 136.05L116.446 136.119L116.465 136.195L116.536 136.48L116.61 136.757L116.684 137.025L116.761 137.284L116.785 137.363L116.799 137.41L116.878 137.656L116.959 137.891C116.972 137.93 116.986 137.968 116.999 138.005L117.082 138.225L117.167 138.434C117.607 139.484 118.114 140.077 118.695 139.949L118.878 139.911L118.969 139.894L119.148 139.862L119.923 139.742L120.087 139.713L120.248 139.68L120.406 139.642L120.5 139.617L120.593 139.589L120.685 139.558L120.776 139.524L120.865 139.487L120.953 139.446L121.039 139.401L121.124 139.353L121.207 139.3L121.289 139.242L121.37 139.179L121.448 139.112L121.526 139.039C121.538 139.026 121.551 139.013 121.564 139L121.638 138.918L121.711 138.83C121.723 138.815 121.735 138.8 121.747 138.784L121.818 138.686C121.829 138.669 121.841 138.652 121.852 138.635L121.92 138.527L121.987 138.412C121.998 138.392 122.008 138.372 122.019 138.352L122.083 138.225L122.144 138.091L122.204 137.949L122.262 137.798L122.318 137.638C122.327 137.611 122.336 137.583 122.345 137.555L122.398 137.382C122.407 137.353 122.416 137.323 122.424 137.292L122.474 137.105L122.522 136.908L122.568 136.701L122.612 136.484L122.654 136.256L122.694 136.017L122.731 135.768L122.767 135.506L122.8 135.233L122.831 134.949L122.86 134.652L122.886 134.342L122.921 133.854L122.951 133.336L122.976 132.788L122.989 132.405L123.004 131.804L123.011 131.385L123.017 130.729L123.017 130.038L123.011 129.243L123.005 128.829L122.987 127.968C122.985 127.853 122.982 127.738 122.979 127.621L122.958 126.906L122.932 126.163L122.903 125.391L122.868 124.59L122.817 123.516L122.742 122.103L122.654 120.608L123.562 120.844L124.094 120.782L124.7 120.722L125.128 120.686L125.607 120.649L125.994 120.624L126.543 120.595L126.975 120.577L127.271 120.567L127.725 120.557L128.033 120.554L128.344 120.554L128.736 120.558L129.129 120.568L129.444 120.581L129.601 120.588L129.914 120.607L130.225 120.63L130.532 120.658L130.684 120.674L130.986 120.71C132.727 120.936 134.192 121.442 134.576 122.469C134.616 122.575 134.656 122.71 134.697 122.872L134.747 123.078C134.755 123.114 134.764 123.152 134.772 123.19L134.851 123.562L134.929 123.948L135.102 124.838L135.253 125.601L135.426 126.435L135.529 126.908L135.64 127.397C135.66 127.48 135.679 127.564 135.699 127.648L135.824 128.161C137.828 136.226 143.324 149.43 162.571 147.945C181.886 146.456 185.041 133.333 185.636 126.03L185.669 125.586L185.684 125.369L185.712 124.898L185.734 124.449L185.758 123.819L185.78 123.068C185.78 123.558 185.78 124.048 185.861 124.529C186.072 126.886 186.645 129.198 187.559 131.381C188.495 133.52 189.6 135.581 190.865 137.544C192.032 139.266 192.974 141.129 193.67 143.089L193.734 143.263C194.344 145.005 194.281 146.915 193.552 148.616C192.712 150.407 191.106 151.721 189.185 152.192C187.121 152.634 184.967 152.157 183.283 150.885C183.196 150.814 183.07 150.814 182.983 150.885C182.895 150.977 182.895 151.121 182.983 151.212C184.654 152.936 187.022 153.801 189.412 153.563C191.932 153.278 194.186 151.866 195.541 149.724C196.225 148.622 196.653 147.382 196.794 146.093C196.925 144.842 196.864 143.578 196.612 142.345C196.043 140.058 195.186 137.853 194.061 135.783C193.1 133.909 192.345 131.938 191.809 129.902C191.273 127.905 190.792 125.908 190.365 123.866C190.084 122.55 189.857 121.216 189.639 119.864C190.338 119.973 190.865 120.245 190.946 120.653L190.959 120.75L190.973 120.895L191.03 121.599L191.074 122.09L191.111 122.463L191.156 122.871L191.211 123.312C191.227 123.435 191.244 123.561 191.262 123.691L191.32 124.089C191.331 124.157 191.341 124.225 191.352 124.295L191.423 124.719L191.502 125.159C192.767 131.953 197.213 143.897 213.992 143.416C214.751 143.396 215.509 143.339 216.262 143.243L216.191 144.442C215.699 152.431 214.844 160.437 212.63 168.148C211.297 172.881 209.433 177.448 207.073 181.762C204.717 186.015 201.732 189.888 198.22 193.252C194.764 196.531 190.719 199.127 186.297 200.903C184.13 201.766 181.878 202.399 179.578 202.79L179.234 202.851C179.004 202.888 178.773 202.92 178.542 202.949L177.853 203.035C177.281 203.108 176.745 203.135 176.164 203.153C174.995 203.188 173.825 203.164 172.659 203.081C167.879 202.713 163.147 201.877 158.53 200.585C153.889 199.335 149.358 197.708 144.982 195.72C136.274 191.799 128.193 186.209 122.663 178.476C121.293 176.538 120.098 174.482 119.094 172.332C118.777 171.657 118.501 170.967 118.235 170.271L117.76 169.01C117.493 168.306 117.279 167.585 117.07 166.855L116.818 165.976L116.688 165.534C115.886 162.742 115.229 159.873 114.611 156.981L114.278 155.403L113.742 152.833L113.383 151.121V151.076L113.329 151.03H113.274C110.605 150.073 108.127 148.65 105.955 146.828C103.839 145.039 102.003 142.943 100.507 140.611C99.0128 138.319 97.8167 135.845 96.9478 133.251C96.4829 132.019 96.1511 130.741 95.9581 129.439C95.8323 128.224 95.9339 126.996 96.2577 125.818V125.799C96.5047 124.819 96.8505 123.746 97.2067 122.692L97.4744 121.906C97.8991 120.657 98.4213 119.443 99.0362 118.275ZM170.689 169.238L170.725 169.246L171.456 169.475L172.16 169.691C172.391 169.76 172.617 169.828 172.84 169.893L173.662 170.131L174.46 170.353L175.085 170.521L175.702 170.682L176.315 170.837L176.928 170.987L177.235 171.061C178.252 171.297 179.242 171.578 180.268 171.923C181.31 172.298 182.383 172.583 183.473 172.776C184.581 172.958 185.716 173.094 186.869 173.203C187.993 173.341 189.124 173.417 190.256 173.43C192.437 173.594 194.609 173.035 196.437 171.841L196.612 171.724C196.701 171.637 196.842 171.637 196.93 171.724C196.97 171.811 196.948 171.914 196.876 171.978C196.136 173.006 195.162 173.843 194.034 174.419C192.908 174.992 191.711 175.413 190.474 175.672C188.081 176.139 185.648 176.376 183.21 176.379L182.145 176.378C181.252 176.374 180.345 176.361 179.424 176.316C178.117 176.22 176.841 175.875 175.664 175.299C173.188 174.204 171.282 172.125 170.407 169.563C170.387 169.498 170.394 169.428 170.427 169.369C170.459 169.309 170.514 169.265 170.579 169.246C170.615 169.236 170.652 169.233 170.689 169.238ZM148.221 113.696L148.651 113.61C170.539 110.246 176.417 112.553 178.718 114.595L178.857 114.722L178.988 114.848L179.124 114.987L179.188 115.056L179.311 115.191L179.426 115.324L179.587 115.516C182.442 119.249 182.492 123.982 181.647 128.143L181.568 128.52L181.484 128.893C181.47 128.955 181.455 129.016 181.441 129.078L181.351 129.446L181.257 129.809C181.241 129.869 181.225 129.929 181.208 129.989L181.109 130.346L181.007 130.698L180.902 131.046L180.762 131.49C180.62 131.929 180.474 132.354 180.325 132.762L180.176 133.165L180.026 133.556L179.951 133.746L179.802 134.118L179.654 134.477L179.508 134.822L179.365 135.152L179.225 135.468L179.023 135.912L178.894 136.187L178.655 136.686L178.494 137.013L178.353 137.294C176.816 140.194 169.039 146.871 154.117 143.933C145.082 142.154 141.169 134.548 139.484 128.74L139.363 128.313C139.324 128.172 139.287 128.032 139.25 127.893L139.145 127.482C139.128 127.414 139.111 127.346 139.095 127.279L139.001 126.881L138.913 126.492L138.833 126.114L138.759 125.746L138.691 125.391L138.628 125.047L138.554 124.605C138.53 124.461 138.508 124.322 138.488 124.188L138.432 123.798L138.384 123.437L138.344 123.107L138.311 122.81L138.285 122.546L138.256 122.219L138.238 121.978L138.227 121.784L138.193 121.578C137.666 118.175 139.238 116.415 141.525 115.377L141.753 115.277C141.791 115.261 141.829 115.245 141.868 115.229L142.101 115.136L142.165 115.112L142.22 115.091L142.459 115.004L142.748 114.905L142.894 114.858L143.19 114.767L143.339 114.723L143.64 114.639L143.943 114.56L144.249 114.484L144.557 114.411L144.866 114.342L145.177 114.275L145.643 114.18L146.417 114.032L147.483 113.835L148.221 113.696ZM216.416 108.528L214.673 108.7L210.116 109.163L208.775 109.304L207.791 109.41L207.147 109.483L206.199 109.594L205.58 109.67L204.972 109.748L204.671 109.788L204.08 109.869C203.787 109.911 203.498 109.953 203.214 109.997L202.652 110.086L202.103 110.178L201.552 110.276L201.016 110.378L200.666 110.449L200.323 110.522L199.987 110.597L199.658 110.674L199.336 110.753L199.022 110.835C198.918 110.862 198.815 110.89 198.714 110.919L198.414 111.005L198.122 111.095C197.978 111.14 197.836 111.186 197.698 111.234L197.425 111.33C197.38 111.346 197.336 111.363 197.292 111.379L197.031 111.48C194.594 112.45 193.275 113.834 193.58 115.961L193.591 116.145L193.612 116.419L193.634 116.665L193.662 116.959L193.719 117.484L193.742 117.68L193.795 118.103L193.858 118.563L193.917 118.968C193.927 119.037 193.938 119.107 193.949 119.178L194.02 119.616L194.043 119.753L194.059 119.843L194.142 120.311L194.234 120.798L194.335 121.302C195.885 128.815 200.523 141.467 214.11 140.266C214.901 140.165 215.687 140.019 216.462 139.831V139.123C216.689 134.231 216.834 129.339 216.834 124.438C216.843 121.997 216.798 119.546 216.734 117.096C216.671 114.645 216.598 112.195 216.453 109.744C216.425 109.336 216.407 108.936 216.416 108.528ZM220.677 108.208L221.083 108.196C221.138 108.195 221.191 108.194 221.245 108.193L221.561 108.19L221.868 108.191L222.166 108.196L222.455 108.205L222.735 108.218L223.008 108.236L223.271 108.258C223.319 108.263 223.367 108.267 223.414 108.272C223.452 108.276 223.49 108.281 223.527 108.285L223.774 108.317L224.014 108.354C226.175 108.714 227.356 109.715 228.054 111.795L228.128 112.026L228.198 112.266C228.22 112.344 228.242 112.424 228.263 112.505C228.275 112.55 228.286 112.596 228.298 112.643L228.36 112.905L228.418 113.176C228.429 113.228 228.44 113.281 228.45 113.333L228.465 113.41L228.474 113.457L228.527 113.747L228.577 114.047L228.624 114.356L228.669 114.675L228.722 115.08C228.732 115.165 228.742 115.25 228.752 115.337C228.758 115.391 228.764 115.446 228.77 115.5L228.827 116.048L228.88 116.619L228.919 117.095L228.957 117.586L228.993 118.094C229.546 129.375 226.159 135.601 220.303 138.488C220.746 133.812 220.931 129.116 220.857 124.42C220.857 121.924 220.73 119.428 220.593 116.932C220.457 114.436 220.221 111.95 219.967 109.463C219.967 109.263 219.942 109.061 219.911 108.858L219.848 108.451L219.821 108.247L220.257 108.225L220.677 108.208ZM165.594 116.696C166.701 116.696 167.763 117.136 168.545 117.92C169.327 118.703 169.765 119.765 169.762 120.871C169.757 123.171 167.889 125.031 165.588 125.028C163.288 125.025 161.425 123.159 161.427 120.859C161.428 118.56 163.294 116.696 165.594 116.696ZM211.449 114.471C210.667 113.688 209.605 113.247 208.498 113.247C206.198 113.247 204.332 115.111 204.331 117.41C204.329 119.71 206.192 121.576 208.492 121.579C210.793 121.582 212.661 119.722 212.666 117.422C212.669 116.316 212.231 115.254 211.449 114.471ZM187.823 80.3381C183.41 80.3411 180.132 81.4514 177.305 82.8823L176.931 83.0749C176.869 83.1073 176.807 83.1398 176.746 83.1725L176.379 83.37L176.016 83.5703L175.658 83.773L175.303 83.9776L174.824 84.2594L174.587 84.401L173.882 84.8272L172.722 85.5342L172.261 85.8127L171.801 86.0872L171.34 86.3566L170.999 86.5513C170.943 86.5834 170.886 86.6154 170.829 86.6472L170.486 86.8361C170.429 86.8672 170.372 86.8981 170.314 86.9289L169.969 87.111C169.796 87.2008 169.622 87.2887 169.447 87.3746L169.095 87.5433C166.505 88.759 163.657 89.4843 159.901 88.9693L158.476 88.7759L156.223 88.4766L154.257 88.2211L151.815 87.9104L148.89 87.5467L146.349 87.2381L144.652 87.0359L142.124 86.7404L140.462 86.5502L138.025 86.2778L136.063 86.065L134.551 85.9054L132.746 85.7212L131.38 85.5872L130.093 85.4663L129.184 85.3849L128.607 85.3352L127.528 85.2477L127.027 85.2101L126.327 85.1617L125.897 85.1351L125.309 85.1037L124.956 85.0888L124.636 85.0788C124.585 85.0776 124.536 85.0766 124.488 85.0758L124.481 85.1905L124.462 85.4257L124.43 85.7311L124.39 86.0498L124.353 86.3149L124.311 86.5895L124.264 86.874L124.187 87.3203L124.041 88.1194L123.736 89.7513L123.588 90.5646L123.475 91.213L123.399 91.6644L123.284 92.3712L123.208 92.8629L123.132 93.3713L123.057 93.897L122.946 94.7188L122.856 95.435L122.77 96.1805L122.703 96.7987L122.638 97.4367C122.607 97.7607 122.576 98.0922 122.547 98.4316L122.49 99.1208C122.471 99.354 122.454 99.5908 122.436 99.8312L122.387 100.563L122.341 101.317L122.3 102.094C122.262 102.882 122.23 103.704 122.207 104.563L122.186 105.434L122.171 106.329C122.161 107.237 122.157 108.182 122.165 109.167L122.177 110.165L122.186 110.674L122.208 111.712C122.231 112.588 122.261 113.493 122.3 114.427H123.389L124.002 114.446L124.605 114.458L125.199 114.464H125.783C125.976 114.463 126.168 114.461 126.357 114.458L126.923 114.447C127.109 114.442 127.295 114.437 127.478 114.43L128.024 114.409L128.56 114.382C128.738 114.373 128.913 114.362 129.087 114.351L129.604 114.315L130.112 114.275L130.732 114.219L131.338 114.156L131.576 114.13L132.044 114.074L132.503 114.015L133.063 113.936L133.607 113.853L134.031 113.783L134.649 113.674L135.245 113.559L135.629 113.481L136.004 113.4L136.369 113.318L136.723 113.234L137.068 113.149L137.403 113.063L137.727 112.977L138.041 112.889L138.494 112.758L138.783 112.669L139.197 112.537L139.461 112.449L139.714 112.362L139.957 112.276L140.19 112.19L140.519 112.063L140.826 111.94L141.109 111.82L141.368 111.704C148.004 108.799 157.345 107.794 165.4 107.77L166.188 107.77L166.98 107.777C168.421 107.796 169.811 107.845 171.124 107.92L169.49 107.784C167.667 107.628 165.896 107.5 164.115 107.38L161.971 107.239L160.076 107.115L158.799 107.027C157.3 106.921 155.77 106.799 154.18 106.64C151.263 106.392 148.381 105.836 145.582 104.979H145.473C145.418 104.965 145.372 104.928 145.346 104.878C145.32 104.828 145.317 104.769 145.336 104.716C145.358 104.643 145.417 104.588 145.491 104.571C146.889 104.226 148.233 103.908 149.613 103.663C150.993 103.418 152.392 103.209 153.79 103.046C156.597 102.701 159.428 102.592 162.253 102.719C165.104 102.902 167.922 103.435 170.643 104.308C171.993 104.747 173.308 105.29 174.575 105.932C175.834 106.589 177.031 107.358 178.152 108.228C178.245 108.296 178.265 108.426 178.198 108.519C178.16 108.567 178.103 108.596 178.043 108.601L177.535 108.601C178.901 108.76 180.239 109.105 181.512 109.626C184.216 111.031 187.441 111.004 190.12 109.553C191.545 108.753 193.518 108.037 195.794 107.402L196.369 107.245C196.756 107.142 197.151 107.04 197.554 106.941L198.162 106.795L198.469 106.723L199.091 106.581L199.879 106.408L200.678 106.241L201.324 106.111L201.974 105.985L202.629 105.862L203.288 105.742L203.949 105.625L204.611 105.512L205.274 105.402L205.937 105.295L206.6 105.192L207.589 105.043L208.246 104.948L208.898 104.857L209.546 104.768L210.188 104.683L211.139 104.561L212.073 104.446L212.986 104.339L213.876 104.239L215.023 104.117L216.117 104.008L216.008 102.402L215.931 101.483L215.78 99.6477C215.652 98.1188 215.514 96.5908 215.327 95.0593C215.238 94.3326 215.151 93.6059 215.065 92.8795L215.065 92.8778C214.86 91.1551 214.655 89.4337 214.419 87.7168L214.255 86.5461C211.313 86.573 208.854 85.9061 206.411 85.0004L205.967 84.8332L205.523 84.6613L205.077 84.4854L204.182 84.1239L202.816 83.5664L202.119 83.2853L201.647 83.0984L200.927 82.8203L200.439 82.6374L200.192 82.5468L199.692 82.3681C199.474 82.2916 199.253 82.2161 199.03 82.1418L198.581 81.9949C195.635 81.0517 192.215 80.3381 187.823 80.3381ZM213.547 98.499C212.688 98.3368 211.816 98.2517 210.941 98.2449C210.07 98.2677 209.201 98.3588 208.344 98.5172C206.632 98.8428 204.966 99.3793 203.386 100.115C201.842 100.88 200.353 101.75 198.928 102.719C198.187 103.173 197.472 103.667 196.785 104.199C196.08 104.766 195.536 105.508 195.205 106.35C195.196 106.392 195.196 106.435 195.205 106.477C195.243 106.574 195.352 106.623 195.45 106.586L195.632 106.522C196.506 106.217 197.43 106.076 198.356 106.105L198.405 106.102C198.8 106.085 199.234 106.066 199.6 106.005L199.949 105.944C200.255 105.889 200.591 105.822 200.889 105.751C202.417 105.386 203.902 104.863 205.32 104.19C206.618 103.569 207.865 102.85 209.052 102.039L209.204 101.937L209.508 101.73L209.816 101.519L210.287 101.19L210.61 100.962L213.474 98.9256L213.62 98.8167C213.659 98.7885 213.685 98.7461 213.692 98.6987C213.699 98.6056 213.638 98.521 213.547 98.499Z" fill="#454545"/>
</g>
</svg>
