<?xml version="1.0" encoding="UTF-8"?>
<svg width="64px" height="46px" viewBox="0 0 64 46" version="1.1" xmlns="http://www.w3.org/2000/svg" xmlns:xlink="http://www.w3.org/1999/xlink">
    <!-- Generator: Sketch 61.2 (89653) - https://sketch.com -->
    <title>small-diamond</title>
    <desc>Created with Sketch.</desc>
    <g id="Page-1" stroke="none" stroke-width="1" fill="none" fill-rule="evenodd">
        <g id="Portfolio---2" transform="translate(-299.000000, -1813.000000)" fill="#EA5D5D">
            <g id="Skills" transform="translate(-420.000000, 1632.000000)">
                <g id="Content" transform="translate(570.000000, 130.000000)">
                    <g id="Group-4">
                        <g id="Group-5" transform="translate(107.000000, 0.000000)">
                            <path d="M94.4057042,51 L53.5942958,51 L42,66.4584911 L74,96.1015863 L106,66.4597736 L94.4057042,51 Z M86.1897739,67.5795545 L74.0051297,91.5397455 L61.9224393,67.5795545 L86.1897739,67.5795545 Z M63.0497011,65.028788 L74,54.0784891 L84.9502989,65.028788 L63.0497011,65.028788 Z M77.0787029,53.5505527 L91.8957619,53.5505527 L87.7137361,64.1857997 L77.0787029,53.5505527 Z M60.4480647,64.0237852 L56.9574859,53.5505527 L70.9212971,53.5505527 L60.4480647,64.0237852 Z M59.0668804,67.5795545 L69.6751962,88.6177137 L46.963671,67.5795545 L59.0668804,67.5795545 Z M89.051745,67.5795545 L101.036329,67.5795545 L78.37717,88.5694085 L89.051745,67.5795545 Z M90.123007,65.028788 L94.1186521,54.8680426 L101.738891,65.028788 L90.123007,65.028788 Z M54.4537421,54.1054203 L58.0947934,65.0300705 L46.2596133,65.0300705 L54.4537421,54.1054203 Z" id="small-diamond"></path>
                        </g>
                    </g>
                </g>
            </g>
        </g>
    </g>
</svg>