<svg width="415" height="562" viewBox="0 0 415 562" fill="none" xmlns="http://www.w3.org/2000/svg">
  <g id="human_3">
    <path id="hood" fill-rule="evenodd" clip-rule="evenodd"
      d="M98.7493 266.641C98.7493 266.641 90.8667 246.513 111.191 240.622C131.515 234.732 128.187 237.413 137.733 225.436C147.279 213.46 195.433 190.725 216.285 214.881C237.136 239.037 230.223 237.447 241.557 241.974C252.892 246.501 253.724 253.418 247.202 262.107C240.68 270.796 120.052 285.444 111.77 279.519C103.489 273.594 98.7493 266.641 98.7493 266.641Z"
      fill="#ECA63D" />
    <g id="hand">
      <path id="hand-container" fill-rule="evenodd" clip-rule="evenodd"
        d="M361.284 69.5879C357.529 65.5518 352.713 59.7487 350.994 53.0113C349.807 48.3611 348.641 45.6216 347.743 43.5107C346.964 41.6808 346.386 40.3233 346.17 38.6029C345.551 33.6779 346.52 31.5448 350.994 32.4137C352.434 32.6935 353.958 33.5989 355.483 34.9171C358.57 20.8854 368.233 10.5279 378.501 10.0187C391.576 9.38524 403.095 24.9442 404.262 44.7355C404.815 52.1737 401.456 59.6287 398.353 66.5162C398.159 66.9466 397.966 67.3747 397.775 67.8004L398.377 81.0001C398.377 86.7876 391.545 89.9101 383.74 90.6041L385.72 95.155C383.578 94.936 380.933 93.1003 378.325 90.7032C369.546 90.2614 361.207 86.9208 361.207 81.0001L361.284 69.5879Z"
        fill="#FCB8AC" />
      <path id="hand-shadow"
        d="M355.483 34.917C354.646 38.721 354.293 42.7951 354.542 47.0162C354.879 54.9215 357.187 62.6617 361.285 69.5648L361.285 69.5879C357.002 64.2246 355.254 56.4816 354.002 50.2246C353.101 45.7246 353.501 34.9171 355.483 34.917Z"
        fill="#F48A8B" fill-opacity="0.34" />
    </g>
    <path id="uuid-298a271f-a3d1-4ea5-9ac1-ac2853dfa275-47-45-47-73-79-44-44-47-415"
      d="M11.097 507.595C9.92956 527.386 19.5955 543.945 32.6472 544.593C45.7215 545.226 57.2406 529.667 58.4081 509.876C58.9955 501.973 57.5764 494.051 54.3302 486.811L58.1603 402.861L17.2795 402.225L17.8399 485.046C13.7416 491.95 11.4337 499.69 11.097 507.595Z"
      fill="#FCB8AC" />
    <g id="body-full">
      <path id="body-container" fill-rule="evenodd" clip-rule="evenodd"
        d="M146.43 213.204C146.43 213.204 168.819 244.471 74.9435 273.604C20.6394 290.457 12.5195 383.3 11.4572 436.11C10.395 488.919 9.23777 501.353 32.2493 502.561C55.2609 503.768 55.0847 495.589 58.3597 475.429C61.6348 455.268 58.5749 381.741 81.1996 378.334C93.8389 376.43 90.3996 412.388 91.7233 431.389C92.6717 445.004 95.4737 516.129 98.5015 535.225C101.575 554.609 142.651 540.609 187.805 549.115C232.959 557.621 293.034 551.949 291.497 517.087C289.96 482.225 264.636 381.417 274.721 347.956C284.806 314.495 394.959 229.617 399.865 188.2C403.512 157.418 403.83 104.07 399.606 80.8082C398.134 72.6961 393.203 73.7487 387.942 73.715C367.454 73.5834 359.416 72.4518 358.91 85.7527C358.404 99.0536 359.671 140.738 348.047 182.78C343.904 197.764 278.966 252.649 266.129 254.584C250.267 256.975 207.279 243.104 198.915 233.163C190.551 223.222 195.784 216.443 194.521 209.338C193.258 202.233 163.672 193.547 156.475 198.911C149.278 204.275 146.43 213.204 146.43 213.204Z"
        fill="#FFB233" />
      <mask id="mask0_150598_5272" style="mask-type:luminance" maskUnits="userSpaceOnUse" x="11" y="73" width="392"
        height="480">
        <g id="body-mask">
          <path id="Vector"
            d="M146.43 213.204C146.43 213.204 168.819 244.471 74.9435 273.604C20.6394 290.457 12.5195 383.3 11.4572 436.11C10.395 488.919 9.23777 501.353 32.2493 502.561C55.2609 503.768 55.0847 495.589 58.3597 475.429C61.6348 455.268 58.5749 381.741 81.1996 378.334C93.839 376.43 90.3996 412.388 91.7233 431.389C92.6717 445.004 95.5468 494.619 98.5746 513.715C101.648 533.099 142.651 540.609 187.805 549.115C232.959 557.621 293.034 551.949 291.497 517.087C289.96 482.225 264.636 381.417 274.721 347.956C284.806 314.495 394.959 229.617 399.865 188.2C403.512 157.418 403.83 104.07 399.606 80.8082C398.134 72.6961 393.203 73.7487 387.942 73.715C367.454 73.5834 359.416 72.4518 358.91 85.7527C358.404 99.0536 359.671 140.738 348.047 182.78C343.904 197.764 278.966 252.649 266.129 254.584C250.267 256.975 207.279 243.104 198.915 233.163C190.551 223.222 195.784 216.443 194.521 209.338C193.258 202.233 163.672 193.547 156.475 198.911C149.278 204.275 146.43 213.204 146.43 213.204Z"
            fill="white" />
        </g>
      </mask>
      <g mask="url(#mask0_150598_5272)">
        <path id="body-left-shadow" fill-rule="evenodd" clip-rule="evenodd"
          d="M295.795 317.482C295.795 317.482 261.502 333.146 262.119 360.704C262.736 388.262 284.275 537.251 241.716 557.435C199.158 577.618 285.59 639.94 341.421 572.598C397.252 505.255 312.652 521.124 295.562 427.815C281.769 352.503 280.159 352.956 283.014 341.956C285.868 330.957 295.795 317.482 295.795 317.482Z"
          fill="#ECA63D" />
        <path id="arm-left-shadow" fill-rule="evenodd" clip-rule="evenodd"
          d="M125.033 264.874C125.033 264.874 79.4116 276.749 61.2653 295.019C43.1187 313.289 27.6139 357.776 22.5196 395.801C17.4252 433.826 17.4917 475.413 0.532802 478.077C-16.4263 480.74 -0.132273 432.081 8.40524 381.172C16.9426 330.264 33.8098 278.027 76.9497 265.443C120.089 252.86 126.014 247.584 125.909 250.371C125.804 253.157 127.014 258.15 126.757 260.358C126.499 262.566 125.033 264.874 125.033 264.874Z"
          fill="#ECA63D" />
        <path id="arm-right-shadow" fill-rule="evenodd" clip-rule="evenodd"
          d="M355.881 75.226C355.881 75.226 364.537 64.892 364.097 84.9345C363.657 104.977 360.833 180.028 349.865 193.066C338.897 206.104 291.251 254.11 271.596 256.005C255.367 257.57 247.196 253.619 242.452 250.52C237.707 247.422 255.479 256.151 270.712 246.205C285.944 236.259 339.671 201.415 345.733 165.926C351.794 130.438 355.352 82.5827 355.352 82.5827L355.881 75.226Z"
          fill="#ECA63D" />
        <g id="neck">
          <path id="neck-container" fill-rule="evenodd" clip-rule="evenodd"
            d="M142.671 211.072C142.671 211.072 150.056 222.944 128.055 248.447C112.89 266.026 142.576 290.372 165.43 288.918C181.102 287.921 220.141 279.877 228.834 264.537C231.75 259.39 231.003 250.668 223.788 244.499C216.394 238.177 202.482 234.458 201.689 233.516C192.283 222.337 198.169 214.715 196.748 206.725C195.328 198.736 162.059 188.969 153.966 195C145.873 201.032 142.671 211.072 142.671 211.072Z"
            fill="#FCB8AC" />
          <mask id="mask1_150598_5272" style="mask-type:luminance" maskUnits="userSpaceOnUse" x="123" y="193"
            width="108" height="96">
            <g id="neck-mask">
              <path id="Vector_2"
                d="M142.671 211.072C142.671 211.072 150.056 222.944 128.055 248.447C112.891 266.026 142.576 290.372 165.43 288.918C181.102 287.921 220.141 279.877 228.834 264.537C231.75 259.39 231.003 250.668 223.788 244.499C216.395 238.177 202.482 234.458 201.689 233.516C192.284 222.337 198.169 214.715 196.749 206.725C195.328 198.736 162.059 188.969 153.966 195C145.873 201.032 142.671 211.072 142.671 211.072Z"
                fill="white" />
            </g>
          </mask>
          <g mask="url(#mask1_150598_5272)">
            <path id="neck-shadow" fill-rule="evenodd" clip-rule="evenodd"
              d="M196.114 219.536C196.114 219.536 200.439 219.835 195.507 221.865C165.056 234.402 160.795 220.673 155.833 229.798C153.051 234.914 130.032 271.603 106.012 271.739C81.9917 271.876 110.565 251.036 120.708 244.352C130.852 237.667 142.243 227.614 144.092 220.684C145.942 213.754 138.314 213.555 151.722 212.641C165.13 211.726 187.473 214.711 190.315 216.213C193.157 217.715 196.114 219.536 196.114 219.536Z"
              fill="#F48A8B" fill-opacity="0.34" />
          </g>
        </g>
        <path id="hooding-string-2" fill-rule="evenodd" clip-rule="evenodd"
          d="M204.313 300.859C205.567 301.169 205.744 302.753 204.288 303.587C199.081 306.72 200.087 315.951 202.148 323.575C207.133 342.003 213.84 360.264 214.673 379.309C215.08 388.602 214.275 398.383 208.01 405.428C206.205 407.458 203.628 410.727 201.582 409.536C199.473 408.31 204.17 405.869 206.382 403.213C211.897 396.591 212.347 387.421 211.997 379.426C211.144 359.94 203.67 341.006 199.103 322.504C197.303 315.215 196.814 306.424 201.812 302.088C202.88 301.161 204.08 300.844 204.08 300.844C204.158 300.849 204.236 300.854 204.313 300.859Z"
          fill="white" />
        <path id="hooding-string-1" fill-rule="evenodd" clip-rule="evenodd"
          d="M151.809 305.519C153.174 305.919 153.134 307.734 151.203 308.273C145.38 309.972 142.332 317.041 140.84 322.965C138.105 333.826 138.994 345.244 139.691 356.614C140.497 369.762 142.813 383.27 140.735 395.707C139.845 401.032 137.332 406.284 132.311 408.461C130.71 409.156 129.186 406.951 131.521 405.879C136.904 403.32 138.233 396.118 138.564 391.025C140.036 368.337 132.577 344.806 138.242 322.31C138.563 321.038 138.936 319.777 139.376 318.54C139.607 317.889 139.856 317.243 140.126 316.607C140.351 316.076 140.591 315.552 140.845 315.035C143.04 310.584 146.657 306.112 151.368 305.503C151.368 305.503 151.571 305.49 151.809 305.519Z"
          fill="white" />
      </g>
    </g>
    <g id="head">
      <g id="face">
        <path id="face-container"
          d="M121.566 160.137C121.566 160.137 110.905 206.385 139.917 220.375C168.928 234.364 188.311 225.201 198.316 216.938C208.321 208.676 210.542 199.861 213.776 191.132C217.011 182.402 231.567 180.861 225.986 149.643C220.404 118.426 186.894 107.153 171.641 111.151C156.387 115.149 129.805 127.727 126.264 139.214C122.722 150.7 121.566 160.137 121.566 160.137Z"
          fill="#FCB8AC" />
        <mask id="mask2_150598_5272" style="mask-type:luminance" maskUnits="userSpaceOnUse" x="119" y="110" width="109"
          height="118">
          <g id="face-mask">
            <path id="Vector_3"
              d="M121.566 160.137C121.566 160.137 110.905 206.385 139.917 220.375C168.928 234.364 188.311 225.201 198.316 216.938C208.321 208.676 210.542 199.861 213.776 191.132C217.011 182.402 231.567 180.861 225.986 149.643C220.404 118.426 186.894 107.153 171.641 111.151C156.387 115.149 129.805 127.727 126.264 139.214C122.722 150.7 121.566 160.137 121.566 160.137Z"
              fill="white" />
          </g>
        </mask>
        <g mask="url(#mask2_150598_5272)">
          <path id="face-shadow" fill-rule="evenodd" clip-rule="evenodd"
            d="M165.842 142.958C165.842 142.958 146.388 170.948 150.283 181.607C154.177 192.267 159.882 189.588 161.031 196.437C162.181 203.295 166.166 235.825 149.36 226.964C142.268 223.224 119.488 219.203 115.252 180.846C111.016 142.489 112.388 121.853 130.209 123.06C148.031 124.267 163.655 128.826 164.614 134.305C165.574 139.784 165.842 142.958 165.842 142.958Z"
            fill="#F48A8B" fill-opacity="0.34" />
          <path id="lips" fill-rule="evenodd" clip-rule="evenodd"
            d="M173.527 203.205C174.072 203.298 174.128 203.441 174.269 203.615C175.167 204.732 172.944 206.369 170.975 207.435C165.036 210.65 157.296 210.229 150.627 208.604C150.627 208.604 149.617 208.162 149.755 207.378C150.01 205.921 152.985 206.995 155.531 207.303C161.674 208.047 168.481 207.785 172.557 203.54C172.557 203.54 172.915 203.152 173.527 203.205Z"
            fill="#172C57" />
        </g>
      </g>
      <g id="eyes">
        <path id="eye-right" fill-rule="evenodd" clip-rule="evenodd"
          d="M182.799 166.2C184.772 166.327 186.271 168.033 186.144 170.006C186.017 171.98 184.311 173.479 182.338 173.352C180.364 173.224 178.865 171.519 178.992 169.545C179.12 167.572 180.825 166.073 182.799 166.2Z"
          fill="#172C57" />
        <path id="eye-left" fill-rule="evenodd" clip-rule="evenodd"
          d="M138.632 163.16C140.606 163.287 142.105 164.993 141.977 166.966C141.85 168.94 140.145 170.439 138.171 170.312C136.198 170.185 134.698 168.479 134.826 166.505C134.953 164.532 136.658 163.033 138.632 163.16Z"
          fill="#172C57" />
      </g>
      <path id="hair" fill-rule="evenodd" clip-rule="evenodd"
        d="M105.408 139.059C105.857 145.471 110.62 151.44 113.033 156.77C115.447 162.1 122.902 164.967 129.686 154.608C136.47 144.25 141.006 142.673 147.551 146.583C154.096 150.493 167.183 156.028 178.995 141.024C182.649 136.383 193.344 139.262 191.192 147.442C189.761 152.884 196.427 157.268 199.493 155.196C203.833 152.263 211.079 155.657 203.148 170.501C200.308 175.817 205.702 179.927 206.431 180.647C207.16 181.367 209.678 180.026 208.84 172.871C208.002 165.716 211.381 157.879 216.056 156.854C220.731 155.829 225.983 160.428 224.342 167.619C222.701 174.81 216.303 182.672 212.849 186.1C209.396 189.528 212.608 190.504 212.012 193.227C211.416 195.949 207.796 207.274 205.198 208.925C202.6 210.576 214.243 214.677 216.829 204.532C217.944 200.16 221.52 193.214 230.938 191.692C241.469 189.991 238.765 177.743 246.011 171.724C253.256 165.705 255.8 152.48 247.371 140.104C239.312 128.27 243.228 127.163 237.898 115.819C233.105 105.618 224.379 105.576 223.369 104.306C216.951 96.234 216.101 82.5668 193.229 84.4461C181.771 85.3878 175.68 86.3319 163.996 82.8246C152.313 79.3176 149.696 97.1716 132.129 95.7792C122.591 95.0231 109.71 103.661 110.09 114.738C110.469 125.815 104.917 132.054 105.408 139.059Z"
        fill="url(#paint0_linear_150598_5272)" />
    </g>
  </g>
  <defs>
    <linearGradient id="paint0_linear_150598_5272" x1="106.043" y1="83.3584" x2="244.692" y2="217.77"
      gradientUnits="userSpaceOnUse">
      <stop stop-color="#172C57" />
      <stop offset="0.5" stop-color="#1E3A71" />
      <stop offset="1" stop-color="#274A91" />
    </linearGradient>
  </defs>
</svg>