<svg width="465" height="367" viewBox="0 0 465 367" fill="none" xmlns="http://www.w3.org/2000/svg">
  <g id="human_2">
    <path id="light-shape-container" fill-rule="evenodd" clip-rule="evenodd"
      d="M87.0663 314.617C87.0663 314.617 156.81 300.584 195.771 334.289C234.732 367.994 329.588 381.815 382.533 343.883C435.478 305.95 441.998 285.731 435.326 252.059C428.655 218.386 402.286 183.92 433.179 155.303C464.072 126.687 485.775 95.7613 432.606 55.1847C415.327 41.9978 419.722 -15.2612 347.726 10.7516C275.73 36.7643 259.565 22.7328 225.349 8.08657C191.133 -6.55963 125.496 -4.42731 104.739 40.8129C83.9819 86.0531 74.4776 90.7304 48.9261 93.224C23.3746 95.7174 15.0502 107.6 17.2228 134.576C19.3954 161.552 25.4022 191.445 10.3103 204.348C-4.78136 217.251 -2.38673 246.875 11.5303 266.533C25.4472 286.19 63.9015 309.685 74.538 311.74C85.1747 313.795 87.0656 314.617 87.0656 314.617H87.0663Z"
      fill="url(#paint0_linear_150598_5305)" />
    <mask id="mask0_150598_5305" style="mask-type:luminance" maskUnits="userSpaceOnUse" x="0" y="0" width="465"
      height="367">
      <path id="light-shape-mask" fill-rule="evenodd" clip-rule="evenodd"
        d="M87.0663 314.617C87.0663 314.617 156.81 300.584 195.771 334.289C234.732 367.994 329.588 381.815 382.533 343.883C435.478 305.95 441.998 285.731 435.326 252.059C428.655 218.386 402.286 183.92 433.179 155.303C464.072 126.687 485.775 95.7613 432.606 55.1847C415.327 41.9978 419.722 -15.2612 347.726 10.7516C275.73 36.7643 259.565 22.7328 225.349 8.08657C191.133 -6.55963 125.496 -4.42731 104.739 40.8129C83.9819 86.0531 74.4776 90.7304 48.9261 93.224C23.3746 95.7174 15.0502 107.6 17.2228 134.576C19.3954 161.552 25.4022 191.445 10.3103 204.348C-4.78136 217.251 -2.38673 246.875 11.5303 266.533C25.4472 286.19 63.9015 309.685 74.538 311.74C85.1747 313.795 87.0663 314.617 87.0663 314.617Z"
        fill="white" />
    </mask>
    <g mask="url(#mask0_150598_5305)">
      <g id="body">
        <path id="hood" fill-rule="evenodd" clip-rule="evenodd"
          d="M322.843 241.153C322.843 241.153 295.894 223.978 294.074 207.006C292.255 190.034 288.187 178.963 273.41 182.728C258.634 186.494 262.348 189.07 255.132 183.348C247.916 177.627 237.545 191.003 222.901 185.13C208.257 179.258 205.476 193.884 206.655 201.016C207.834 208.148 196.469 213.83 189.461 219.304C182.454 224.777 178.457 235.447 197.237 239.463C216.016 243.479 300.058 265.871 310.738 254.922C321.417 243.973 322.843 241.153 322.843 241.153V241.153Z"
          fill="#ECA63D" />
        <path id="body-container" fill-rule="evenodd" clip-rule="evenodd"
          d="M214.95 208.427C216.857 204.258 217.714 198.859 216.945 192.129C215.376 178.389 219.212 176.172 219.212 176.172C219.212 176.172 226.845 166.21 239.83 163.632C252.814 161.054 273.742 171.103 273.078 175.154C272.413 179.205 270.836 180.71 270.678 190.796C270.626 194.149 270.677 197.112 270.993 199.741C271.673 200.617 272.195 201.608 272.533 202.727C274.662 209.793 282.402 215.189 293.307 221.126C293.843 221.383 294.147 221.525 294.147 221.525C294.14 221.535 294.133 221.551 294.128 221.571C303.98 226.885 316.295 232.672 329.345 240.497C357.412 257.326 343.023 334.931 336.261 358.601C329.5 382.271 195.045 373.928 158.921 371.201C122.797 368.474 128.725 306.327 130.243 283.952C131.762 261.577 126.338 240.609 168.26 231.561C201.092 224.474 211.835 213.049 214.95 208.427H214.95Z"
          fill="#FFB233" />
        <mask id="mask1_150598_5305" style="mask-type:luminance" maskUnits="userSpaceOnUse" x="128" y="163" width="219"
          height="212">
          <path id="body-mask" fill-rule="evenodd" clip-rule="evenodd"
            d="M214.95 208.427C216.857 204.258 217.714 198.859 216.945 192.129C215.376 178.389 219.212 176.172 219.212 176.172C219.212 176.172 226.845 166.21 239.83 163.632C252.814 161.054 273.742 171.103 273.078 175.154C272.413 179.205 270.836 180.71 270.678 190.796C270.626 194.149 270.677 197.112 270.993 199.741C271.673 200.617 272.195 201.608 272.533 202.727C274.662 209.793 282.402 215.189 293.307 221.126C293.843 221.383 294.147 221.525 294.147 221.525C294.14 221.535 294.133 221.551 294.128 221.571C303.98 226.885 316.295 232.672 329.345 240.497C357.412 257.326 343.023 334.931 336.261 358.601C329.5 382.271 195.045 373.928 158.921 371.201C122.797 368.474 128.725 306.327 130.243 283.952C131.762 261.577 126.338 240.609 168.26 231.561C201.092 224.474 211.835 213.049 214.95 208.427H214.95Z"
            fill="white" />
        </mask>
        <g mask="url(#mask1_150598_5305)">
          <path id="DESIGNERDEVELOPER" opacity="0.3" fill-rule="evenodd" clip-rule="evenodd"
            d="M239.42 298.485C241.82 298.485 243.88 297.785 245.6 296.385V289.905H238.82V292.905H241.22V294.305C240.84 294.525 240.3 294.625 239.62 294.625C238.64 294.625 237.84 294.325 237.22 293.705C236.6 293.085 236.28 292.265 236.28 291.285V291.245C236.28 290.305 236.58 289.505 237.16 288.885C237.76 288.265 238.52 287.945 239.42 287.945C240.52 287.945 241.56 288.345 242.52 289.165L245.14 286.005C243.52 284.585 241.56 283.885 239.28 283.885C237.06 283.885 235.22 284.585 233.76 285.965C232.3 287.345 231.56 289.085 231.56 291.185V291.225C231.56 293.365 232.32 295.105 233.86 296.485C235.34 297.825 237.2 298.485 239.42 298.485ZM217.16 298.445C219.06 298.445 220.56 298.025 221.66 297.185C222.78 296.325 223.34 295.165 223.34 293.705V293.665C223.34 292.345 222.8 291.325 221.7 290.585C220.8 289.985 219.34 289.505 217.36 289.145C216.12 288.905 215.5 288.605 215.5 288.245V288.205C215.5 287.825 215.84 287.625 216.52 287.625C218.06 287.625 219.46 288.085 220.72 289.005L223 285.845C221.38 284.565 219.28 283.925 216.68 283.925C214.82 283.925 213.34 284.385 212.26 285.285C211.24 286.145 210.74 287.265 210.74 288.645V288.685C210.74 290.025 211.34 291.065 212.52 291.805C213.38 292.345 214.74 292.805 216.64 293.185C217.94 293.445 218.58 293.745 218.58 294.105V294.145C218.58 294.545 218.18 294.745 217.38 294.745C215.54 294.745 213.9 294.205 212.48 293.105L209.98 296.085C211.78 297.665 214.18 298.445 217.16 298.445ZM186.06 298.185C188.8 298.185 190.94 297.525 192.44 296.205C193.86 294.945 194.56 293.245 194.56 291.105V291.065C194.56 288.945 193.86 287.285 192.48 286.065C191.02 284.805 188.94 284.185 186.22 284.185H180.86V298.185H186.06ZM186.32 294.105H185.54V288.265H186.32C188.66 288.265 189.84 289.225 189.84 291.165V291.205C189.84 293.145 188.66 294.105 186.32 294.105ZM208.88 294.345V298.185H196.84V284.185H208.78V288.025H201.44V289.445H208.28V292.825H201.44V294.345H208.88ZM230.14 284.185V298.185H225.46V284.185H230.14ZM252.6 291.725V298.185H247.96V284.185H252.34L257.32 290.365V284.185H261.96V298.185H257.8L252.6 291.725ZM276.6 298.185V294.345H269.16V292.825H276V289.445H269.16V288.025H276.5V284.185H264.56V298.185H276.6ZM283.54 294.185V298.185H278.86V284.185H285.7C288 284.185 289.68 284.725 290.74 285.785C291.6 286.645 292.02 287.745 292.02 289.105V289.145C292.02 291.105 291.1 292.525 289.26 293.425L292.52 298.185H287.18L284.54 294.185H283.54ZM285.56 290.845H283.54V288.105H285.58C286.76 288.105 287.36 288.545 287.36 289.445V289.485C287.36 290.385 286.76 290.845 285.56 290.845ZM181.66 321.205C180.16 322.525 178.02 323.185 175.28 323.185H170.08V309.185H175.44C178.16 309.185 180.24 309.805 181.7 311.065C183.08 312.285 183.78 313.945 183.78 316.065V316.105C183.78 318.245 183.08 319.945 181.66 321.205ZM175.54 319.105H174.76V313.265H175.54C177.88 313.265 179.06 314.225 179.06 316.165V316.205C179.06 318.145 177.88 319.105 175.54 319.105ZM198.1 319.345V323.185H186.06V309.185H198V313.025H190.66V314.445H197.5V317.825H190.66V319.345H198.1ZM209.5 323.285L215.18 309.185H210.02L207.3 317.045L204.58 309.185H199.34L205.02 323.285H209.5ZM228.8 319.345V323.185H216.76V309.185H228.7V313.025H221.36V314.445H228.2V317.825H221.36V319.345H228.8ZM242.32 323.185V319.185H235.74V309.185H231.06V323.185H242.32ZM256.3 321.365C254.8 322.785 252.98 323.485 250.84 323.485C248.7 323.485 246.88 322.785 245.42 321.385C243.96 319.985 243.22 318.265 243.22 316.225V316.185C243.22 314.145 243.96 312.425 245.44 311.005C246.92 309.585 248.74 308.885 250.88 308.885C253.02 308.885 254.84 309.585 256.32 310.985C257.78 312.385 258.5 314.105 258.5 316.145V316.185C258.5 318.225 257.76 319.945 256.3 321.365ZM250.88 319.345C250.02 319.345 249.3 319.025 248.74 318.385C248.2 317.785 247.94 317.045 247.94 316.185V316.145C247.94 315.285 248.2 314.565 248.72 313.965C249.26 313.345 249.98 313.025 250.84 313.025C251.7 313.025 252.42 313.345 252.98 313.985C253.52 314.585 253.78 315.325 253.78 316.185V316.225C253.78 317.085 253.52 317.805 253 318.405C252.46 319.025 251.74 319.345 250.88 319.345ZM265.46 319.385V323.185H260.78V309.185H267.08C269 309.185 270.5 309.605 271.6 310.425C272.76 311.305 273.34 312.545 273.34 314.165V314.205C273.34 315.865 272.76 317.145 271.58 318.065C270.44 318.945 268.92 319.385 266.98 319.385H265.46ZM266.72 316.045H265.46V312.925H266.74C268.06 312.925 268.72 313.445 268.72 314.465V314.505C268.72 315.525 268.06 316.045 266.72 316.045ZM287.38 319.345V323.185H275.34V309.185H287.28V313.025H279.94V314.445H286.78V317.825H279.94V319.345H287.38ZM294.32 323.185V319.185H295.32L297.96 323.185H303.3L300.04 318.425C301.88 317.525 302.8 316.105 302.8 314.145V314.105C302.8 312.745 302.38 311.645 301.52 310.785C300.46 309.725 298.78 309.185 296.48 309.185H289.64V323.185H294.32ZM294.32 315.845H296.34C297.54 315.845 298.14 315.385 298.14 314.485V314.445C298.14 313.545 297.54 313.105 296.36 313.105H294.32V315.845Z"
            fill="#B98A3E" />
          <g id="neck">
            <path id="neck-container" fill-rule="evenodd" clip-rule="evenodd"
              d="M217.455 176.068C217.455 176.068 213.332 178.289 215.018 192.049C216.704 205.81 211.108 214.015 203.504 217.522C195.9 221.028 195.912 261.064 270.311 239.161C299.81 229.606 297.656 221.899 297.982 221.489C297.982 221.489 286.565 216.55 279.996 211.964C273.427 207.378 272.593 200.815 272.762 190.714C272.931 180.613 274.625 179.105 275.34 175.048C276.055 170.991 253.564 160.928 239.611 163.509C225.657 166.091 217.455 176.068 217.455 176.068V176.068Z"
              fill="#FCB8AC" />
            <mask id="mask2_150598_5305" style="mask-type:luminance" maskUnits="userSpaceOnUse" x="200" y="163"
              width="98" height="83">
              <path id="neck-mask" fill-rule="evenodd" clip-rule="evenodd"
                d="M217.455 176.068C217.455 176.068 213.332 178.289 215.018 192.049C216.704 205.81 211.108 214.015 203.504 217.522C195.9 221.028 195.912 261.064 270.311 239.161C299.81 229.606 297.656 221.899 297.982 221.489C297.982 221.489 286.565 216.55 279.996 211.964C273.427 207.378 272.593 200.815 272.762 190.714C272.931 180.613 274.625 179.105 275.34 175.048C276.055 170.991 253.564 160.928 239.611 163.509C225.657 166.091 217.455 176.068 217.455 176.068V176.068Z"
                fill="white" />
            </mask>
            <g mask="url(#mask2_150598_5305)">
              <path id="neck-shadow" fill-rule="evenodd" clip-rule="evenodd"
                d="M197.833 233.779C197.833 233.779 229.242 221.022 232.925 191.436C233.673 187.223 246.435 189.736 260.229 185.885C270.265 183.084 271.43 180.458 275.149 179.33C282.645 177.055 274.265 174.728 265.685 176.609C257.105 178.491 250.818 187.824 232.534 185.924C214.25 184.024 213.936 181.599 213.092 185.494C212.249 189.39 215.104 204.283 211.66 206.946C208.217 209.61 196.039 215.999 196.024 223.092C196.009 230.184 197.833 233.779 197.833 233.779V233.779Z"
                fill="#F48A8B" fill-opacity="0.34" />
            </g>
          </g>
          <path id="arm-left-shadow" fill-rule="evenodd" clip-rule="evenodd"
            d="M201.809 231.856C201.809 231.856 139.451 231.548 137.373 278.566C135.294 325.584 131.319 340.697 146.492 361.622C179.239 406.782 79.4968 377.028 93.8354 323.939C108.684 268.963 134.101 228.155 161.7 224.171C189.3 220.187 195.173 208.51 199.232 213.33C203.291 218.15 202.246 217.78 201.649 219.911C201.052 222.043 201.282 231.887 201.809 231.856Z"
            fill="#ECA63D" />
          <path id="hoodie-string-2" fill-rule="evenodd" clip-rule="evenodd"
            d="M219.218 252.099C220.271 252.438 220.202 253.85 218.69 254.229C214.126 255.429 211.609 260.863 210.326 265.439C207.973 273.829 208.427 282.727 208.733 291.584C209.087 301.826 210.608 312.379 208.734 322.008C207.931 326.131 205.867 330.162 201.918 331.752C200.658 332.259 199.519 330.512 201.357 329.727C205.596 327.849 206.779 322.276 207.142 318.321C208.758 300.708 203.446 282.253 208.319 264.876C208.595 263.893 208.911 262.921 209.279 261.968C209.472 261.466 209.679 260.969 209.903 260.48C210.089 260.072 210.286 259.669 210.495 259.272C212.293 255.857 215.199 252.453 218.876 252.078C218.876 252.078 219.034 252.072 219.218 252.099V252.099Z"
            fill="white" />
          <path id="hoodie-string-1" fill-rule="evenodd" clip-rule="evenodd"
            d="M260.148 249.568C261.117 249.834 261.221 251.07 260.071 251.688C255.957 254.016 256.548 261.216 257.993 267.188C261.486 281.623 266.323 295.964 266.576 310.792C266.699 318.027 265.87 325.618 260.851 330.967C259.406 332.508 257.334 334.996 255.767 334.028C254.153 333.03 257.857 331.229 259.632 329.21C264.058 324.174 264.598 317.053 264.492 310.827C264.234 295.656 258.814 280.776 255.646 266.292C254.398 260.586 254.2 253.739 258.177 250.471C259.027 249.772 259.967 249.551 259.967 249.551C260.027 249.556 260.088 249.562 260.148 249.568V249.568Z"
            fill="white" />
        </g>
      </g>
      <g id="head">
        <g id="face">
          <path id="face-container" fill-rule="evenodd" clip-rule="evenodd"
            d="M188.53 147.431C188.53 147.431 195.124 180.943 223.543 186.582C251.962 192.221 281.618 180.987 285.757 159.843C286.29 156.799 287.056 144.499 290.726 142.243C294.396 139.987 303.268 137.152 302.753 123.862C302.237 110.572 298.406 108.494 294.825 112.282C291.244 116.071 290.383 118.927 289.02 118.648C287.658 118.37 294.036 96.4855 287.169 89.9777C280.301 83.4701 240.617 55.6735 207.711 82.4079C201.357 88.4737 188.552 102.44 188.703 116.688C186.637 114.701 176.812 108.62 176.122 119.308C175.433 129.996 174.834 141.936 188.53 147.431V147.431Z"
            fill="#FCB8AC" />
          <mask id="mask3_150598_5305" style="mask-type:luminance" maskUnits="userSpaceOnUse" x="175" y="71" width="128"
            height="118">
            <path id="face-mask" fill-rule="evenodd" clip-rule="evenodd"
              d="M188.53 147.431C188.53 147.431 195.124 180.943 223.543 186.582C251.962 192.221 281.618 180.987 285.757 159.843C286.29 156.799 287.056 144.499 290.726 142.243C294.396 139.987 303.268 137.152 302.753 123.862C302.237 110.572 298.406 108.494 294.825 112.282C291.244 116.071 290.383 118.927 289.02 118.648C287.658 118.37 294.036 96.4855 287.169 89.9777C280.301 83.4701 240.617 55.6735 207.711 82.4079C201.357 88.4737 188.552 102.44 188.703 116.688C186.637 114.701 176.812 108.62 176.122 119.308C175.433 129.996 174.834 141.936 188.53 147.431V147.431Z"
              fill="white" />
          </mask>
          <g mask="url(#mask3_150598_5305)">
            <path id="face-shadow" fill-rule="evenodd" clip-rule="evenodd"
              d="M234.078 108.42C234.078 108.42 222.183 129.003 223.534 138.866C224.884 148.729 232.339 149.016 234.444 152.398C236.549 155.78 238.177 168.948 233.262 191.72C231.407 200.315 215.613 198.581 204.244 180.846C192.875 163.111 189.61 170.084 191.178 139.708C192.702 110.163 188.89 95.1515 207.358 93.0063C225.825 90.861 235.319 96.4034 235.457 101.616C235.595 106.829 234.078 108.42 234.078 108.42V108.42Z"
              fill="#F48A8B" fill-opacity="0.34" />
          </g>
        </g>
        <g id="eyes">
          <circle id="eye-right" cx="255.14" cy="127.464" r="3.53792" fill="#172C57" />
          <circle id="eye-left" cx="211.431" cy="127.272" r="3.53792" fill="#172C57" />
        </g>
        <path id="lips" fill-rule="evenodd" clip-rule="evenodd"
          d="M253.018 160.209C253.765 160.416 253.823 160.632 253.994 160.905C255.086 162.653 251.75 164.756 248.85 166.057C240.104 169.981 229.369 168.359 220.299 165.116C220.299 165.116 218.954 164.34 219.259 163.212C219.825 161.118 223.82 163.073 227.327 163.855C235.789 165.741 245.321 166.243 251.617 160.572C251.617 160.572 252.172 160.053 253.018 160.209Z"
          fill="#172C57" />
        <path id="hair" fill-rule="evenodd" clip-rule="evenodd"
          d="M188.327 121.549C188.327 121.549 186.192 133.535 189.127 139.677C192.062 145.819 196.527 139.35 195.97 134.159C195.413 128.967 189.841 120.556 199.832 117.883C209.824 115.21 214.443 119.362 224.111 109.417C233.779 99.4707 235.6 106.246 244.046 110.556C252.492 114.866 259.417 117.633 270.29 112.366C281.163 107.1 282.819 113.238 279.026 126.466C275.234 139.694 279.624 144.066 283.716 144.01C287.807 143.954 288.74 135.887 287.179 129.442C285.618 122.997 291.701 114.674 297.544 114.18C303.386 113.686 302.988 118.119 300.84 127.819C298.84 136.854 289.349 138.3 287.647 146.622C285.945 154.943 279.236 171.204 276.069 174.349C272.901 177.494 272.322 178.978 274.899 178.206C278.474 177.136 283.336 171.045 285.947 163.323C288.557 155.6 287.736 151.945 298.26 145.332C308.784 138.718 310.74 135.282 313.128 127.363C315.515 119.444 323.174 102.521 308.151 96.0534C301.025 92.9855 303.042 82.2759 302.482 78.8986C301.921 75.5212 296.576 60.9959 286.651 61.1307C276.725 61.2654 270.98 57.7938 269.545 53.1045C268.109 48.4151 256.251 40.6453 241.695 45.6695C227.138 50.6936 209.618 50.1706 204.715 57.1522C199.627 64.397 195.577 69.54 187.671 70.7533C179.766 71.9667 177.254 80.4285 175.108 88.0763C172.962 95.7238 180.516 101.247 174.48 104.168C169.81 106.428 162.652 117.42 171.313 131.882C179.974 146.344 182.513 142.28 184.528 150.196C186.462 157.792 188.203 164.249 194.587 167.326C200.972 170.403 200.778 175.761 202.752 177.717C203.545 178.502 207.215 179.284 204.374 175.001C201.533 170.719 193.513 164.156 191.33 155.331C189.148 146.505 189.833 147.252 182.101 138.858C174.368 130.464 173.438 114.523 182.494 115.49C190.668 116.227 188.327 121.549 188.327 121.549V121.549Z"
          fill="url(#paint1_linear_150598_5305)" />
      </g>
    </g>
  </g>
  <defs>
    <linearGradient id="paint0_linear_150598_5305" x1="0.000587896" y1="485.706" x2="766.813" y2="485.706"
      gradientUnits="userSpaceOnUse">
      <stop stop-color="#FFF7F7" />
      <stop offset="1" stop-color="#FFC3BF" />
    </linearGradient>
    <linearGradient id="paint1_linear_150598_5305" x1="167.924" y1="45.0743" x2="312.429" y2="181.786"
      gradientUnits="userSpaceOnUse">
      <stop stop-color="#172C57" />
      <stop offset="0.5" stop-color="#1E3A71" />
      <stop offset="1" stop-color="#274A91" />
    </linearGradient>
  </defs>
</svg>