<svg viewBox="0 0 294 364" class="shape-tree-2" fill="none">
  <g id="tree-2" clip-path="url(#clip0_150536_5707)">
    <g id="tree-1">
      <g id="tree-container_2" filter="url(#filter0_d_150536_5707)">
        <path fill-rule="evenodd" clip-rule="evenodd"
          d="M103.129 360.608C103.129 360.608 147.746 340.05 84.037 221.723C20.3286 103.397 5.5104 118.843 1.56378 60.1C-2.38242 1.35729 63.7571 -18.4165 78.0948 21.7927C92.4322 62.0017 73.4366 110.396 138.916 169.389C204.395 228.382 234.903 220.414 238.518 181.503C242.133 142.591 237.42 102.822 219.839 86.9101C202.575 71.2853 204.832 51.8826 230.125 52.0496C245.8 52.1531 267.807 67.1983 276.032 90.8024C289.82 130.368 254.235 171.345 271.022 206.811C287.81 242.277 302.789 249.683 289.335 268.93C275.881 288.178 137.848 361.924 118.542 363.369C99.2365 364.815 103.129 360.608 103.129 360.608Z"
          fill="url(#paint0_linear_150536_5707)" />
      </g>
      <path class="tree-root" fill-rule="evenodd" clip-rule="evenodd"
        d="M188.703 323.061C188.703 323.061 191.319 277.4 145.014 239.421C142.259 237.161 139.528 234.77 136.828 232.263C136.664 232.374 136.439 232.221 136.134 231.615C123.133 219.426 110.836 204.57 99.8381 188.809C89.615 181.198 75.7794 178.367 75.7794 178.367C75.7794 178.367 66.0866 176.879 83.0384 179.455C88.7495 180.324 93.5343 182.594 97.3688 185.223C82.395 163.193 70.003 139.678 61.7749 119.376C53.3943 109.163 39.4242 103.119 39.4242 103.119C39.4242 103.119 30.2388 99.673 46.3084 105.674C52.3303 107.923 56.8724 111.633 60.1982 115.394C56.2933 105.285 53.4946 96.0899 52.0108 88.4274C49.8416 77.2252 48.4225 69.9925 47.4994 65.3606C49.8757 75.6276 54.9649 95.2614 63.0507 114.992C66.9056 124.398 70.4918 132.539 74.1933 140.125C73.0457 134.118 72.6869 125.415 76.977 116.864C84.6423 101.587 80.2715 110.331 80.2715 110.331C80.2715 110.331 71.8705 129.465 76.1646 144.091C83.1543 157.892 90.7786 170.207 101.516 185.628C115.134 205.185 123.064 215.069 133.601 225.08C132.499 222.365 127.397 208.237 134.288 194.504C141.953 179.226 137.583 187.97 137.583 187.97C137.583 187.97 126.834 212.452 135.868 227.199C138.235 229.379 140.752 231.596 143.502 233.951C159.86 247.961 171.859 262.03 179.115 277.116C190.843 301.502 188.703 323.061 188.703 323.061ZM45.9134 58.0351C45.9134 58.0351 46.4335 60.7557 47.4994 65.3606C45.3052 54.3514 45.9134 58.0351 45.9134 58.0351Z"
        fill="#F0B6B3" />
      <path class="tree-root" fill-rule="evenodd" clip-rule="evenodd"
        d="M254.326 267.168C254.326 267.168 237.045 242.58 249.72 205.629C254.176 192.637 256.56 177.371 257.387 162.009C260.453 154.283 267.19 147.996 267.19 147.996C267.19 147.996 272.082 143.867 263.518 151.073C260.633 153.501 258.75 156.396 257.522 159.168C258.242 141.783 257.008 124.448 254.565 110.322C255.699 101.768 261.402 93.6365 261.402 93.6365C261.402 93.6365 265.333 88.5879 258.447 97.4052C255.865 100.712 254.616 104.33 254.064 107.562C252.74 100.591 251.115 94.5066 249.288 89.7254C246.617 82.7382 244.903 78.22 243.813 75.3211C242.811 72.3874 242.159 70.6914 242.159 70.6914C242.159 70.6914 241.221 68.4285 243.813 75.3211C246.045 81.8595 250.008 94.5454 252.333 108.305C253.442 114.867 254.262 120.632 254.825 126.126C253.385 122.383 250.569 117.4 245.21 114.087C235.64 108.171 241.108 111.562 241.108 111.562C241.108 111.562 252.434 119.386 255.1 129.015C255.982 139.091 255.995 148.555 255.348 160.81C254.544 176.046 253.568 184.239 251.261 193.193C250.788 191.15 249.185 186.141 244.428 183.201C238.348 179.441 241.822 181.596 241.822 181.596C241.822 181.596 250.208 187.389 251.006 194.164C250.34 196.662 249.569 199.24 248.668 202.063C244.396 215.448 242.576 227.381 243.756 238.268C245.662 255.867 254.326 267.168 254.326 267.168Z"
        fill="#F0B6B3" />
    </g>
  </g>
  <defs>
    <filter id="filter0_d_150536_5707" x="-18.6055" y="0.707031" width="317.144" height="386.965"
      filterUnits="userSpaceOnUse" color-interpolation-filters="sRGB">
      <feFlood flood-opacity="0" result="BackgroundImageFix" />
      <feColorMatrix in="SourceAlpha" type="matrix" values="0 0 0 0 0 0 0 0 0 0 0 0 0 0 0 0 0 0 127 0"
        result="hardAlpha" />
      <feOffset dx="-8" dy="12" />
      <feGaussianBlur stdDeviation="6" />
      <feComposite in2="hardAlpha" operator="out" />
      <feColorMatrix type="matrix" values="0 0 0 0 0 0 0 0 0 0 0 0 0 0 0 0 0 0 0.01 0" />
      <feBlend mode="normal" in2="BackgroundImageFix" result="effect1_dropShadow_150536_5707" />
      <feBlend mode="normal" in="SourceGraphic" in2="effect1_dropShadow_150536_5707" result="shape" />
    </filter>
    <linearGradient id="paint0_linear_150536_5707" class="tree-container" x1="107.674" y1="-66.7968" x2="222.085"
      y2="380.703" gradientUnits="userSpaceOnUse">
      <stop stop-color="white" stop-opacity="0.24" />
      <stop offset="1" stop-color="white" stop-opacity="0.62" />
    </linearGradient>
    <clipPath id="clip0_150536_5707">
      <rect width="294" height="364" fill="white" transform="translate(0.5 0.5)" />
    </clipPath>
  </defs>
</svg>