<?xml version="1.0" encoding="UTF-8"?>
<svg width="60px" height="60px" viewBox="0 0 60 60" version="1.1" xmlns="http://www.w3.org/2000/svg" xmlns:xlink="http://www.w3.org/1999/xlink">
    <!-- Generator: Sketch 60.1 (88133) - https://sketch.com -->
    <title>Logo</title>
    <desc>Created with Sketch.</desc>
    <g id="Page-1" stroke="none" stroke-width="1" fill="none" fill-rule="evenodd">
        <g id="Portfolio---2" transform="translate(-150.000000, -40.000000)" fill-rule="nonzero">
            <g id="Navigation" transform="translate(150.000000, 40.000000)">
                <g id="Logo">
                    <circle id="Oval" fill="#FFFAFA" cx="29.9500904" cy="29.9500904" r="29.9457505"></circle>
                    <path d="M49.8759494,29.0918626 L49.8705244,29.0918626 C48.9704915,28.9345379 48.0617894,28.8316386 47.1493671,28.7837251 C46.6958409,28.7584087 46.2423146,28.7461121 45.7887884,28.7468354 L45.7345389,28.7468354 C45.8202156,28.0204471 45.4599626,27.313957 44.8217189,26.9567097 C44.1834753,26.5994625 43.3928894,26.6617878 42.8185088,27.1146315 C42.2441281,27.5674752 41.9990286,28.3216879 42.1974684,29.0256781 C39.7633343,29.3895607 37.3996895,30.125844 35.1895118,31.2086799 C35.1038403,30.9323781 34.952293,30.6810405 34.7479204,30.476311 C34.0471003,29.8074005 32.9432509,29.8108664 32.2466451,30.4841647 C31.5500393,31.1574629 31.5090243,32.2605554 32.1537071,32.9837251 C31.2815866,33.579667 30.4510912,34.2343482 29.6679928,34.9432188 C28.6475507,34.0259977 27.551427,33.1966457 26.3913201,32.4640145 C26.0104882,32.2155515 25.6166365,31.9855335 25.2184448,31.7685353 C24.8202532,31.5515371 24.4198915,31.3345389 24.0086799,31.1457505 C23.1985283,30.7509386 22.3651712,30.4056389 21.5132007,30.1117541 C20.6854483,29.8173052 19.8413634,29.5709628 18.9851718,29.3739602 C18.9605842,29.3710439 18.9364993,29.3648402 18.9135624,29.3555154 C18.8224231,29.3381555 18.7377939,29.3251356 18.6531646,29.3077758 C18.4177215,29.2524412 18.1877034,29.1992767 17.9522604,29.162387 C17.8665461,29.1439421 17.7764919,29.1320072 17.6853526,29.1135624 C17.4130199,28.9084991 16.7088608,28.2455696 17.4737794,27.4144665 C18.3992767,26.405425 20.8665461,27.0097649 21.5858951,27.4144665 C22.3052441,27.8191682 22.9963834,27.8083183 23.3511754,27.2148282 C23.7059675,26.6213382 23.0669078,25.9942134 22.6133816,25.6676311 C22.1598553,25.3410488 21.0943942,23.9381555 22.0936709,23.2003617 C23.0929476,22.4625678 24.6336347,24.7779385 25.9334539,24.0282098 C27.2332731,23.278481 25.7826401,21.8039783 25.4191682,21.4708861 C25.0556962,21.1377939 25.19566,18.8669078 28.2911392,20.7699819 C31.3866184,22.6730561 31.1815552,23.9381555 31.1576854,24.3070524 C31.1338156,24.6759494 31.2303797,25.5406872 32.2698011,25.6188065 C33.3092224,25.6969259 35.275226,24.4253165 33.7638336,22.4083183 C32.2524412,20.3913201 32.2339964,17.9598553 34.8401447,18.2115732 C37.4462929,18.4632911 38.1287523,19.9291139 38.5041591,20.5985533 C38.879566,21.2679928 39.8191682,21.9168174 40.4701627,21.5913201 C41.1211573,21.2658228 41.4379747,20.4965642 40.7186257,19.5352622 C40.1381555,18.7486438 40.561302,18.2712477 40.7424955,18.1139241 C40.7490054,18.120434 40.7544304,18.120434 40.7609403,18.125859 C41.1949367,18.3797468 41.6007233,18.6455696 42.0119349,18.9428571 C42.0695442,18.9742788 42.1243558,19.0105778 42.1757685,19.0513562 C42.5804702,19.3356239 42.9797468,19.6437613 43.3692586,19.9638336 C43.8954792,20.39783 44.4151899,20.8708861 44.9164557,21.3667269 C47.1042599,23.5564959 48.7956494,26.1910821 49.8759494,29.0918626 L49.8759494,29.0918626 Z" id="Path" fill="#FFFFFF"></path>
                    <path d="M40.4701627,21.5913201 C39.8115732,21.9113924 38.8860759,21.2517179 38.5052441,20.5931284 C38.1244123,19.9345389 37.4473779,18.4589512 34.8412297,18.2061483 C32.2350814,17.9533454 32.2535262,20.3761302 33.7649186,22.4028933 C35.276311,24.4296564 33.3113924,25.6860759 32.2708861,25.6133816 C31.2303797,25.5406872 31.1283906,24.6705244 31.1587703,24.3016275 C31.1891501,23.9327306 31.3942134,22.674141 28.2922242,20.764557 C25.1902351,18.8549729 25.0632911,21.1334539 25.4202532,21.4654611 C25.7772152,21.7974684 27.2278481,23.279566 25.9345389,24.0227848 C24.6412297,24.7660036 23.0983725,22.4571429 22.0947559,23.1949367 C21.0911392,23.9327306 22.1609403,25.3291139 22.6144665,25.6622061 C23.0679928,25.9952984 23.6994575,26.6169982 23.3522604,27.2094033 C23.0050633,27.8018083 22.3063291,27.8148282 21.5869801,27.4090416 C20.8676311,27.003255 18.4003617,26.4 17.4748644,27.4090416 C16.7153707,28.2433996 17.4141049,28.9030741 17.6864376,29.1081374 C17.4444846,29.0658228 17.2025316,29.0235081 16.9605787,28.9877034 C15.8280963,28.8273467 14.6855456,28.7486626 13.5417722,28.7522604 C12.172138,28.7528706 10.804965,28.8682837 9.45461121,29.0972875 C9.56311031,28.8314647 9.6596745,28.5710669 9.76925859,28.3117541 C10.963507,28.0026731 12.1932215,27.8520139 13.4267631,27.8636528 C13.8379747,27.8701627 14.2437613,27.8940325 14.6549729,27.9363472 C14.7112339,27.9415656 14.7677358,27.9437387 14.8242315,27.9428571 C15.1722874,27.895128 15.4449941,27.6197521 15.4893309,27.2712477 L15.4893309,27.2647378 C15.5012938,27.2089524 15.5012938,27.1512646 15.4893309,27.0954792 C15.4456076,26.7454372 15.1681728,26.4706916 14.8177215,26.4303797 C14.2894566,26.3738948 13.7583823,26.347812 13.2271248,26.3522604 C12.341539,26.353752 11.4576907,26.4307031 10.5851718,26.5822785 C10.80217,26.159132 11.038698,25.7479204 11.2871609,25.3432188 C12.5911298,24.912302 13.9524276,24.679689 15.3254973,24.6531646 L15.8332731,24.6531646 C16.5246264,24.6701665 17.213726,24.7390764 17.8947559,24.8593128 C18.2267631,24.9200723 18.5717902,24.9927667 18.9037975,25.076311 C19.0730561,25.1186257 19.2433996,25.1663653 19.4126582,25.2086799 C19.478418,25.2325465 19.5477668,25.245022 19.6177215,25.2455696 C19.9517084,25.2506887 20.2483226,25.0329943 20.3435805,24.7128391 C20.3622562,24.643809 20.3724579,24.5727618 20.3739602,24.5012658 C20.3849069,24.1596577 20.1608002,23.8548726 19.8314647,23.763472 C18.3638106,23.3296819 16.8382825,23.1236679 15.3081374,23.1526221 C14.3974847,23.1691791 13.4899592,23.2642877 12.59566,23.4368897 C12.8972875,23.0506329 13.2119349,22.6687161 13.5385172,22.3009042 C15.2635789,21.5636419 17.1233986,21.1941168 18.9992767,21.2159132 C20.0426679,21.2298447 21.0811199,21.3619716 22.0947559,21.6097649 C22.5059622,21.7089135 22.9115993,21.8298803 23.3099458,21.9721519 C23.3810599,21.9919126 23.4536155,22.006061 23.5269439,22.0144665 C23.9412257,22.0292452 24.2908292,21.7090972 24.3124774,21.2951175 C24.3161031,21.259042 24.3161031,21.2226939 24.3124774,21.1866184 C24.2873167,20.8901711 24.0913836,20.6357125 23.8112116,20.5356239 C22.2307,19.9845553 20.568943,19.7025224 18.8951175,19.7012658 C18.7312839,19.7012658 18.5620253,19.7012658 18.3992767,19.7066908 C18.0661844,19.7132007 17.7396022,19.7316456 17.4075949,19.7609403 C16.923689,19.8162749 16.4311031,19.8824593 15.9385172,19.9779385 C16.1804702,19.7783002 16.4224231,19.5851718 16.6698011,19.3974684 C16.923689,19.2889693 17.1721519,19.19783 17.4292948,19.1077758 C17.6864376,19.0177215 17.9251356,18.9385172 18.1790235,18.8777577 L18.1844485,18.8712477 C18.6872483,18.7357906 19.1982522,18.632865 19.7142857,18.5631103 L19.7207957,18.5631103 C19.9681736,18.5207957 20.2285714,18.4969259 20.4802893,18.478481 C20.6072333,18.4719711 20.7461121,18.4600362 20.8676311,18.4481013 C21.1269439,18.4296564 21.3873418,18.4296564 21.6347197,18.4361664 C23.943796,18.4501561 26.2235035,18.9549908 28.322604,19.917179 C28.4306568,19.9666283 28.5489162,19.9896852 28.6676311,19.9844485 C28.9506143,19.9788527 29.2046207,19.8095151 29.3186257,19.5504521 C29.3686371,19.4428045 29.3934961,19.3251877 29.3913201,19.2065099 C29.3855984,18.9201035 29.2171729,18.6619914 28.9573237,18.5414105 C28.050673,18.1331554 27.1123168,17.7993241 26.1515371,17.5432188 C25.9887884,17.4954792 25.8195298,17.4531646 25.6437613,17.4108499 C24.4229005,17.1176062 23.1742498,16.9553871 21.9189873,16.9269439 L21.3764919,16.9269439 L20.8339964,16.9443038 C21.5710493,16.6080066 22.3284031,16.3181104 23.1016275,16.076311 C23.7609704,15.9802644 24.4254268,15.9233835 25.0915009,15.9059675 C25.3084991,15.9005425 25.5385172,15.8940325 25.7566004,15.9059675 C27.4729102,15.930889 29.176465,16.205373 30.8137432,16.7207957 C31.5462215,16.9485064 32.2591909,17.2347826 32.9457505,17.5768535 C33.053369,17.6346719 33.1740581,17.6638167 33.2962025,17.6614828 C33.4957129,17.6597663 33.6863357,17.578711 33.8259839,17.4362129 C33.9656321,17.2937147 34.0428203,17.1014935 34.0405063,16.9019892 C34.0431485,16.6196678 33.8860546,16.3600848 33.6347197,16.2314647 C32.6561256,15.7461236 31.6310376,15.3608068 30.5750452,15.0813743 C32.7013579,15.1634308 34.8031257,15.565788 36.8094033,16.2748644 L36.8159132,16.2683544 C37.5988918,16.5389902 38.3642136,16.8582366 39.1074141,17.2242315 C39.2582278,17.2969259 39.4036166,17.3750452 39.5544304,17.4477396 C39.8506329,17.5985533 40.1468354,17.762387 40.437613,17.9316456 C40.5406872,17.9858951 40.6426763,18.0520796 40.7457505,18.1128391 C40.564557,18.2701627 40.1414105,18.7475588 40.7218807,19.5341772 C41.4466546,20.4998192 41.1385172,21.2734177 40.4701627,21.5913201 Z" id="Path" fill="#FFD7D7"></path>
                    <path d="M53.1840868,30.3916817 C53.1192822,30.1589244 52.9678851,29.959779 52.7609403,29.8350814 L52.6394213,29.7688969 C51.506091,25.9509744 49.4382366,22.476084 46.6231465,19.6589512 C37.2694394,10.3074141 22.0556962,10.3074141 12.7074141,19.6535262 C9.72999299,22.6323808 7.58854046,26.3420366 6.49801085,30.4101266 C6.39083673,30.825994 6.50988742,31.2675938 6.81157324,31.5732369 C7.11509939,31.8816775 7.56180482,32.0016569 7.97902351,31.8867993 C15.0753735,30.0087221 22.6400561,31.8507886 28.078481,36.7811935 C28.0678958,37.0264689 28.1598819,37.2650824 28.3323689,37.439783 C28.3883213,37.4962325 28.4514257,37.5451111 28.5200723,37.5851718 C31.9493051,39.5951244 35.9561763,40.3898472 39.8929476,39.840868 C38.0628181,44.8896045 33.2428098,48.2311924 27.8729076,48.1740528 C22.5030055,48.1169132 17.7551943,44.6735168 16.0329114,39.5869801 C16.0088918,39.5119373 15.955655,39.4497342 15.8852211,39.4144152 C15.8147872,39.3790962 15.7330952,39.3736393 15.6585895,39.3992767 C15.5818832,39.4215513 15.5174241,39.4738613 15.4798359,39.5443392 C15.4422476,39.6148172 15.4347165,39.6974887 15.4589512,39.7735986 C16.2189436,42.1232129 17.5264809,44.2585596 19.2737794,46.0036166 C25.3811935,52.1110307 35.3164557,52.1110307 41.4227848,46.0036166 C43.372011,44.0571484 44.7700069,41.6284394 45.474141,38.9652803 L45.6737794,38.0647378 C45.7887884,38.0039783 45.9092224,37.9562387 46.0188065,37.8954792 L46.4896926,37.6350814 C49.2291462,36.0693344 51.5069133,33.8084092 53.0929476,31.080651 C53.2110175,30.8713339 53.2436697,30.6244994 53.1840868,30.3916817 Z M45.1627486,34.7696203 C42.3741501,34.8081465 39.6320808,35.489858 37.1500904,36.7616637 C37.1370705,36.7616637 37.1294756,36.7746835 37.1164557,36.7790235 L36.8994575,36.8875226 C36.6658308,37.0119865 36.3784326,36.970239 36.1898734,36.7844485 C36.1464951,36.7401845 36.10993,36.6897247 36.0813743,36.6347197 C36.0061195,36.493227 35.9903711,36.3275729 36.037616,36.1744344 C36.0848608,36.0212959 36.1912011,35.8933074 36.3330922,35.8188065 L36.5218807,35.7244123 C36.5349005,35.7113924 36.5479204,35.7070524 36.5555154,35.6983725 C39.2073621,34.3284952 42.1423864,33.5965967 45.1269439,33.5609403 C45.2868442,33.5574515 45.4415635,33.6177183 45.5569735,33.7284467 C45.6723835,33.8391752 45.7390019,33.9912678 45.7421338,34.1511754 C45.7482805,34.3102779 45.6904739,34.4652189 45.5816166,34.5814148 C45.4727594,34.6976107 45.3219136,34.7653886 45.1627486,34.7696203 L45.1627486,34.7696203 Z M49.8705244,29.0918626 C48.9704915,28.9345379 48.0617894,28.8316386 47.1493671,28.7837251 C46.6958409,28.7584087 46.2423146,28.7461121 45.7887884,28.7468354 L45.7345389,28.7468354 C42.0797043,28.7689484 38.4763259,29.610194 35.1895118,31.2086799 C34.1329798,31.722682 33.1173533,32.3168235 32.1515371,32.9858951 C31.2794166,33.5818369 30.4489212,34.2365181 29.6658228,34.9453888 C28.6453808,34.0281676 27.549257,33.1988157 26.3891501,32.4661844 C26.0083183,32.2177215 25.6144665,31.9877034 25.2162749,31.7707052 C24.8180832,31.5537071 24.4177215,31.3367089 24.0065099,31.1479204 C23.1963583,30.7531086 22.3630012,30.4078089 21.5110307,30.1139241 C20.6832783,29.8194752 19.8391935,29.5731328 18.9830018,29.3761302 C18.9584142,29.3732138 18.9343293,29.3670102 18.9113924,29.3576854 C18.8202532,29.3403255 18.7356239,29.3273056 18.6509946,29.3099458 C18.4155515,29.2546112 18.1855335,29.2014467 17.9500904,29.164557 C17.8643761,29.1461121 17.7743219,29.1341772 17.6831826,29.1157324 C17.4412297,29.0734177 17.1992767,29.0311031 16.9573237,28.9952984 C15.8261,28.8325562 14.6846418,28.7513343 13.5417722,28.7522604 C12.172138,28.7528706 10.804965,28.8682837 9.45461121,29.0972875 C9.56311031,28.8314647 9.6596745,28.5710669 9.76925859,28.3117541 C10.963507,28.0026731 12.1932215,27.8520139 13.4267631,27.8636528 C13.8379747,27.8701627 14.2437613,27.8940325 14.6549729,27.9363472 C14.7112339,27.9415656 14.7677358,27.9437387 14.8242315,27.9428571 C15.1722874,27.895128 15.4449941,27.6197521 15.4893309,27.2712477 L15.4893309,27.2647378 C15.5012938,27.2089524 15.5012938,27.1512646 15.4893309,27.0954792 C15.4456076,26.7454372 15.1681728,26.4706916 14.8177215,26.4303797 C14.2894566,26.3738948 13.7583823,26.347812 13.2271248,26.3522604 C12.341539,26.353752 11.4576907,26.4307031 10.5851718,26.5822785 C10.80217,26.159132 11.038698,25.7479204 11.2871609,25.3432188 C12.5911298,24.912302 13.9524276,24.679689 15.3254973,24.6531646 L15.8332731,24.6531646 C16.5246264,24.6701665 17.213726,24.7390764 17.8947559,24.8593128 C18.2267631,24.9200723 18.5717902,24.9927667 18.9037975,25.076311 C19.0730561,25.1186257 19.2433996,25.1663653 19.4126582,25.2086799 C19.478418,25.2325465 19.5477668,25.245022 19.6177215,25.2455696 C19.9517084,25.2506887 20.2483226,25.0329943 20.3435805,24.7128391 C20.3622562,24.643809 20.3724579,24.5727618 20.3739602,24.5012658 C20.3849069,24.1596577 20.1608002,23.8548726 19.8314647,23.763472 C18.3638106,23.3296819 16.8382825,23.1236679 15.3081374,23.1526221 C14.3974847,23.1691791 13.4899592,23.2642877 12.59566,23.4368897 C12.8972875,23.0506329 13.2119349,22.6687161 13.5385172,22.3009042 C15.2635789,21.5636419 17.1233986,21.1941168 18.9992767,21.2159132 C20.0426679,21.2298447 21.0811199,21.3619716 22.0947559,21.6097649 C22.5059622,21.7089135 22.9115993,21.8298803 23.3099458,21.9721519 C23.3810599,21.9919126 23.4536155,22.006061 23.5269439,22.0144665 C23.9412257,22.0292452 24.2908292,21.7090972 24.3124774,21.2951175 C24.3161031,21.259042 24.3161031,21.2226939 24.3124774,21.1866184 C24.2873167,20.8901711 24.0913836,20.6357125 23.8112116,20.5356239 C22.2307,19.9845553 20.568943,19.7025224 18.8951175,19.7012658 C18.7312839,19.7012658 18.5620253,19.7012658 18.3992767,19.7066908 C18.0661844,19.7132007 17.7396022,19.7316456 17.4075949,19.7609403 C16.923689,19.8162749 16.4311031,19.8824593 15.9385172,19.9779385 C16.1804702,19.7783002 16.4224231,19.5851718 16.6698011,19.3974684 C16.923689,19.2889693 17.1721519,19.19783 17.4292948,19.1077758 C17.6864376,19.0177215 17.9251356,18.9385172 18.1790235,18.8777577 L18.1844485,18.8712477 C18.6872483,18.7357906 19.1982522,18.632865 19.7142857,18.5631103 L19.7207957,18.5631103 C19.9681736,18.5207957 20.2285714,18.4969259 20.4802893,18.478481 C20.6072333,18.4719711 20.7461121,18.4600362 20.8676311,18.4481013 C21.1269439,18.4296564 21.3873418,18.4296564 21.6347197,18.4361664 C23.943796,18.4501561 26.2235035,18.9549908 28.322604,19.917179 C28.4306568,19.9666283 28.5489162,19.9896852 28.6676311,19.9844485 C28.9506143,19.9788527 29.2046207,19.8095151 29.3186257,19.5504521 C29.3686371,19.4428045 29.3934961,19.3251877 29.3913201,19.2065099 C29.3855984,18.9201035 29.2171729,18.6619914 28.9573237,18.5414105 C28.050673,18.1331554 27.1123168,17.7993241 26.1515371,17.5432188 C25.9887884,17.4954792 25.8195298,17.4531646 25.6437613,17.4108499 C24.4229005,17.1176062 23.1742498,16.9553871 21.9189873,16.9269439 L21.3764919,16.9269439 L20.8339964,16.9443038 C21.5710493,16.6080066 22.3284031,16.3181104 23.1016275,16.076311 C23.7609704,15.9802644 24.4254268,15.9233835 25.0915009,15.9059675 C25.3084991,15.9005425 25.5385172,15.8940325 25.7566004,15.9059675 C27.4729102,15.930889 29.176465,16.205373 30.8137432,16.7207957 C31.5462215,16.9485064 32.2591909,17.2347826 32.9457505,17.5768535 C33.053369,17.6346719 33.1740581,17.6638167 33.2962025,17.6614828 C33.4957129,17.6597663 33.6863357,17.578711 33.8259839,17.4362129 C33.9656321,17.2937147 34.0428203,17.1014935 34.0405063,16.9019892 C34.0431485,16.6196678 33.8860546,16.3600848 33.6347197,16.2314647 C32.6561256,15.7461236 31.6310376,15.3608068 30.5750452,15.0813743 C32.7013579,15.1634308 34.8031257,15.565788 36.8094033,16.2748644 L36.8159132,16.2683544 C37.5988918,16.5389902 38.3642136,16.8582366 39.1074141,17.2242315 C39.2582278,17.2969259 39.4036166,17.3750452 39.5544304,17.4477396 C39.8506329,17.5985533 40.1468354,17.762387 40.437613,17.9316456 C40.5406872,17.9858951 40.6426763,18.0520796 40.7457505,18.1128391 C40.7522604,18.119349 40.7576854,18.119349 40.7641953,18.124774 C41.1981917,18.3786618 41.6039783,18.6444846 42.0151899,18.9417722 C42.0727992,18.9731938 42.1276108,19.0094929 42.1790235,19.0502712 C42.5837251,19.3345389 42.9830018,19.6426763 43.3725136,19.9627486 C43.8987342,20.396745 44.4184448,20.8698011 44.9197107,21.365642 C47.106733,23.5545701 48.7977242,26.1880021 49.8781193,29.0875226 L49.8705244,29.0918626 Z" id="Shape" fill="#D85957"></path>
                    <path d="M45.1627486,34.7696203 C42.3744015,34.8074148 39.6325204,35.4891718 37.1511754,36.7616637 C37.1381555,36.7616637 37.1294756,36.7746835 37.1164557,36.7790235 L36.8994575,36.8875226 C36.6661241,37.0126276 36.3785263,36.971291 36.1898734,36.7855335 C36.1467671,36.7410406 36.1102322,36.6906225 36.0813743,36.6358047 C36.0064511,36.4939605 35.9909965,36.3281479 36.0384156,36.1749007 C36.0858347,36.0216535 36.1922365,35.8935468 36.3341772,35.8188065 L36.5218807,35.7254973 C36.5349005,35.7124774 36.5479204,35.7081374 36.5566004,35.6994575 C39.2083335,34.3292787 42.1434302,33.5973622 45.1280289,33.5620253 C45.2878271,33.5582439 45.4425504,33.6182661 45.5579932,33.7288224 C45.673436,33.8393787 45.7400898,33.9913632 45.7432188,34.1511754 C45.7496638,34.310541 45.6918104,34.4658139 45.5826567,34.5821085 C45.4735031,34.698403 45.3222027,34.7659669 45.1627486,34.7696203 Z" id="Path" fill="#F2BBBB"></path>
                    <path d="M34.7479204,33.0347197 C34.4101016,33.3742208 33.9509101,33.5650925 33.4719711,33.5650925 C32.9930321,33.5650925 32.5338406,33.3742208 32.1960217,33.0347197 C32.1801003,33.0201125 32.1659031,33.003731 32.1537071,32.9858951 C31.4941538,32.2646257 31.5283136,31.1494716 32.2307772,30.469924 C32.9332408,29.7903764 34.0489145,29.7932073 34.7479204,30.476311 C35.448684,31.1851564 35.448684,32.3258744 34.7479204,33.0347197 L34.7479204,33.0347197 Z" id="Path" fill="#D85957"></path>
                    <path d="M45.7345389,28.7522604 C45.6907415,29.1589201 45.5065808,29.5376005 45.2137432,29.8231465 C44.8748544,30.1627082 44.4148186,30.3535287 43.9350814,30.3535287 C43.4553442,30.3535287 42.9953083,30.1627082 42.6564195,29.8231465 C42.4362883,29.6042072 42.2779546,29.3309599 42.1974684,29.0311031 C42.0016496,28.3282211 42.2476175,27.5765313 42.821063,27.125368 C43.3945086,26.6742047 44.1829717,26.6120467 44.8200285,26.9677808 C45.4570853,27.323515 45.8178007,28.0273773 45.7345389,28.7522604 L45.7345389,28.7522604 Z" id="Path" fill="#D85957"></path>
                </g>
            </g>
        </g>
    </g>
</svg>