<svg width="294px" height="364px" viewBox="0 0 294 364" class="shape-tree-2">
    <!-- Generator: Sketch 60.1 (88133) - https://sketch.com -->
    <title>Tree 1</title>
    <desc>Created with Sketch.</desc>
    <g id="Page-1" stroke="none" stroke-width="1" fill="none" fill-rule="evenodd">
        <g id="Portfolio---2" transform="translate(-921.000000, -3307.000000)">
            <g id="Tree-1" transform="translate(1049.000000, 3488.000000) rotate(31.000000) translate(-1049.000000, -3488.000000) translate(866.000000, 3320.000000)">
                <path d="M253.499248,334.592339 C253.499248,334.592339 281.155383,293.991346 165.603939,225.378171 C50.0524958,156.764689 45.306068,177.636427 11.6684742,129.31684 C-21.9688122,80.9969462 24.5396009,29.9831124 57.5386191,57.0646668 C90.5373298,84.1462212 99.1797761,135.411518 185.690018,152.254014 C272.200259,169.096817 294.246952,146.554492 277.304867,111.338616 C260.362475,76.1227392 235.840187,44.4617331 212.575374,39.8773687 C189.729923,35.3759043 181.670711,17.5825159 203.437316,4.6986436 C216.926727,-3.2858447 243.539067,-1.72394922 262.74645,14.2723536 C294.942406,41.0852509 285.545168,94.5375698 318.201378,116.291424 C350.857896,138.045278 367.510977,136.678658 365.892248,160.105862 C364.273211,183.533373 283.938122,317.838884 268.133913,329.021159 C252.330012,340.203127 253.499248,334.592339 253.499248,334.592339 L253.499248,334.592339 Z" id="Path" fill="#FFCFCB"></path>
                <g id="Group" transform="translate(48.000000, 104.000000)" fill="#F0B6B3">
                    <path d="M259.513043,154.334521 C259.513043,154.334521 238.238495,113.848349 178.986038,105.142558 C119.733581,96.4367679 47.2615549,52.2684731 21.4998447,23.6161163 C-4.26155768,-5.03593381 0.62018191,0.705269912 0.62018191,0.705269912 C0.62018191,0.705269912 19.8855251,22.2350138 44.6444796,40.7002067 C69.4034342,59.1653995 86.0166148,68.890765 113.996514,81.4362902 C141.976106,93.9818153 153.636141,97.6498322 174.873447,101.233217 C196.111061,104.816908 213.641434,110.696099 227.631076,119.890979 C250.243555,134.753162 259.513043,154.334521 259.513043,154.334521 L259.513043,154.334521 Z" id="Path"></path>
                    <path d="M73.1137532,61.9932252 C73.1137532,61.9932252 58.844337,52.1758681 57.54611,35.1328673 C56.2481909,18.0898666 57.0050283,27.8357769 57.0050283,27.8357769 C57.0050283,27.8357769 60.7270431,56.9088425 77.9828737,63.3436638 C77.9828737,63.3436638 80.7895431,67.8442058 77.8779199,65.7455678 C74.9659888,63.6469299 73.1137532,61.9932252 73.1137532,61.9932252 L73.1137532,61.9932252 Z" id="Path"></path>
                    <path d="M162.226045,99.0260284 C162.226045,99.0260284 147.956629,89.2083646 146.65871,72.1653639 C145.360483,55.1223631 146.117628,64.86858 146.117628,64.86858 C146.117628,64.86858 149.839643,93.941339 167.095474,100.37616 C167.095474,100.37616 169.902143,104.876702 166.990212,102.778064 C164.078589,100.679426 162.226045,99.0260284 162.226045,99.0260284 Z" id="Path"></path>
                    <path d="M55.5516789,49.4179561 C55.5516789,49.4179561 42.3598095,38.2038578 25.4948627,41.3364828 C8.62960814,44.4688011 18.2776689,42.691521 18.2776689,42.691521 C18.2776689,42.691521 47.4351443,38.7996576 58.1136611,53.7590457 C58.1136611,53.7590457 63.2006917,55.3038935 60.4161827,53.0402837 C57.6319814,50.7763673 55.5516789,49.4179561 55.5516789,49.4179561 L55.5516789,49.4179561 Z" id="Path"></path>
                    <path d="M126.061591,87.4105396 C126.061591,87.4105396 110.836202,79.1401766 94.9786281,85.6620835 C79.1210537,92.184297 88.1957155,88.4675245 88.1957155,88.4675245 C88.1957155,88.4675245 115.925695,78.6829778 129.464743,91.1334448 C129.464743,91.1334448 134.76199,91.6026026 131.569976,89.9580972 C128.377655,88.3132851 126.061591,87.4105396 126.061591,87.4105396 L126.061591,87.4105396 Z" id="Path"></path>
                </g>
                <g id="Group" transform="translate(223.000000, 14.000000)" fill="#F0B6B3">
                    <path d="M111.976202,162.626342 C111.976202,162.626342 84.4999345,150.450824 76.3325561,112.249635 C68.1651776,74.048753 36.1548006,28.7066822 16.2675484,13.1233438 C-3.61970371,-2.46030126 0.353615549,0.479737287 0.353615549,0.479737287 C0.353615549,0.479737287 15.293333,12.1295366 28.4470915,27.4805167 C41.6005417,42.8318033 48.6759356,53.2422557 58.0737236,70.9333728 C67.4715115,88.6247965 70.36302,96.0614908 73.594579,109.73477 C76.8264463,123.407742 81.4129664,134.573819 88.0314656,143.298601 C98.7293379,157.401344 111.976202,162.626342 111.976202,162.626342 L111.976202,162.626342 Z" id="Path"></path>
                    <path d="M43.6084737,45.1290245 C43.6084737,45.1290245 36.5691504,36.2476006 25.3194282,36.105672 C14.0693977,35.9637433 20.5032276,36.0544795 20.5032276,36.0544795 C20.5032276,36.0544795 39.7563148,37.2778863 44.6964504,48.242259 C44.6964504,48.242259 47.769237,49.8831751 46.2699934,48.0745808 C44.7710581,46.2662931 43.6084737,45.1290245 43.6084737,45.1290245 L43.6084737,45.1290245 Z" id="Path"></path>
                    <path d="M71.866888,101.483595 C71.866888,101.483595 67.3941292,95.8401679 60.2456691,95.7500447 C53.0975173,95.659615 57.1855227,95.7172448 57.1855227,95.7172448 C57.1855227,95.7172448 69.4193258,96.4946338 72.558396,103.461707 C72.558396,103.461707 74.5108348,104.504254 73.5582001,103.355337 C72.6058736,102.206113 71.866888,101.483595 71.866888,101.483595 Z" id="Path"></path>
                    <path d="M34.6247274,34.2161508 C34.6247274,34.2161508 26.712618,26.0937234 28.073745,14.9889547 C29.434872,3.88449259 28.6659817,10.2363369 28.6659817,10.2363369 C28.6659817,10.2363369 27.3137953,29.3718771 37.5825195,35.7044093 C37.5825195,35.7044093 38.8076879,38.9512957 37.2054734,37.2325181 C35.603259,35.5140471 34.6247274,34.2161508 34.6247274,34.2161508 Z" id="Path"></path>
                    <path d="M62.4946887,78.535906 C62.4946887,78.535906 56.4326638,68.968749 60.0619247,58.3798895 C63.6914939,47.7913366 61.6246773,53.8501273 61.6246773,53.8501273 C61.6246773,53.8501273 56.3426413,72.2996278 65.0812924,80.5970904 C65.0812924,80.5970904 65.6084786,84.0251428 64.3959503,82.0154574 C63.1837303,80.0060786 62.4946887,78.535906 62.4946887,78.535906 L62.4946887,78.535906 Z" id="Path"></path>
                </g>
            </g>
        </g>
    </g>
</svg>